<svg width="316" height="365" viewBox="0 0 316 365" fill="none" xmlns="http://www.w3.org/2000/svg">
<rect x="0.5" y="0.5" width="315" height="364" rx="29.5" fill="white"/>
<rect x="0.5" y="0.5" width="315" height="364" rx="29.5" stroke="#E0E0E0"/>
<circle cx="238" cy="152" r="4" fill="#F4894C"/>
<circle opacity="0.3" cx="238" cy="152" r="8" fill="#F4894C"/>
<path d="M39.7989 55V41H42.1989V55H39.7989ZM44.9338 55V44.92H47.0538L47.2338 46.6C47.5404 46.0133 47.9804 45.5467 48.5538 45.2C49.1271 44.8533 49.8071 44.68 50.5938 44.68C51.4071 44.68 52.1004 44.8533 52.6738 45.2C53.2471 45.5333 53.6871 46.0267 53.9938 46.68C54.3138 47.3333 54.4738 48.1467 54.4738 49.12V55H52.0738V49.34C52.0738 48.5 51.8871 47.8533 51.5138 47.4C51.1404 46.9467 50.5871 46.72 49.8538 46.72C49.3738 46.72 48.9404 46.8333 48.5538 47.06C48.1804 47.2867 47.8804 47.62 47.6538 48.06C47.4404 48.4867 47.3338 49.0067 47.3338 49.62V55H44.9338ZM57.0041 59.4V44.92H59.1441L59.4041 46.38C59.6174 46.0867 59.8707 45.8133 60.1641 45.56C60.4707 45.2933 60.8374 45.08 61.2641 44.92C61.7041 44.76 62.2041 44.68 62.7641 44.68C63.7107 44.68 64.5441 44.9133 65.2641 45.38C65.9974 45.8467 66.5707 46.48 66.9841 47.28C67.3974 48.0667 67.6041 48.9667 67.6041 49.98C67.6041 50.9933 67.3907 51.9 66.9641 52.7C66.5507 53.4867 65.9774 54.1067 65.2441 54.56C64.5241 55.0133 63.6974 55.24 62.7641 55.24C62.0041 55.24 61.3374 55.1 60.7641 54.82C60.2041 54.5267 59.7507 54.1133 59.4041 53.58V59.4H57.0041ZM62.2641 53.16C62.8241 53.16 63.3241 53.0267 63.7641 52.76C64.2041 52.4933 64.5441 52.12 64.7841 51.64C65.0374 51.16 65.1641 50.6067 65.1641 49.98C65.1641 49.34 65.0374 48.78 64.7841 48.3C64.5441 47.82 64.2041 47.4467 63.7641 47.18C63.3241 46.9133 62.8241 46.78 62.2641 46.78C61.6907 46.78 61.1841 46.9133 60.7441 47.18C60.3174 47.4467 59.9774 47.82 59.7241 48.3C59.4841 48.78 59.3641 49.3333 59.3641 49.96C59.3641 50.6 59.4841 51.16 59.7241 51.64C59.9774 52.1067 60.3174 52.48 60.7441 52.76C61.1841 53.0267 61.6907 53.16 62.2641 53.16ZM73.2938 55.24C72.4671 55.24 71.7804 55.1 71.2337 54.82C70.6871 54.54 70.2804 54.1667 70.0138 53.7C69.7471 53.2333 69.6138 52.7267 69.6138 52.18C69.6138 51.54 69.7738 50.9867 70.0938 50.52C70.4271 50.0533 70.9138 49.6933 71.5538 49.44C72.1938 49.1733 72.9804 49.04 73.9138 49.04H76.4538C76.4538 48.5067 76.3804 48.0667 76.2338 47.72C76.0871 47.36 75.8604 47.0933 75.5538 46.92C75.2471 46.7467 74.8538 46.66 74.3738 46.66C73.8271 46.66 73.3604 46.7867 72.9738 47.04C72.5871 47.28 72.3471 47.6533 72.2538 48.16H69.8938C69.9738 47.44 70.2138 46.8267 70.6138 46.32C71.0138 45.8 71.5404 45.4 72.1938 45.12C72.8604 44.8267 73.5871 44.68 74.3738 44.68C75.3204 44.68 76.1271 44.8467 76.7938 45.18C77.4604 45.5 77.9671 45.9667 78.3138 46.58C78.6738 47.18 78.8538 47.9067 78.8538 48.76V55H76.8138L76.5738 53.38C76.4404 53.6467 76.2671 53.8933 76.0538 54.12C75.8538 54.3467 75.6204 54.5467 75.3538 54.72C75.0871 54.88 74.7804 55.0067 74.4338 55.1C74.1004 55.1933 73.7204 55.24 73.2938 55.24ZM73.8338 53.34C74.2204 53.34 74.5604 53.2733 74.8538 53.14C75.1604 52.9933 75.4204 52.7933 75.6338 52.54C75.8604 52.2733 76.0338 51.98 76.1538 51.66C76.2738 51.34 76.3538 51 76.3938 50.64V50.6H74.1738C73.7071 50.6 73.3204 50.66 73.0138 50.78C72.7071 50.8867 72.4871 51.0467 72.3538 51.26C72.2204 51.4733 72.1538 51.72 72.1538 52C72.1538 52.28 72.2204 52.52 72.3538 52.72C72.4871 52.92 72.6804 53.0733 72.9338 53.18C73.1871 53.2867 73.4871 53.34 73.8338 53.34ZM85.6419 55C84.9619 55 84.3685 54.8933 83.8619 54.68C83.3685 54.4667 82.9819 54.1133 82.7019 53.62C82.4219 53.1267 82.2819 52.46 82.2819 51.62V46.94H80.5619V44.92H82.2819L82.5619 42.26H84.6819V44.92H87.4219V46.94H84.6819V51.62C84.6819 52.1267 84.7885 52.48 85.0019 52.68C85.2285 52.8667 85.6019 52.96 86.1219 52.96H87.3619V55H85.6419ZM89.7798 55V44.92H92.1798V55H89.7798ZM90.9798 43.32C90.5398 43.32 90.1732 43.1867 89.8798 42.92C89.5998 42.64 89.4598 42.3 89.4598 41.9C89.4598 41.4867 89.5998 41.1533 89.8798 40.9C90.1732 40.6333 90.5398 40.5 90.9798 40.5C91.4198 40.5 91.7798 40.6333 92.0598 40.9C92.3532 41.1533 92.4998 41.4867 92.4998 41.9C92.4998 42.3 92.3532 42.64 92.0598 42.92C91.7798 43.1867 91.4198 43.32 90.9798 43.32ZM99.6733 55.24C98.6733 55.24 97.7933 55.0267 97.0333 54.6C96.2733 54.16 95.6799 53.5467 95.2533 52.76C94.8266 51.9733 94.6133 51.0667 94.6133 50.04C94.6133 48.9733 94.8199 48.04 95.2333 47.24C95.6599 46.44 96.2533 45.8133 97.0133 45.36C97.7866 44.9067 98.6799 44.68 99.6933 44.68C100.68 44.68 101.54 44.9 102.273 45.34C103.007 45.78 103.573 46.3733 103.973 47.12C104.373 47.8533 104.573 48.68 104.573 49.6C104.573 49.7333 104.573 49.88 104.573 50.04C104.573 50.2 104.56 50.3667 104.533 50.54H96.3333V49H102.153C102.127 48.2667 101.88 47.6933 101.413 47.28C100.947 46.8533 100.367 46.64 99.6733 46.64C99.1799 46.64 98.7266 46.7533 98.3133 46.98C97.8999 47.2067 97.5733 47.5467 97.3333 48C97.0933 48.44 96.9733 49 96.9733 49.68V50.26C96.9733 50.8867 97.0866 51.4267 97.3133 51.88C97.5533 52.3333 97.8733 52.68 98.2733 52.92C98.6866 53.1467 99.1466 53.26 99.6533 53.26C100.213 53.26 100.673 53.14 101.033 52.9C101.407 52.66 101.68 52.34 101.853 51.94H104.293C104.107 52.5667 103.8 53.1333 103.373 53.64C102.947 54.1333 102.42 54.5267 101.793 54.82C101.167 55.1 100.46 55.24 99.6733 55.24ZM106.789 55V44.92H108.909L109.089 46.6C109.396 46.0133 109.836 45.5467 110.409 45.2C110.983 44.8533 111.663 44.68 112.449 44.68C113.263 44.68 113.956 44.8533 114.529 45.2C115.103 45.5333 115.543 46.0267 115.849 46.68C116.169 47.3333 116.329 48.1467 116.329 49.12V55H113.929V49.34C113.929 48.5 113.743 47.8533 113.369 47.4C112.996 46.9467 112.443 46.72 111.709 46.72C111.229 46.72 110.796 46.8333 110.409 47.06C110.036 47.2867 109.736 47.62 109.509 48.06C109.296 48.4867 109.189 49.0067 109.189 49.62V55H106.789ZM123.24 55C122.56 55 121.966 54.8933 121.46 54.68C120.966 54.4667 120.58 54.1133 120.3 53.62C120.02 53.1267 119.88 52.46 119.88 51.62V46.94H118.16V44.92H119.88L120.16 42.26H122.28V44.92H125.02V46.94H122.28V51.62C122.28 52.1267 122.386 52.48 122.6 52.68C122.826 52.8667 123.2 52.96 123.72 52.96H124.96V55H123.24ZM131.32 55L136.44 41H139.12L144.24 55H141.7L137.76 43.8L133.82 55H131.32ZM133.6 51.7L134.24 49.8H141.14L141.78 51.7H133.6ZM150.078 55.24C149.144 55.24 148.311 55.0133 147.578 54.56C146.844 54.1067 146.271 53.48 145.858 52.68C145.458 51.88 145.258 50.9733 145.258 49.96C145.258 48.9467 145.464 48.0467 145.878 47.26C146.291 46.46 146.864 45.8333 147.598 45.38C148.344 44.9133 149.184 44.68 150.118 44.68C150.878 44.68 151.538 44.8267 152.098 45.12C152.671 45.4 153.124 45.8 153.458 46.32V40.6H155.858V55H153.698L153.458 53.54C153.244 53.8333 152.984 54.1133 152.678 54.38C152.371 54.6333 152.004 54.84 151.578 55C151.151 55.16 150.651 55.24 150.078 55.24ZM150.578 53.16C151.151 53.16 151.658 53.0267 152.098 52.76C152.538 52.48 152.878 52.1 153.118 51.62C153.358 51.14 153.478 50.5867 153.478 49.96C153.478 49.3333 153.358 48.78 153.118 48.3C152.878 47.82 152.538 47.4467 152.098 47.18C151.658 46.9133 151.151 46.78 150.578 46.78C150.031 46.78 149.538 46.9133 149.098 47.18C148.658 47.4467 148.311 47.82 148.058 48.3C147.818 48.78 147.698 49.3333 147.698 49.96C147.698 50.5867 147.818 51.14 148.058 51.62C148.311 52.1 148.658 52.48 149.098 52.76C149.538 53.0267 150.031 53.16 150.578 53.16ZM158.528 55V44.92H160.648L160.848 46.3C161.168 45.7933 161.588 45.4 162.108 45.12C162.641 44.8267 163.248 44.68 163.928 44.68C164.434 44.68 164.888 44.7467 165.288 44.88C165.701 45.0133 166.061 45.2133 166.368 45.48C166.688 45.7467 166.948 46.08 167.148 46.48C167.521 45.92 168.008 45.48 168.608 45.16C169.208 44.84 169.861 44.68 170.568 44.68C171.408 44.68 172.121 44.8533 172.708 45.2C173.294 45.5333 173.741 46.0333 174.048 46.7C174.354 47.3533 174.508 48.16 174.508 49.12V55H172.128V49.36C172.128 48.5067 171.954 47.8533 171.608 47.4C171.261 46.9467 170.748 46.72 170.068 46.72C169.601 46.72 169.188 46.8333 168.828 47.06C168.481 47.2867 168.208 47.62 168.008 48.06C167.808 48.4867 167.708 49.0133 167.708 49.64V55H165.328V49.36C165.328 48.5067 165.154 47.8533 164.808 47.4C164.461 46.9467 163.941 46.72 163.248 46.72C162.808 46.72 162.408 46.8333 162.048 47.06C161.701 47.2867 161.428 47.62 161.228 48.06C161.028 48.4867 160.928 49.0133 160.928 49.64V55H158.528ZM177.143 55V44.92H179.543V55H177.143ZM178.343 43.32C177.903 43.32 177.536 43.1867 177.243 42.92C176.963 42.64 176.823 42.3 176.823 41.9C176.823 41.4867 176.963 41.1533 177.243 40.9C177.536 40.6333 177.903 40.5 178.343 40.5C178.783 40.5 179.143 40.6333 179.423 40.9C179.716 41.1533 179.863 41.4867 179.863 41.9C179.863 42.3 179.716 42.64 179.423 42.92C179.143 43.1867 178.783 43.32 178.343 43.32ZM186.697 55C186.017 55 185.423 54.8933 184.917 54.68C184.423 54.4667 184.037 54.1133 183.757 53.62C183.477 53.1267 183.337 52.46 183.337 51.62V46.94H181.617V44.92H183.337L183.617 42.26H185.737V44.92H188.477V46.94H185.737V51.62C185.737 52.1267 185.843 52.48 186.057 52.68C186.283 52.8667 186.657 52.96 187.177 52.96H188.417V55H186.697ZM194.755 55.24C193.861 55.24 193.081 55.1 192.415 54.82C191.761 54.5267 191.241 54.1267 190.855 53.62C190.481 53.1 190.261 52.5067 190.195 51.84H192.595C192.661 52.12 192.781 52.38 192.955 52.62C193.128 52.8467 193.361 53.0267 193.655 53.16C193.961 53.2933 194.321 53.36 194.735 53.36C195.135 53.36 195.461 53.3067 195.715 53.2C195.968 53.08 196.155 52.9267 196.275 52.74C196.395 52.5533 196.455 52.3533 196.455 52.14C196.455 51.82 196.368 51.5733 196.195 51.4C196.021 51.2267 195.768 51.0933 195.435 51C195.115 50.8933 194.728 50.7933 194.275 50.7C193.795 50.6067 193.328 50.4933 192.875 50.36C192.435 50.2133 192.035 50.0333 191.675 49.82C191.328 49.6067 191.048 49.3333 190.835 49C190.635 48.6667 190.535 48.26 190.535 47.78C190.535 47.1933 190.688 46.6667 190.995 46.2C191.315 45.7333 191.768 45.3667 192.355 45.1C192.955 44.82 193.668 44.68 194.495 44.68C195.668 44.68 196.601 44.9533 197.295 45.5C198.001 46.0333 198.415 46.7867 198.535 47.76H196.255C196.188 47.3867 196.001 47.1 195.695 46.9C195.388 46.6867 194.981 46.58 194.475 46.58C193.955 46.58 193.555 46.68 193.275 46.88C193.008 47.0667 192.875 47.32 192.875 47.64C192.875 47.84 192.955 48.0267 193.115 48.2C193.288 48.36 193.535 48.5 193.855 48.62C194.175 48.7267 194.568 48.8333 195.035 48.94C195.781 49.0867 196.441 49.26 197.015 49.46C197.588 49.66 198.041 49.9533 198.375 50.34C198.708 50.7267 198.875 51.2733 198.875 51.98C198.888 52.62 198.721 53.1867 198.375 53.68C198.041 54.1733 197.568 54.56 196.955 54.84C196.341 55.1067 195.608 55.24 194.755 55.24ZM206.086 59.4V44.92H208.226L208.486 46.38C208.699 46.0867 208.953 45.8133 209.246 45.56C209.553 45.2933 209.919 45.08 210.346 44.92C210.786 44.76 211.286 44.68 211.846 44.68C212.793 44.68 213.626 44.9133 214.346 45.38C215.079 45.8467 215.653 46.48 216.066 47.28C216.479 48.0667 216.686 48.9667 216.686 49.98C216.686 50.9933 216.473 51.9 216.046 52.7C215.633 53.4867 215.059 54.1067 214.326 54.56C213.606 55.0133 212.779 55.24 211.846 55.24C211.086 55.24 210.419 55.1 209.846 54.82C209.286 54.5267 208.833 54.1133 208.486 53.58V59.4H206.086ZM211.346 53.16C211.906 53.16 212.406 53.0267 212.846 52.76C213.286 52.4933 213.626 52.12 213.866 51.64C214.119 51.16 214.246 50.6067 214.246 49.98C214.246 49.34 214.119 48.78 213.866 48.3C213.626 47.82 213.286 47.4467 212.846 47.18C212.406 46.9133 211.906 46.78 211.346 46.78C210.773 46.78 210.266 46.9133 209.826 47.18C209.399 47.4467 209.059 47.82 208.806 48.3C208.566 48.78 208.446 49.3333 208.446 49.96C208.446 50.6 208.566 51.16 208.806 51.64C209.059 52.1067 209.399 52.48 209.826 52.76C210.266 53.0267 210.773 53.16 211.346 53.16ZM223.736 55.24C222.736 55.24 221.856 55.0267 221.096 54.6C220.336 54.16 219.742 53.5467 219.316 52.76C218.889 51.9733 218.676 51.0667 218.676 50.04C218.676 48.9733 218.882 48.04 219.296 47.24C219.722 46.44 220.316 45.8133 221.076 45.36C221.849 44.9067 222.742 44.68 223.756 44.68C224.742 44.68 225.602 44.9 226.336 45.34C227.069 45.78 227.636 46.3733 228.036 47.12C228.436 47.8533 228.636 48.68 228.636 49.6C228.636 49.7333 228.636 49.88 228.636 50.04C228.636 50.2 228.622 50.3667 228.596 50.54H220.396V49H226.216C226.189 48.2667 225.942 47.6933 225.476 47.28C225.009 46.8533 224.429 46.64 223.736 46.64C223.242 46.64 222.789 46.7533 222.376 46.98C221.962 47.2067 221.636 47.5467 221.396 48C221.156 48.44 221.036 49 221.036 49.68V50.26C221.036 50.8867 221.149 51.4267 221.376 51.88C221.616 52.3333 221.936 52.68 222.336 52.92C222.749 53.1467 223.209 53.26 223.716 53.26C224.276 53.26 224.736 53.14 225.096 52.9C225.469 52.66 225.742 52.34 225.916 51.94H228.356C228.169 52.5667 227.862 53.1333 227.436 53.64C227.009 54.1333 226.482 54.5267 225.856 54.82C225.229 55.1 224.522 55.24 223.736 55.24ZM230.852 55V44.92H232.992L233.212 46.8C233.452 46.36 233.752 45.9867 234.112 45.68C234.472 45.36 234.892 45.1133 235.372 44.94C235.865 44.7667 236.405 44.68 236.992 44.68V47.22H236.152C235.752 47.22 235.372 47.2733 235.012 47.38C234.652 47.4733 234.338 47.6333 234.072 47.86C233.818 48.0733 233.618 48.3733 233.472 48.76C233.325 49.1333 233.252 49.6067 233.252 50.18V55H230.852ZM243.764 55V41H246.164V46.78L251.444 41H254.424L249.244 46.56L254.544 55H251.624L247.544 48.4L246.164 49.9V55H243.764Z" fill="#1A1A1A"/>
<path d="M42 111.263H292" stroke="#E1E1E2" stroke-width="0.573119" stroke-dasharray="2.29 2.29"/>
<path d="M19.2216 113.416V112.703L21.7433 108.72H22.3046V109.769H21.9484L20.1448 112.624V112.669H23.601V113.416H19.2216ZM21.9883 114.555V113.199L21.994 112.874V108.72H22.8288V114.555H21.9883ZM26.6256 114.652C26.1754 114.65 25.7907 114.532 25.4716 114.296C25.1525 114.061 24.9084 113.718 24.7393 113.267C24.5702 112.817 24.4857 112.275 24.4857 111.641C24.4857 111.008 24.5702 110.468 24.7393 110.019C24.9103 109.571 25.1553 109.229 25.4744 108.993C25.7955 108.758 26.1792 108.64 26.6256 108.64C27.0719 108.64 27.4547 108.759 27.7738 108.996C28.0929 109.232 28.337 109.574 28.5061 110.022C28.6771 110.468 28.7625 111.008 28.7625 111.641C28.7625 112.277 28.678 112.82 28.5089 113.27C28.3399 113.719 28.0958 114.061 27.7767 114.299C27.4576 114.534 27.0738 114.652 26.6256 114.652ZM26.6256 113.891C27.0207 113.891 27.3293 113.699 27.5516 113.313C27.7757 112.927 27.8878 112.37 27.8878 111.641C27.8878 111.156 27.8365 110.747 27.7339 110.412C27.6333 110.076 27.4879 109.822 27.298 109.649C27.1099 109.474 26.8858 109.387 26.6256 109.387C26.2323 109.387 25.9237 109.58 25.6995 109.968C25.4754 110.355 25.3624 110.913 25.3605 111.641C25.3605 112.127 25.4108 112.538 25.5115 112.874C25.614 113.209 25.7594 113.462 25.9474 113.635C26.1355 113.806 26.3615 113.891 26.6256 113.891ZM31.8049 114.652C31.3547 114.65 30.97 114.532 30.6509 114.296C30.3318 114.061 30.0877 113.718 29.9186 113.267C29.7496 112.817 29.6651 112.275 29.6651 111.641C29.6651 111.008 29.7496 110.468 29.9186 110.019C30.0896 109.571 30.3346 109.229 30.6538 108.993C30.9748 108.758 31.3585 108.64 31.8049 108.64C32.2513 108.64 32.634 108.759 32.9532 108.996C33.2723 109.232 33.5164 109.574 33.6854 110.022C33.8564 110.468 33.9419 111.008 33.9419 111.641C33.9419 112.277 33.8573 112.82 33.6883 113.27C33.5192 113.719 33.2751 114.061 32.956 114.299C32.6369 114.534 32.2532 114.652 31.8049 114.652ZM31.8049 113.891C32.2 113.891 32.5087 113.699 32.7309 113.313C32.9551 112.927 33.0671 112.37 33.0671 111.641C33.0671 111.156 33.0159 110.747 32.9133 110.412C32.8126 110.076 32.6673 109.822 32.4773 109.649C32.2893 109.474 32.0651 109.387 31.8049 109.387C31.4117 109.387 31.103 109.58 30.8789 109.968C30.6547 110.355 30.5417 110.913 30.5398 111.641C30.5398 112.127 30.5901 112.538 30.6908 112.874C30.7934 113.209 30.9387 113.462 31.1268 113.635C31.3148 113.806 31.5409 113.891 31.8049 113.891Z" fill="#757575"/>
<path d="M42 180.088H292" stroke="#E1E1E2" stroke-width="0.573119" stroke-dasharray="2.29 2.29"/>
<path d="M22.0273 183.46C21.636 183.46 21.2865 183.393 20.9787 183.258C20.6729 183.123 20.4307 182.936 20.2522 182.696C20.0755 182.455 19.9805 182.176 19.9672 181.859H20.8619C20.8733 182.032 20.9313 182.182 21.0357 182.309C21.1421 182.434 21.2808 182.531 21.4517 182.6C21.6227 182.668 21.8126 182.702 22.0216 182.702C22.2514 182.702 22.4547 182.662 22.6313 182.582C22.8099 182.503 22.9495 182.392 23.0502 182.249C23.1509 182.105 23.2012 181.938 23.2012 181.75C23.2012 181.555 23.1509 181.383 23.0502 181.235C22.9514 181.085 22.8061 180.967 22.6142 180.881C22.4243 180.796 22.1944 180.753 21.9247 180.753H21.4318V180.035H21.9247C22.1413 180.035 22.3312 179.996 22.4946 179.918C22.6598 179.84 22.789 179.732 22.8821 179.594C22.9752 179.453 23.0217 179.289 23.0217 179.101C23.0217 178.92 22.9809 178.763 22.8992 178.63C22.8194 178.496 22.7054 178.39 22.5573 178.314C22.411 178.238 22.2381 178.2 22.0387 178.2C21.8487 178.2 21.6711 178.235 21.5059 178.306C21.3425 178.374 21.2095 178.473 21.107 178.602C21.0044 178.729 20.9493 178.882 20.9417 179.061H20.0898C20.0993 178.745 20.1923 178.468 20.369 178.229C20.5475 177.989 20.7831 177.802 21.0756 177.667C21.3681 177.533 21.693 177.465 22.0501 177.465C22.4243 177.465 22.7472 177.538 23.0188 177.684C23.2924 177.829 23.5032 178.022 23.6514 178.263C23.8015 178.504 23.8755 178.768 23.8736 179.055C23.8755 179.382 23.7844 179.659 23.6001 179.887C23.4178 180.115 23.1746 180.268 22.8707 180.346V180.391C23.2582 180.45 23.5583 180.604 23.7711 180.853C23.9857 181.102 24.0921 181.41 24.0902 181.779C24.0921 182.1 24.0028 182.388 23.8224 182.642C23.6438 182.897 23.3997 183.097 23.0901 183.243C22.7805 183.388 22.4262 183.46 22.0273 183.46ZM27.1988 183.477C26.7486 183.475 26.3639 183.357 26.0448 183.121C25.7257 182.885 25.4816 182.543 25.3125 182.092C25.1435 181.642 25.059 181.1 25.059 180.465C25.059 179.833 25.1435 179.292 25.3125 178.844C25.4835 178.396 25.7285 178.054 26.0477 177.818C26.3687 177.583 26.7524 177.465 27.1988 177.465C27.6452 177.465 28.0279 177.584 28.3471 177.821C28.6662 178.057 28.9103 178.399 29.0793 178.847C29.2503 179.293 29.3358 179.833 29.3358 180.465C29.3358 181.102 29.2512 181.645 29.0822 182.095C28.9131 182.544 28.669 182.886 28.3499 183.124C28.0308 183.359 27.6471 183.477 27.1988 183.477ZM27.1988 182.716C27.5939 182.716 27.9026 182.524 28.1248 182.138C28.349 181.752 28.461 181.195 28.461 180.465C28.461 179.981 28.4098 179.572 28.3072 179.237C28.2065 178.901 28.0612 178.647 27.8712 178.474C27.6832 178.299 27.459 178.212 27.1988 178.212C26.8056 178.212 26.4969 178.405 26.2728 178.793C26.0486 179.18 25.9356 179.738 25.9337 180.465C25.9337 180.952 25.984 181.363 26.0847 181.699C26.1873 182.033 26.3326 182.287 26.5207 182.46C26.7087 182.631 26.9348 182.716 27.1988 182.716ZM32.3781 183.477C31.9279 183.475 31.5433 183.357 31.2242 183.121C30.905 182.885 30.6609 182.543 30.4919 182.092C30.3228 181.642 30.2383 181.1 30.2383 180.465C30.2383 179.833 30.3228 179.292 30.4919 178.844C30.6628 178.396 30.9079 178.054 31.227 177.818C31.548 177.583 31.9317 177.465 32.3781 177.465C32.8245 177.465 33.2073 177.584 33.5264 177.821C33.8455 178.057 34.0896 178.399 34.2587 178.847C34.4296 179.293 34.5151 179.833 34.5151 180.465C34.5151 181.102 34.4306 181.645 34.2615 182.095C34.0925 182.544 33.8484 182.886 33.5293 183.124C33.2101 183.359 32.8264 183.477 32.3781 183.477ZM32.3781 182.716C32.7732 182.716 33.0819 182.524 33.3042 182.138C33.5283 181.752 33.6404 181.195 33.6404 180.465C33.6404 179.981 33.5891 179.572 33.4865 179.237C33.3858 178.901 33.2405 178.647 33.0506 178.474C32.8625 178.299 32.6384 178.212 32.3781 178.212C31.9849 178.212 31.6763 178.405 31.4521 178.793C31.228 179.18 31.1149 179.738 31.113 180.465C31.113 180.952 31.1634 181.363 31.2641 181.699C31.3666 182.033 31.5119 182.287 31.7 182.46C31.8881 182.631 32.1141 182.716 32.3781 182.716Z" fill="#757575"/>
<path d="M42 248.912H292" stroke="#E1E1E2" stroke-width="0.573119" stroke-dasharray="2.29 2.29"/>
<path d="M20.3927 251.919V251.28L22.3673 249.234C22.5781 249.012 22.7519 248.818 22.8887 248.65C23.0274 248.481 23.1309 248.321 23.1993 248.169C23.2677 248.017 23.3019 247.855 23.3019 247.684C23.3019 247.491 23.2563 247.324 23.1651 247.183C23.0739 247.04 22.9495 246.931 22.7918 246.855C22.6342 246.777 22.4566 246.738 22.259 246.738C22.0501 246.738 21.8677 246.781 21.7119 246.867C21.5562 246.952 21.4365 247.073 21.3529 247.229C21.2693 247.384 21.2276 247.567 21.2276 247.776H20.387C20.387 247.42 20.4687 247.11 20.632 246.844C20.7954 246.578 21.0196 246.372 21.3045 246.226C21.5894 246.077 21.9133 246.003 22.2761 246.003C22.6427 246.003 22.9656 246.076 23.2449 246.223C23.526 246.367 23.7454 246.565 23.9031 246.815C24.0607 247.064 24.1396 247.345 24.1396 247.659C24.1396 247.875 24.0987 248.087 24.017 248.294C23.9373 248.501 23.7976 248.732 23.5982 248.987C23.3987 249.239 23.1214 249.546 22.7662 249.907L21.6065 251.121V251.163H24.2336V251.919H20.3927ZM27.345 252.015C26.8948 252.013 26.5102 251.895 26.1911 251.659C25.8719 251.424 25.6278 251.081 25.4588 250.631C25.2897 250.18 25.2052 249.638 25.2052 249.004C25.2052 248.371 25.2897 247.831 25.4588 247.382C25.6297 246.934 25.8748 246.592 26.1939 246.357C26.5149 246.121 26.8986 246.003 27.345 246.003C27.7914 246.003 28.1742 246.122 28.4933 246.36C28.8124 246.595 29.0565 246.937 29.2256 247.385C29.3965 247.832 29.482 248.371 29.482 249.004C29.482 249.64 29.3975 250.183 29.2284 250.633C29.0594 251.082 28.8153 251.425 28.4962 251.662C28.177 251.898 27.7933 252.015 27.345 252.015ZM27.345 251.255C27.7401 251.255 28.0488 251.062 28.2711 250.676C28.4952 250.291 28.6073 249.733 28.6073 249.004C28.6073 248.519 28.556 248.11 28.4534 247.776C28.3527 247.439 28.2074 247.185 28.0175 247.012C27.8294 246.837 27.6053 246.75 27.345 246.75C26.9518 246.75 26.6432 246.944 26.419 247.331C26.1949 247.719 26.0818 248.276 26.0799 249.004C26.0799 249.49 26.1303 249.901 26.231 250.237C26.3335 250.572 26.4788 250.825 26.6669 250.998C26.855 251.169 27.081 251.255 27.345 251.255ZM32.5244 252.015C32.0742 252.013 31.6895 251.895 31.3704 251.659C31.0513 251.424 30.8072 251.081 30.6381 250.631C30.4691 250.18 30.3845 249.638 30.3845 249.004C30.3845 248.371 30.4691 247.831 30.6381 247.382C30.8091 246.934 31.0541 246.592 31.3733 246.357C31.6943 246.121 32.078 246.003 32.5244 246.003C32.9708 246.003 33.3535 246.122 33.6726 246.36C33.9918 246.595 34.2359 246.937 34.4049 247.385C34.5759 247.832 34.6614 248.371 34.6614 249.004C34.6614 249.64 34.5768 250.183 34.4078 250.633C34.2387 251.082 33.9946 251.425 33.6755 251.662C33.3564 251.898 32.9727 252.015 32.5244 252.015ZM32.5244 251.255C32.9195 251.255 33.2282 251.062 33.4504 250.676C33.6745 250.291 33.7866 249.733 33.7866 249.004C33.7866 248.519 33.7353 248.11 33.6328 247.776C33.5321 247.439 33.3868 247.185 33.1968 247.012C33.0088 246.837 32.7846 246.75 32.5244 246.75C32.1312 246.75 31.8225 246.944 31.5983 247.331C31.3742 247.719 31.2612 248.276 31.2593 249.004C31.2593 249.49 31.3096 249.901 31.4103 250.237C31.5129 250.572 31.6582 250.825 31.8462 250.998C32.0343 251.169 32.2603 251.255 32.5244 251.255Z" fill="#757575"/>
<path d="M42 317.737H292" stroke="#A1A1AA" stroke-width="0.630431"/>
<path d="M23.0155 314.048V319.884H22.1322V314.932H22.098L20.7018 315.843V315L22.1578 314.048H23.0155ZM26.6256 319.981C26.1754 319.979 25.7907 319.86 25.4716 319.624C25.1525 319.389 24.9084 319.046 24.7393 318.596C24.5702 318.146 24.4857 317.603 24.4857 316.969C24.4857 316.336 24.5702 315.796 24.7393 315.348C24.9103 314.899 25.1553 314.557 25.4744 314.322C25.7955 314.086 26.1792 313.969 26.6256 313.969C27.0719 313.969 27.4547 314.087 27.7738 314.325C28.0929 314.56 28.337 314.902 28.5061 315.35C28.6771 315.797 28.7625 316.336 28.7625 316.969C28.7625 317.605 28.678 318.148 28.5089 318.599C28.3399 319.047 28.0958 319.39 27.7767 319.627C27.4576 319.863 27.0738 319.981 26.6256 319.981ZM26.6256 319.22C27.0207 319.22 27.3293 319.027 27.5516 318.641C27.7757 318.256 27.8878 317.698 27.8878 316.969C27.8878 316.484 27.8365 316.075 27.7339 315.741C27.6333 315.405 27.4879 315.15 27.298 314.977C27.1099 314.802 26.8858 314.715 26.6256 314.715C26.2323 314.715 25.9237 314.909 25.6995 315.296C25.4754 315.684 25.3624 316.241 25.3605 316.969C25.3605 317.455 25.4108 317.866 25.5115 318.203C25.614 318.537 25.7594 318.791 25.9474 318.963C26.1355 319.134 26.3615 319.22 26.6256 319.22ZM31.8049 319.981C31.3547 319.979 30.97 319.86 30.6509 319.624C30.3318 319.389 30.0877 319.046 29.9186 318.596C29.7496 318.146 29.6651 317.603 29.6651 316.969C29.6651 316.336 29.7496 315.796 29.9186 315.348C30.0896 314.899 30.3346 314.557 30.6538 314.322C30.9748 314.086 31.3585 313.969 31.8049 313.969C32.2513 313.969 32.634 314.087 32.9532 314.325C33.2723 314.56 33.5164 314.902 33.6854 315.35C33.8564 315.797 33.9419 316.336 33.9419 316.969C33.9419 317.605 33.8573 318.148 33.6883 318.599C33.5192 319.047 33.2751 319.39 32.956 319.627C32.6369 319.863 32.2532 319.981 31.8049 319.981ZM31.8049 319.22C32.2 319.22 32.5087 319.027 32.7309 318.641C32.9551 318.256 33.0671 317.698 33.0671 316.969C33.0671 316.484 33.0159 316.075 32.9133 315.741C32.8126 315.405 32.6673 315.15 32.4773 314.977C32.2893 314.802 32.0651 314.715 31.8049 314.715C31.4117 314.715 31.103 314.909 30.8789 315.296C30.6547 315.684 30.5417 316.241 30.5398 316.969C30.5398 317.455 30.5901 317.866 30.6908 318.203C30.7934 318.537 30.9387 318.791 31.1268 318.963C31.3148 319.134 31.5409 319.22 31.8049 319.22Z" fill="#757575"/>
<path fill-rule="evenodd" clip-rule="evenodd" d="M42.5731 111V317.427H42V111H42.5731Z" fill="#E1E1E2"/>
<path d="M41.7107 333.653C41.2605 333.651 40.8759 333.532 40.5568 333.297C40.2376 333.061 39.9935 332.719 39.8245 332.268C39.6554 331.818 39.5709 331.276 39.5709 330.641C39.5709 330.009 39.6554 329.468 39.8245 329.02C39.9954 328.572 40.2405 328.23 40.5596 327.994C40.8806 327.759 41.2643 327.641 41.7107 327.641C42.1571 327.641 42.5399 327.76 42.859 327.997C43.1781 328.233 43.4222 328.575 43.5913 329.023C43.7622 329.469 43.8477 330.009 43.8477 330.641C43.8477 331.278 43.7632 331.821 43.5941 332.271C43.4251 332.719 43.181 333.062 42.8618 333.3C42.5427 333.535 42.159 333.653 41.7107 333.653ZM41.7107 332.892C42.1058 332.892 42.4145 332.7 42.6368 332.314C42.8609 331.928 42.973 331.371 42.973 330.641C42.973 330.157 42.9217 329.748 42.8191 329.413C42.7184 329.077 42.5731 328.823 42.3832 328.65C42.1951 328.475 41.971 328.388 41.7107 328.388C41.3175 328.388 41.0088 328.581 40.7847 328.969C40.5606 329.356 40.4475 329.914 40.4456 330.641C40.4456 331.128 40.496 331.539 40.5966 331.875C40.6992 332.209 40.8445 332.463 41.0326 332.636C41.2206 332.807 41.4467 332.892 41.7107 332.892Z" fill="#A1A1AA"/>
<path d="M105.516 326.575V332.41H104.633V327.458H104.599L103.203 328.37V327.526L104.659 326.575H105.516Z" fill="#A1A1AA"/>
<path d="M165.022 332.41V331.772L166.996 329.726C167.207 329.504 167.381 329.309 167.518 329.142C167.656 328.973 167.76 328.812 167.828 328.66C167.897 328.508 167.931 328.347 167.931 328.176C167.931 327.982 167.885 327.815 167.794 327.674C167.703 327.532 167.579 327.423 167.421 327.347C167.263 327.269 167.086 327.23 166.888 327.23C166.679 327.23 166.497 327.273 166.341 327.358C166.185 327.444 166.066 327.564 165.982 327.72C165.898 327.876 165.857 328.058 165.857 328.267H165.016C165.016 327.912 165.098 327.601 165.261 327.335C165.425 327.069 165.649 326.863 165.934 326.717C166.219 326.569 166.542 326.495 166.905 326.495C167.272 326.495 167.595 326.568 167.874 326.714C168.155 326.859 168.375 327.056 168.532 327.307C168.69 327.556 168.769 327.837 168.769 328.15C168.769 328.367 168.728 328.579 168.646 328.786C168.566 328.993 168.427 329.223 168.227 329.478C168.028 329.731 167.751 330.037 167.395 330.398L166.236 331.612V331.655H168.863V332.41H165.022Z" fill="#A1A1AA"/>
<path d="M228.211 332.49C227.82 332.49 227.471 332.422 227.163 332.287C226.857 332.153 226.615 331.965 226.436 331.726C226.26 331.485 226.165 331.206 226.151 330.888H227.046C227.057 331.061 227.115 331.211 227.22 331.339C227.326 331.464 227.465 331.561 227.636 331.629C227.807 331.698 227.997 331.732 228.206 331.732C228.436 331.732 228.639 331.692 228.816 331.612C228.994 331.532 229.134 331.421 229.234 331.279C229.335 331.134 229.385 330.968 229.385 330.78C229.385 330.585 229.335 330.413 229.234 330.264C229.136 330.114 228.99 329.997 228.798 329.911C228.608 329.826 228.379 329.783 228.109 329.783H227.616V329.065H228.109C228.325 329.065 228.515 329.026 228.679 328.948C228.844 328.87 228.973 328.762 229.066 328.623C229.159 328.483 229.206 328.318 229.206 328.13C229.206 327.95 229.165 327.793 229.083 327.66C229.004 327.525 228.89 327.42 228.741 327.344C228.595 327.268 228.422 327.23 228.223 327.23C228.033 327.23 227.855 327.265 227.69 327.335C227.527 327.404 227.394 327.503 227.291 327.632C227.189 327.759 227.133 327.912 227.126 328.09H226.274C226.283 327.775 226.377 327.498 226.553 327.258C226.732 327.019 226.967 326.832 227.26 326.697C227.552 326.562 227.877 326.495 228.234 326.495C228.608 326.495 228.931 326.568 229.203 326.714C229.477 326.859 229.687 327.051 229.836 327.293C229.986 327.534 230.06 327.798 230.058 328.085C230.06 328.411 229.969 328.689 229.784 328.917C229.602 329.145 229.359 329.298 229.055 329.375V329.421C229.442 329.48 229.743 329.634 229.955 329.883C230.17 330.131 230.276 330.44 230.274 330.809C230.276 331.13 230.187 331.417 230.007 331.672C229.828 331.927 229.584 332.127 229.274 332.273C228.965 332.418 228.61 332.49 228.211 332.49Z" fill="#A1A1AA"/>
<path d="M288.375 331.27V330.558L290.897 326.575H291.458V327.623H291.102L289.298 330.478V330.524H292.754V331.27H288.375ZM291.142 332.41V331.054L291.147 330.729V326.575H291.982V332.41H291.142Z" fill="#A1A1AA"/>
<path opacity="0.1" d="M42.9541 318.061V273.685C43.8084 273.685 45.148 273.286 46.7905 272.591C48.4067 271.907 50.2284 270.974 52.0074 269.99C55.5639 268.022 58.8954 265.877 59.9672 265.176C60.1437 265.061 60.3155 264.919 60.4886 264.746L74.5414 250.719C77.1002 248.165 80.1499 249.118 82.2337 253.125L91.5074 270.954C93.6121 275 97.0096 273.499 98.1402 268.023L108.086 219.854C110.418 208.558 118.053 208.159 120.655 219.199L129.384 256.23C130.708 261.845 134.376 262.76 136.301 257.955L146.144 233.393C148.006 228.747 151.067 227.018 153.804 229.067L164.299 236.924C165.941 238.153 167.778 237.116 168.895 234.329L178.133 211.275C181.523 202.816 188.043 205.09 189.918 215.387L199.548 253.876C200.865 261.104 205.738 261.364 207.232 254.285L219.577 210.131C219.585 210.093 219.593 210.055 219.602 210.018C219.607 209.998 219.612 209.978 219.617 209.958L232.069 160.241C234.752 149.529 242.208 150.047 244.541 161.108L253.368 202.959C254.724 209.388 259.009 209.939 260.736 203.906L272.968 161.173C273.011 161.021 273.053 160.88 273.104 160.719C273.564 159.251 276.949 148.514 280.766 138.125C282.671 132.94 284.71 127.766 286.564 123.865C287.489 121.918 288.401 120.217 289.254 118.982C290.055 117.822 291.018 116.752 292 116.752V318.061H42.9541Z" fill="#F6AC82"/>
<path d="M42.9541 273.685C43.8084 273.685 45.148 273.286 46.7905 272.591C48.4067 271.907 50.2284 270.974 52.0074 269.99C55.5639 268.022 58.8954 265.877 59.9672 265.176C60.1437 265.061 60.3155 264.919 60.4886 264.746L74.5414 250.719C77.1002 248.165 80.1499 249.119 82.2337 253.125L91.5074 270.954C93.6121 275 97.0096 273.499 98.1402 268.023L108.086 219.854C110.418 208.558 118.053 208.159 120.655 219.199L129.384 256.23C130.708 261.845 134.376 262.76 136.301 257.955L146.144 233.393C148.006 228.747 151.067 227.018 153.804 229.067L164.299 236.924C165.941 238.153 167.778 237.116 168.895 234.329L178.133 211.275C181.523 202.816 188.043 205.09 189.918 215.387L199.548 253.876C200.865 261.104 205.738 261.364 207.232 254.285L219.577 210.131C219.585 210.093 219.593 210.055 219.602 210.018C219.607 209.998 219.612 209.978 219.617 209.958L232.069 160.241C234.752 149.529 242.208 150.047 244.541 161.108L253.368 202.959C254.724 209.388 259.009 209.939 260.736 203.906L272.968 161.173C273.011 161.021 273.053 160.88 273.104 160.719C273.564 159.251 276.949 148.514 280.766 138.125C282.671 132.94 284.71 127.766 286.564 123.865C287.489 121.918 288.401 120.217 289.254 118.982C290.055 117.822 291.018 116.752 292 116.752" stroke="#F4894C" stroke-width="1.9084" stroke-linejoin="round"/>
<g filter="url(#filter0_dd_1_628)">
<mask id="path-21-inside-1_1_628" fill="white">
<path fill-rule="evenodd" clip-rule="evenodd" d="M207.307 84.1875C203.375 84.1875 200.188 87.3748 200.188 91.3066V129.881C200.188 133.813 203.375 137 207.307 137H232.375L237.25 141.062L242.125 137H244.756C248.688 137 251.875 133.813 251.875 129.881V91.3065C251.875 87.3748 248.688 84.1875 244.756 84.1875H207.307Z"/>
</mask>
<path fill-rule="evenodd" clip-rule="evenodd" d="M207.307 84.1875C203.375 84.1875 200.188 87.3748 200.188 91.3066V129.881C200.188 133.813 203.375 137 207.307 137H232.375L237.25 141.062L242.125 137H244.756C248.688 137 251.875 133.813 251.875 129.881V91.3065C251.875 87.3748 248.688 84.1875 244.756 84.1875H207.307Z" fill="white"/>
<path d="M232.375 137L232.895 136.376L232.669 136.188H232.375V137ZM237.25 141.062L236.73 141.687L237.25 142.12L237.77 141.687L237.25 141.062ZM242.125 137V136.188H241.831L241.605 136.376L242.125 137ZM201 91.3066C201 87.8235 203.824 85 207.307 85V83.375C202.926 83.375 199.375 86.9261 199.375 91.3066H201ZM201 129.881V91.3066H199.375V129.881H201ZM207.307 136.188C203.824 136.188 201 133.364 201 129.881H199.375C199.375 134.261 202.926 137.812 207.307 137.812V136.188ZM232.375 136.188H207.307V137.812H232.375V136.188ZM237.77 140.438L232.895 136.376L231.855 137.624L236.73 141.687L237.77 140.438ZM241.605 136.376L236.73 140.438L237.77 141.687L242.645 137.624L241.605 136.376ZM244.756 136.188H242.125V137.812H244.756V136.188ZM251.062 129.881C251.062 133.364 248.239 136.188 244.756 136.188V137.812C249.136 137.812 252.688 134.261 252.688 129.881H251.062ZM251.062 91.3065V129.881H252.688V91.3065H251.062ZM244.756 85C248.239 85 251.062 87.8235 251.062 91.3065H252.688C252.688 86.9261 249.136 83.375 244.756 83.375V85ZM207.307 85H244.756V83.375H207.307V85Z" fill="#E1E1E2" mask="url(#path-21-inside-1_1_628)"/>
</g>
<path d="M215.608 104.5H214.283L217.26 96.2273H218.702L221.679 104.5H220.354L218.015 97.7299H217.951L215.608 104.5ZM215.83 101.26H220.128V102.311H215.83V101.26ZM225.552 104.5H222.874V96.2273H225.637C226.447 96.2273 227.143 96.3929 227.725 96.7241C228.307 97.0527 228.752 97.5253 229.062 98.142C229.374 98.7559 229.531 99.4925 229.531 100.352C229.531 101.213 229.373 101.954 229.058 102.573C228.746 103.193 228.293 103.669 227.701 104.003C227.108 104.334 226.392 104.5 225.552 104.5ZM224.122 103.409H225.483C226.113 103.409 226.637 103.291 227.054 103.054C227.472 102.814 227.784 102.468 227.992 102.016C228.199 101.561 228.303 101.006 228.303 100.352C228.303 99.7025 228.199 99.1518 227.992 98.6994C227.787 98.247 227.481 97.9036 227.075 97.6693C226.668 97.4351 226.163 97.3179 225.56 97.3179H224.122V103.409ZM231.083 104.5V96.2273H232.331V100.178H232.432L235.902 96.2273H237.473L234.136 99.9516L237.485 104.5H235.983L233.308 100.804L232.331 101.927V104.5H231.083Z" fill="#52525B"/>
<path d="M217.723 125.863C217.168 125.863 216.673 125.768 216.236 125.576C215.803 125.385 215.46 125.12 215.206 124.781C214.956 124.439 214.821 124.043 214.802 123.593H216.071C216.087 123.838 216.169 124.051 216.317 124.231C216.468 124.409 216.665 124.546 216.907 124.643C217.149 124.74 217.419 124.789 217.715 124.789C218.041 124.789 218.329 124.732 218.579 124.619C218.832 124.506 219.03 124.348 219.173 124.146C219.316 123.942 219.387 123.706 219.387 123.439C219.387 123.162 219.316 122.918 219.173 122.708C219.033 122.496 218.827 122.329 218.555 122.207C218.286 122.086 217.96 122.026 217.578 122.026H216.879V121.008H217.578C217.885 121.008 218.154 120.953 218.385 120.842C218.62 120.732 218.803 120.578 218.935 120.382C219.067 120.182 219.133 119.949 219.133 119.683C219.133 119.427 219.075 119.205 218.959 119.016C218.846 118.825 218.684 118.676 218.474 118.568C218.267 118.46 218.022 118.406 217.739 118.406C217.47 118.406 217.218 118.456 216.984 118.556C216.752 118.653 216.564 118.793 216.418 118.976C216.273 119.156 216.195 119.373 216.184 119.626H214.976C214.99 119.179 215.122 118.786 215.372 118.447C215.625 118.107 215.959 117.842 216.374 117.651C216.789 117.46 217.249 117.364 217.755 117.364C218.286 117.364 218.744 117.468 219.129 117.675C219.516 117.88 219.815 118.153 220.025 118.495C220.238 118.837 220.343 119.212 220.341 119.618C220.343 120.081 220.214 120.475 219.953 120.798C219.694 121.121 219.35 121.338 218.919 121.448V121.513C219.468 121.596 219.894 121.814 220.195 122.167C220.499 122.52 220.65 122.957 220.648 123.48C220.65 123.935 220.524 124.343 220.268 124.704C220.015 125.065 219.669 125.349 219.23 125.556C218.791 125.761 218.289 125.863 217.723 125.863ZM225.063 125.863C224.694 125.858 224.33 125.79 223.972 125.661C223.616 125.532 223.293 125.316 223.003 125.015C222.712 124.713 222.479 124.308 222.304 123.799C222.131 123.29 222.045 122.654 222.045 121.892C222.045 121.171 222.117 120.53 222.259 119.97C222.405 119.409 222.613 118.937 222.885 118.552C223.157 118.164 223.486 117.869 223.871 117.667C224.256 117.465 224.688 117.364 225.168 117.364C225.66 117.364 226.098 117.461 226.48 117.655C226.863 117.849 227.173 118.117 227.41 118.459C227.649 118.801 227.801 119.19 227.866 119.626H226.634C226.55 119.282 226.385 119 226.137 118.782C225.889 118.564 225.566 118.455 225.168 118.455C224.562 118.455 224.089 118.719 223.75 119.247C223.413 119.774 223.244 120.508 223.241 121.448H223.301C223.444 121.214 223.619 121.014 223.827 120.85C224.037 120.683 224.271 120.555 224.529 120.466C224.791 120.375 225.065 120.329 225.353 120.329C225.833 120.329 226.266 120.446 226.654 120.681C227.045 120.912 227.356 121.233 227.587 121.642C227.819 122.051 227.935 122.52 227.935 123.048C227.935 123.575 227.815 124.053 227.575 124.482C227.338 124.91 227.004 125.249 226.573 125.5C226.142 125.747 225.639 125.868 225.063 125.863ZM225.059 124.813C225.376 124.813 225.66 124.735 225.911 124.579C226.161 124.422 226.359 124.212 226.505 123.948C226.65 123.685 226.723 123.39 226.723 123.064C226.723 122.746 226.651 122.457 226.509 122.195C226.369 121.934 226.175 121.727 225.927 121.573C225.682 121.42 225.402 121.343 225.087 121.343C224.847 121.343 224.625 121.389 224.42 121.48C224.218 121.572 224.041 121.698 223.887 121.86C223.734 122.022 223.612 122.207 223.524 122.417C223.437 122.625 223.394 122.844 223.394 123.076C223.394 123.386 223.466 123.672 223.608 123.936C223.754 124.2 223.952 124.413 224.202 124.575C224.455 124.733 224.741 124.813 225.059 124.813ZM232.286 125.887C231.648 125.885 231.103 125.716 230.65 125.382C230.198 125.048 229.852 124.562 229.612 123.924C229.372 123.286 229.252 122.517 229.252 121.618C229.252 120.721 229.372 119.955 229.612 119.319C229.854 118.684 230.202 118.199 230.654 117.865C231.109 117.531 231.653 117.364 232.286 117.364C232.919 117.364 233.462 117.532 233.914 117.869C234.366 118.203 234.712 118.688 234.952 119.323C235.194 119.956 235.316 120.721 235.316 121.618C235.316 122.52 235.196 123.29 234.956 123.928C234.716 124.564 234.37 125.05 233.918 125.386C233.466 125.72 232.922 125.887 232.286 125.887ZM232.286 124.809C232.846 124.809 233.284 124.535 233.599 123.989C233.917 123.442 234.076 122.652 234.076 121.618C234.076 120.931 234.003 120.351 233.857 119.877C233.715 119.4 233.509 119.039 233.239 118.794C232.973 118.546 232.655 118.422 232.286 118.422C231.729 118.422 231.291 118.697 230.973 119.247C230.656 119.796 230.495 120.586 230.493 121.618C230.493 122.307 230.564 122.89 230.707 123.367C230.852 123.841 231.058 124.2 231.325 124.445C231.591 124.688 231.912 124.809 232.286 124.809Z" fill="#1A1A1A"/>
<defs>
<filter id="filter0_dd_1_628" x="197.188" y="82.1875" width="57.6875" height="62.875" filterUnits="userSpaceOnUse" color-interpolation-filters="sRGB">
<feFlood flood-opacity="0" result="BackgroundImageFix"/>
<feColorMatrix in="SourceAlpha" type="matrix" values="0 0 0 0 0 0 0 0 0 0 0 0 0 0 0 0 0 0 127 0" result="hardAlpha"/>
<feOffset dy="1"/>
<feGaussianBlur stdDeviation="1.5"/>
<feColorMatrix type="matrix" values="0 0 0 0 0.101961 0 0 0 0 0.101961 0 0 0 0 0.101961 0 0 0 0.08 0"/>
<feBlend mode="normal" in2="BackgroundImageFix" result="effect1_dropShadow_1_628"/>
<feColorMatrix in="SourceAlpha" type="matrix" values="0 0 0 0 0 0 0 0 0 0 0 0 0 0 0 0 0 0 127 0" result="hardAlpha"/>
<feOffset dy="0.5"/>
<feColorMatrix type="matrix" values="0 0 0 0 0.101961 0 0 0 0 0.101961 0 0 0 0 0.101961 0 0 0 0.08 0"/>
<feBlend mode="normal" in2="effect1_dropShadow_1_628" result="effect2_dropShadow_1_628"/>
<feBlend mode="normal" in="SourceGraphic" in2="effect2_dropShadow_1_628" result="shape"/>
</filter>
</defs>
</svg>
