<svg width="84" height="79" viewBox="0 0 84 79" fill="none" xmlns="http://www.w3.org/2000/svg">
<path d="M0 73.1456V55.424H3.34169V73.1456H0Z" fill="#172D4B"/>
<path d="M6.78463 73.1456V60.5885H9.92368V61.9554H10.3796C10.5991 61.5332 10.9622 61.1664 11.4679 60.854C11.9745 60.5416 12.6406 60.3858 13.468 60.3858C14.3621 60.3858 15.0797 60.5594 15.6201 60.9046C16.1605 61.2508 16.5733 61.7021 16.8604 62.2593H17.3163C17.6034 61.7189 18.0086 61.2724 18.5312 60.9178C19.0537 60.5631 19.7968 60.3858 20.7593 60.3858C21.5352 60.3858 22.2406 60.55 22.8729 60.8793C23.5053 61.2086 24.0119 61.7067 24.3918 62.3728C24.7718 63.0399 24.9613 63.8795 24.9613 64.8918V73.1456H21.7716V65.1197C21.7716 64.4274 21.5943 63.9086 21.2396 63.5624C20.885 63.2162 20.3869 63.0436 19.7461 63.0436C19.02 63.0436 18.459 63.2763 18.0621 63.7397C17.6653 64.2041 17.4673 64.8664 17.4673 65.7267V73.1447H14.2776V65.1188C14.2776 64.4264 14.1003 63.9076 13.7457 63.5615C13.3911 63.2153 12.8929 63.0427 12.2522 63.0427C11.526 63.0427 10.965 63.2753 10.5682 63.7388C10.1714 64.2032 9.9734 64.8655 9.9734 65.7258V73.1437H6.78369L6.78463 73.1456Z" fill="#172D4B"/>
<path d="M28.4053 78.2088V60.5885H31.5443V62.1073H32.0003C32.2873 61.6176 32.7348 61.1833 33.3418 60.8033C33.9497 60.4234 34.8185 60.2339 35.9499 60.2339C36.9621 60.2339 37.8993 60.4834 38.7596 60.9806C39.6208 61.4788 40.3123 62.2087 40.8357 63.1703C41.3583 64.1319 41.621 65.297 41.621 66.6639V67.0692C41.621 68.4361 41.3592 69.6013 40.8357 70.5629C40.3123 71.5245 39.6208 72.2553 38.7596 72.7525C37.8984 73.2497 36.9621 73.4993 35.9499 73.4993C35.19 73.4993 34.553 73.4111 34.0379 73.2338C33.5229 73.0565 33.1092 72.8285 32.7977 72.5499C32.4853 72.2712 32.2367 71.9889 32.0509 71.7018H31.595V78.2079H28.4053V78.2088ZM34.9883 70.7149C35.9836 70.7149 36.8064 70.3987 37.4565 69.7655C38.1057 69.1322 38.4313 68.2081 38.4313 66.9932V66.7399C38.4313 65.525 38.102 64.6009 37.4443 63.9677C36.7867 63.3344 35.9668 63.0183 34.9883 63.0183C34.0098 63.0183 33.1908 63.3344 32.5322 63.9677C31.8736 64.6009 31.5453 65.525 31.5453 66.7399V66.9932C31.5453 68.2081 31.8745 69.1322 32.5322 69.7655C33.1908 70.3987 34.0088 70.7149 34.9883 70.7149Z" fill="#172D4B"/>
<path d="M46.1531 59.1203C45.5789 59.1203 45.0939 58.9345 44.6971 58.563C44.3002 58.1915 44.1023 57.7018 44.1023 57.0948C44.1023 56.4878 44.3002 55.9981 44.6971 55.6266C45.0939 55.2551 45.5789 55.0693 46.1531 55.0693C46.7272 55.0693 47.2329 55.2551 47.6213 55.6266C48.0097 55.9981 48.2039 56.4878 48.2039 57.0948C48.2039 57.7018 48.0097 58.1924 47.6213 58.563C47.2329 58.9345 46.7432 59.1203 46.1531 59.1203ZM44.5582 73.1456V60.5885H47.7479V73.1456H44.5582Z" fill="#172D4B"/>
<path d="M51.2925 73.1456V55.424H54.4822V73.1456H51.2925Z" fill="#172D4B"/>
<path d="M64.0014 73.5002C62.7518 73.5002 61.6298 73.2469 60.6344 72.7403C59.6381 72.2337 58.8538 71.5001 58.2797 70.5376C57.7055 69.576 57.4185 68.4192 57.4185 67.0692V66.6639C57.4185 65.3139 57.7055 64.1572 58.2797 63.1956C58.8529 62.234 59.6381 61.4994 60.6344 60.9928C61.6298 60.4862 62.7528 60.2329 64.0014 60.2329C65.2501 60.2329 66.3722 60.4862 67.3685 60.9928C68.3638 61.4994 69.1491 62.2331 69.7232 63.1956C70.2964 64.1572 70.5844 65.3139 70.5844 66.6639V67.0692C70.5844 68.4202 70.2974 69.576 69.7232 70.5376C69.1491 71.4992 68.3648 72.2337 67.3685 72.7403C66.3722 73.2469 65.2501 73.5002 64.0014 73.5002ZM64.0014 70.6642C64.9799 70.6642 65.7905 70.348 66.4322 69.7148C67.073 69.0815 67.3938 68.1744 67.3938 66.9932V66.7399C67.3938 65.5588 67.0776 64.6516 66.4444 64.0184C65.8111 63.3851 64.9968 63.0689 64.0014 63.0689C63.0061 63.0689 62.2124 63.3851 61.5707 64.0184C60.929 64.6516 60.6091 65.5588 60.6091 66.7399V66.9932C60.6091 68.1753 60.9299 69.0815 61.5707 69.7148C62.2115 70.348 63.022 70.6642 64.0014 70.6642Z" fill="#172D4B"/>
<path d="M78.7359 73.5002C77.0989 73.5002 75.7564 73.1456 74.7103 72.4373C73.6634 71.7281 73.0311 70.7158 72.8115 69.3996L75.7479 68.6397C75.8661 69.2307 76.0641 69.6951 76.3427 70.0319C76.6213 70.3696 76.9666 70.6107 77.3803 70.7533C77.794 70.8969 78.2453 70.9682 78.735 70.9682C79.4771 70.9682 80.0259 70.8378 80.3805 70.576C80.7351 70.3143 80.9124 69.9897 80.9124 69.6013C80.9124 69.2129 80.7436 68.9136 80.4058 68.7025C80.0681 68.4914 79.5277 68.3188 78.7857 68.1837L78.0764 68.0571C77.1983 67.8882 76.3971 67.6565 75.671 67.361C74.9449 67.0655 74.3632 66.6564 73.9242 66.1329C73.4851 65.6104 73.2656 64.9349 73.2656 64.1075C73.2656 62.8588 73.7215 61.9009 74.6325 61.2339C75.5434 60.5678 76.7424 60.2339 78.2275 60.2339C79.6281 60.2339 80.7933 60.5463 81.7211 61.1701C82.649 61.7949 83.2569 62.613 83.5439 63.6262L80.5822 64.5371C80.4471 63.8964 80.1732 63.4404 79.7595 63.1703C79.3457 62.9001 78.8354 62.765 78.2275 62.765C77.6195 62.765 77.1552 62.871 76.8352 63.0811C76.5144 63.2922 76.354 63.583 76.354 63.9546C76.354 64.3598 76.5228 64.6591 76.8606 64.8533C77.1983 65.0475 77.6533 65.1948 78.2275 65.2961L78.9367 65.4228C79.8814 65.5916 80.7379 65.8149 81.5063 66.0935C82.2737 66.3722 82.8816 66.769 83.3291 67.2831C83.7757 67.7982 83.9999 68.4943 83.9999 69.3714C83.9999 70.6877 83.5224 71.7046 82.5692 72.4223C81.6151 73.14 80.3374 73.4983 78.7341 73.4983L78.7359 73.5002Z" fill="#172D4B"/>
<rect x="18.5754" width="46.9075" height="46.9075" rx="5.62889" fill="#172D4B"/>
<path d="M39.5538 7.05948V11.9405C36.2403 12.9187 33.6803 15.6557 32.9552 19.0702H28.1445C28.9166 12.9948 33.578 8.13294 39.5538 7.05948Z" fill="#D9F461"/>
<path d="M55.9529 19.0703H51.5439C50.7803 15.4738 47.9822 12.6302 44.4106 11.7999V7.03613C50.4505 8.06055 55.1752 12.9494 55.9529 19.0703Z" fill="#D9F461"/>
<path d="M55.7275 23.9272C54.4955 29.436 50.0204 33.7206 44.4114 34.6725V30.3097C47.683 29.549 50.3062 27.0978 51.31 23.9279H55.7275V23.9272Z" fill="#D9F461"/>
<path d="M39.5538 30.1689V34.6491C34.0074 33.6524 29.5926 29.3926 28.3706 23.9272H33.1898C34.1389 26.9237 36.5332 29.2768 39.5538 30.1689Z" fill="#D9F461"/>
<path d="M44.4106 34.6726V39.8714H39.5537V34.6491C40.3634 34.7949 41.1973 34.8709 42.049 34.8709C42.8537 34.8709 43.6428 34.8034 44.4106 34.6726Z" fill="#D9F461"/>
<path d="M44.4106 19.0703H39.5537V23.9272H44.4106V19.0703Z" fill="#D9F461"/>
</svg>
