<svg width="316" height="365" viewBox="0 0 316 365" fill="none" xmlns="http://www.w3.org/2000/svg">
<rect x="0.5" y="0.5" width="315" height="364" rx="29.5" fill="white"/>
<rect x="0.5" y="0.5" width="315" height="364" rx="29.5" stroke="#E0E0E0"/>
<path d="M39.42 55V41H44.46C45.58 41 46.5067 41.1933 47.24 41.58C47.9733 41.9533 48.52 42.46 48.88 43.1C49.24 43.74 49.42 44.4733 49.42 45.3C49.42 46.0733 49.2467 46.7867 48.9 47.44C48.5533 48.08 48.0133 48.6 47.28 49C46.5467 49.3867 45.6067 49.58 44.46 49.58H41.82V55H39.42ZM41.82 47.62H44.32C45.2667 47.62 45.9467 47.4133 46.36 47C46.7733 46.5733 46.98 46.0067 46.98 45.3C46.98 44.5667 46.7733 43.9933 46.36 43.58C45.9467 43.1667 45.2667 42.96 44.32 42.96H41.82V47.62ZM54.1648 55.24C53.3382 55.24 52.6515 55.1 52.1048 54.82C51.5582 54.54 51.1515 54.1667 50.8848 53.7C50.6182 53.2333 50.4848 52.7267 50.4848 52.18C50.4848 51.54 50.6448 50.9867 50.9648 50.52C51.2982 50.0533 51.7848 49.6933 52.4248 49.44C53.0648 49.1733 53.8515 49.04 54.7848 49.04H57.3248C57.3248 48.5067 57.2515 48.0667 57.1048 47.72C56.9582 47.36 56.7315 47.0933 56.4248 46.92C56.1182 46.7467 55.7248 46.66 55.2448 46.66C54.6982 46.66 54.2315 46.7867 53.8448 47.04C53.4582 47.28 53.2182 47.6533 53.1248 48.16H50.7648C50.8448 47.44 51.0848 46.8267 51.4848 46.32C51.8848 45.8 52.4115 45.4 53.0648 45.12C53.7315 44.8267 54.4582 44.68 55.2448 44.68C56.1915 44.68 56.9982 44.8467 57.6648 45.18C58.3315 45.5 58.8382 45.9667 59.1848 46.58C59.5448 47.18 59.7248 47.9067 59.7248 48.76V55H57.6848L57.4448 53.38C57.3115 53.6467 57.1382 53.8933 56.9248 54.12C56.7248 54.3467 56.4915 54.5467 56.2248 54.72C55.9582 54.88 55.6515 55.0067 55.3048 55.1C54.9715 55.1933 54.5915 55.24 54.1648 55.24ZM54.7048 53.34C55.0915 53.34 55.4315 53.2733 55.7248 53.14C56.0315 52.9933 56.2915 52.7933 56.5048 52.54C56.7315 52.2733 56.9048 51.98 57.0248 51.66C57.1448 51.34 57.2248 51 57.2648 50.64V50.6H55.0448C54.5782 50.6 54.1915 50.66 53.8848 50.78C53.5782 50.8867 53.3582 51.0467 53.2248 51.26C53.0915 51.4733 53.0248 51.72 53.0248 52C53.0248 52.28 53.0915 52.52 53.2248 52.72C53.3582 52.92 53.5515 53.0733 53.8048 53.18C54.0582 53.2867 54.3582 53.34 54.7048 53.34ZM66.513 55C65.833 55 65.2396 54.8933 64.733 54.68C64.2396 54.4667 63.853 54.1133 63.573 53.62C63.293 53.1267 63.153 52.46 63.153 51.62V46.94H61.433V44.92H63.153L63.433 42.26H65.553V44.92H68.293V46.94H65.553V51.62C65.553 52.1267 65.6596 52.48 65.873 52.68C66.0996 52.8667 66.473 52.96 66.993 52.96H68.233V55H66.513ZM70.6509 55V44.92H73.0509V55H70.6509ZM71.8509 43.32C71.4109 43.32 71.0443 43.1867 70.7509 42.92C70.4709 42.64 70.3309 42.3 70.3309 41.9C70.3309 41.4867 70.4709 41.1533 70.7509 40.9C71.0443 40.6333 71.4109 40.5 71.8509 40.5C72.2909 40.5 72.6509 40.6333 72.9309 40.9C73.2243 41.1533 73.3709 41.4867 73.3709 41.9C73.3709 42.3 73.2243 42.64 72.9309 42.92C72.6509 43.1867 72.2909 43.32 71.8509 43.32ZM80.5444 55.24C79.5444 55.24 78.6644 55.0267 77.9044 54.6C77.1444 54.16 76.551 53.5467 76.1244 52.76C75.6977 51.9733 75.4844 51.0667 75.4844 50.04C75.4844 48.9733 75.691 48.04 76.1044 47.24C76.531 46.44 77.1244 45.8133 77.8844 45.36C78.6577 44.9067 79.551 44.68 80.5644 44.68C81.551 44.68 82.411 44.9 83.1444 45.34C83.8777 45.78 84.4444 46.3733 84.8444 47.12C85.2444 47.8533 85.4444 48.68 85.4444 49.6C85.4444 49.7333 85.4444 49.88 85.4444 50.04C85.4444 50.2 85.431 50.3667 85.4044 50.54H77.2044V49H83.0244C82.9977 48.2667 82.751 47.6933 82.2844 47.28C81.8177 46.8533 81.2377 46.64 80.5444 46.64C80.051 46.64 79.5977 46.7533 79.1844 46.98C78.771 47.2067 78.4444 47.5467 78.2044 48C77.9644 48.44 77.8444 49 77.8444 49.68V50.26C77.8444 50.8867 77.9577 51.4267 78.1844 51.88C78.4244 52.3333 78.7444 52.68 79.1444 52.92C79.5577 53.1467 80.0177 53.26 80.5244 53.26C81.0844 53.26 81.5444 53.14 81.9044 52.9C82.2777 52.66 82.551 52.34 82.7244 51.94H85.1644C84.9777 52.5667 84.671 53.1333 84.2444 53.64C83.8177 54.1333 83.291 54.5267 82.6644 54.82C82.0377 55.1 81.331 55.24 80.5444 55.24ZM87.6603 55V44.92H89.7803L89.9603 46.6C90.267 46.0133 90.707 45.5467 91.2803 45.2C91.8536 44.8533 92.5336 44.68 93.3203 44.68C94.1336 44.68 94.827 44.8533 95.4003 45.2C95.9736 45.5333 96.4136 46.0267 96.7203 46.68C97.0403 47.3333 97.2003 48.1467 97.2003 49.12V55H94.8003V49.34C94.8003 48.5 94.6136 47.8533 94.2403 47.4C93.867 46.9467 93.3136 46.72 92.5803 46.72C92.1003 46.72 91.667 46.8333 91.2803 47.06C90.907 47.2867 90.607 47.62 90.3803 48.06C90.167 48.4867 90.0603 49.0067 90.0603 49.62V55H87.6603ZM104.111 55C103.431 55 102.837 54.8933 102.331 54.68C101.837 54.4667 101.451 54.1133 101.171 53.62C100.891 53.1267 100.751 52.46 100.751 51.62V46.94H99.0306V44.92H100.751L101.031 42.26H103.151V44.92H105.891V46.94H103.151V51.62C103.151 52.1267 103.257 52.48 103.471 52.68C103.697 52.8667 104.071 52.96 104.591 52.96H105.831V55H104.111ZM112.191 55L117.311 41H119.991L125.111 55H122.571L118.631 43.8L114.691 55H112.191ZM114.471 51.7L115.111 49.8H122.011L122.651 51.7H114.471ZM126.957 55V40.6H129.357V55H126.957ZM132.135 55V44.92H134.535V55H132.135ZM133.335 43.32C132.895 43.32 132.529 43.1867 132.235 42.92C131.955 42.64 131.815 42.3 131.815 41.9C131.815 41.4867 131.955 41.1533 132.235 40.9C132.529 40.6333 132.895 40.5 133.335 40.5C133.775 40.5 134.135 40.6333 134.415 40.9C134.709 41.1533 134.855 41.4867 134.855 41.9C134.855 42.3 134.709 42.64 134.415 42.92C134.135 43.1867 133.775 43.32 133.335 43.32ZM141.549 59.64C140.602 59.64 139.769 59.52 139.049 59.28C138.342 59.0533 137.789 58.7 137.389 58.22C137.002 57.7533 136.809 57.1667 136.809 56.46C136.809 56.0467 136.909 55.64 137.109 55.24C137.322 54.8533 137.635 54.4933 138.049 54.16C138.475 53.8133 139.015 53.5133 139.669 53.26L140.729 54.42C140.089 54.6467 139.642 54.92 139.389 55.24C139.135 55.56 139.009 55.8867 139.009 56.22C139.009 56.5667 139.115 56.8533 139.329 57.08C139.555 57.32 139.855 57.5 140.229 57.62C140.615 57.74 141.049 57.8 141.529 57.8C141.995 57.8 142.402 57.7333 142.749 57.6C143.095 57.48 143.362 57.3067 143.549 57.08C143.749 56.8533 143.849 56.58 143.849 56.26C143.849 55.86 143.709 55.5333 143.429 55.28C143.149 55.04 142.595 54.8933 141.769 54.84C141.062 54.7867 140.442 54.7133 139.909 54.62C139.375 54.5133 138.915 54.3933 138.529 54.26C138.155 54.1267 137.835 53.98 137.569 53.82C137.302 53.6467 137.082 53.4733 136.909 53.3V52.84L139.009 50.64L140.789 51.22L138.429 53.52L139.049 52.36C139.182 52.4533 139.315 52.54 139.449 52.62C139.595 52.7 139.775 52.7733 139.989 52.84C140.215 52.8933 140.509 52.9467 140.869 53C141.229 53.0533 141.695 53.1067 142.269 53.16C143.162 53.2267 143.889 53.3867 144.449 53.64C145.009 53.8933 145.422 54.2333 145.689 54.66C145.955 55.0867 146.089 55.6 146.089 56.2C146.089 56.7867 145.922 57.34 145.589 57.86C145.269 58.38 144.775 58.8067 144.109 59.14C143.442 59.4733 142.589 59.64 141.549 59.64ZM141.549 51.98C140.709 51.98 139.982 51.82 139.369 51.5C138.769 51.1667 138.309 50.7267 137.989 50.18C137.669 49.62 137.509 49.0067 137.509 48.34C137.509 47.66 137.669 47.0467 137.989 46.5C138.309 45.9533 138.769 45.5133 139.369 45.18C139.982 44.8467 140.709 44.68 141.549 44.68C142.389 44.68 143.109 44.8467 143.709 45.18C144.309 45.5133 144.769 45.9533 145.089 46.5C145.409 47.0467 145.569 47.66 145.569 48.34C145.569 49.0067 145.409 49.62 145.089 50.18C144.769 50.7267 144.309 51.1667 143.709 51.5C143.109 51.82 142.389 51.98 141.549 51.98ZM141.549 50.12C142.122 50.12 142.582 49.9667 142.929 49.66C143.275 49.3533 143.449 48.9133 143.449 48.34C143.449 47.7667 143.275 47.3333 142.929 47.04C142.582 46.7333 142.122 46.58 141.549 46.58C140.975 46.58 140.509 46.7333 140.149 47.04C139.789 47.3333 139.609 47.7667 139.609 48.34C139.609 48.9133 139.789 49.3533 140.149 49.66C140.509 49.9667 140.975 50.12 141.549 50.12ZM143.209 46.68L142.749 44.92H146.889V46.42L143.209 46.68ZM149.008 55V44.92H151.128L151.308 46.6C151.615 46.0133 152.055 45.5467 152.628 45.2C153.201 44.8533 153.881 44.68 154.668 44.68C155.481 44.68 156.175 44.8533 156.748 45.2C157.321 45.5333 157.761 46.0267 158.068 46.68C158.388 47.3333 158.548 48.1467 158.548 49.12V55H156.148V49.34C156.148 48.5 155.961 47.8533 155.588 47.4C155.215 46.9467 154.661 46.72 153.928 46.72C153.448 46.72 153.015 46.8333 152.628 47.06C152.255 47.2867 151.955 47.62 151.728 48.06C151.515 48.4867 151.408 49.0067 151.408 49.62V55H149.008ZM161.078 55V44.92H163.198L163.398 46.3C163.718 45.7933 164.138 45.4 164.658 45.12C165.192 44.8267 165.798 44.68 166.478 44.68C166.985 44.68 167.438 44.7467 167.838 44.88C168.252 45.0133 168.612 45.2133 168.918 45.48C169.238 45.7467 169.498 46.08 169.698 46.48C170.072 45.92 170.558 45.48 171.158 45.16C171.758 44.84 172.412 44.68 173.118 44.68C173.958 44.68 174.672 44.8533 175.258 45.2C175.845 45.5333 176.292 46.0333 176.598 46.7C176.905 47.3533 177.058 48.16 177.058 49.12V55H174.678V49.36C174.678 48.5067 174.505 47.8533 174.158 47.4C173.812 46.9467 173.298 46.72 172.618 46.72C172.152 46.72 171.738 46.8333 171.378 47.06C171.032 47.2867 170.758 47.62 170.558 48.06C170.358 48.4867 170.258 49.0133 170.258 49.64V55H167.878V49.36C167.878 48.5067 167.705 47.8533 167.358 47.4C167.012 46.9467 166.492 46.72 165.798 46.72C165.358 46.72 164.958 46.8333 164.598 47.06C164.252 47.2867 163.978 47.62 163.778 48.06C163.578 48.4867 163.478 49.0133 163.478 49.64V55H161.078ZM184.314 55.24C183.314 55.24 182.434 55.0267 181.674 54.6C180.914 54.16 180.321 53.5467 179.894 52.76C179.467 51.9733 179.254 51.0667 179.254 50.04C179.254 48.9733 179.461 48.04 179.874 47.24C180.301 46.44 180.894 45.8133 181.654 45.36C182.427 44.9067 183.321 44.68 184.334 44.68C185.321 44.68 186.181 44.9 186.914 45.34C187.647 45.78 188.214 46.3733 188.614 47.12C189.014 47.8533 189.214 48.68 189.214 49.6C189.214 49.7333 189.214 49.88 189.214 50.04C189.214 50.2 189.201 50.3667 189.174 50.54H180.974V49H186.794C186.767 48.2667 186.521 47.6933 186.054 47.28C185.587 46.8533 185.007 46.64 184.314 46.64C183.821 46.64 183.367 46.7533 182.954 46.98C182.541 47.2067 182.214 47.5467 181.974 48C181.734 48.44 181.614 49 181.614 49.68V50.26C181.614 50.8867 181.727 51.4267 181.954 51.88C182.194 52.3333 182.514 52.68 182.914 52.92C183.327 53.1467 183.787 53.26 184.294 53.26C184.854 53.26 185.314 53.14 185.674 52.9C186.047 52.66 186.321 52.34 186.494 51.94H188.934C188.747 52.5667 188.441 53.1333 188.014 53.64C187.587 54.1333 187.061 54.5267 186.434 54.82C185.807 55.1 185.101 55.24 184.314 55.24ZM191.43 55V44.92H193.55L193.73 46.6C194.037 46.0133 194.477 45.5467 195.05 45.2C195.623 44.8533 196.303 44.68 197.09 44.68C197.903 44.68 198.597 44.8533 199.17 45.2C199.743 45.5333 200.183 46.0267 200.49 46.68C200.81 47.3333 200.97 48.1467 200.97 49.12V55H198.57V49.34C198.57 48.5 198.383 47.8533 198.01 47.4C197.637 46.9467 197.083 46.72 196.35 46.72C195.87 46.72 195.437 46.8333 195.05 47.06C194.677 47.2867 194.377 47.62 194.15 48.06C193.937 48.4867 193.83 49.0067 193.83 49.62V55H191.43ZM207.88 55C207.2 55 206.607 54.8933 206.1 54.68C205.607 54.4667 205.22 54.1133 204.94 53.62C204.66 53.1267 204.52 52.46 204.52 51.62V46.94H202.8V44.92H204.52L204.8 42.26H206.92V44.92H209.66V46.94H206.92V51.62C206.92 52.1267 207.027 52.48 207.24 52.68C207.467 52.8667 207.84 52.96 208.36 52.96H209.6V55H207.88Z" fill="#1A1A1A"/>
<path d="M256 225C256 279.124 212.124 323 158 323C103.876 323 60 279.124 60 225C60 170.876 103.876 127 158 127C212.124 127 256 170.876 256 225ZM89.708 225C89.708 262.717 120.283 293.292 158 293.292C195.717 293.292 226.292 262.717 226.292 225C226.292 187.283 195.717 156.708 158 156.708C120.283 156.708 89.708 187.283 89.708 225Z" fill="#E0E993"/>
<path d="M158 127C175.874 127 193.409 131.889 208.705 141.137C224.001 150.385 236.476 163.64 244.781 179.468C253.085 195.297 256.903 213.095 255.82 230.936C254.737 248.778 248.796 265.984 238.638 280.691C228.48 295.399 214.494 307.049 198.191 314.379C181.889 321.71 163.893 324.442 146.15 322.281C128.406 320.119 111.592 313.146 97.5265 302.117C83.461 291.087 72.6801 276.42 66.3504 259.704L94.124 249.187C98.5355 260.838 106.049 271.06 115.852 278.747C125.656 286.434 137.374 291.294 149.741 292.801C162.107 294.307 174.65 292.403 186.012 287.294C197.374 282.185 207.122 274.065 214.201 263.815C221.281 253.564 225.422 241.572 226.177 229.137C226.931 216.702 224.27 204.298 218.482 193.266C212.695 182.235 204 172.996 193.339 166.551C182.678 160.105 170.458 156.698 158 156.698L158 127Z" fill="#4BAD7A"/>
<path d="M142.87 208.269V207.014H150.35V208.269H147.334V216.678H145.881V208.269H142.87ZM153.891 216.824C153.212 216.824 152.619 216.669 152.112 216.357C151.606 216.046 151.212 215.61 150.932 215.05C150.652 214.49 150.512 213.836 150.512 213.087C150.512 212.335 150.652 211.678 150.932 211.115C151.212 210.551 151.606 210.114 152.112 209.803C152.619 209.491 153.212 209.336 153.891 209.336C154.571 209.336 155.164 209.491 155.67 209.803C156.177 210.114 156.57 210.551 156.85 211.115C157.13 211.678 157.27 212.335 157.27 213.087C157.27 213.836 157.13 214.49 156.85 215.05C156.57 215.61 156.177 216.046 155.67 216.357C155.164 216.669 154.571 216.824 153.891 216.824ZM153.896 215.64C154.336 215.64 154.701 215.523 154.991 215.291C155.28 215.058 155.494 214.748 155.632 214.361C155.774 213.974 155.845 213.548 155.845 213.082C155.845 212.62 155.774 212.195 155.632 211.808C155.494 211.418 155.28 211.105 154.991 210.869C154.701 210.633 154.336 210.515 153.896 210.515C153.452 210.515 153.084 210.633 152.792 210.869C152.502 211.105 152.287 211.418 152.145 211.808C152.007 212.195 151.938 212.62 151.938 213.082C151.938 213.548 152.007 213.974 152.145 214.361C152.287 214.748 152.502 215.058 152.792 215.291C153.084 215.523 153.452 215.64 153.896 215.64ZM162.228 209.43V210.562H158.269V209.43H162.228ZM159.331 207.693H160.742V214.55C160.742 214.823 160.783 215.03 160.864 215.168C160.946 215.303 161.051 215.396 161.18 215.446C161.313 215.494 161.456 215.517 161.61 215.517C161.723 215.517 161.822 215.509 161.907 215.494C161.992 215.478 162.058 215.465 162.105 215.456L162.36 216.621C162.278 216.653 162.162 216.684 162.011 216.716C161.86 216.75 161.671 216.769 161.445 216.772C161.074 216.779 160.727 216.713 160.407 216.574C160.086 216.436 159.826 216.222 159.628 215.932C159.43 215.643 159.331 215.28 159.331 214.842V207.693ZM165.898 216.838C165.439 216.838 165.024 216.753 164.652 216.584C164.281 216.411 163.987 216.16 163.77 215.833C163.556 215.506 163.449 215.105 163.449 214.63C163.449 214.221 163.528 213.884 163.685 213.62C163.842 213.356 164.055 213.147 164.322 212.993C164.589 212.838 164.888 212.722 165.219 212.643C165.549 212.565 165.886 212.505 166.228 212.464C166.663 212.414 167.015 212.373 167.285 212.341C167.556 212.307 167.753 212.252 167.875 212.176C167.998 212.101 168.059 211.978 168.059 211.808V211.775C168.059 211.363 167.943 211.044 167.71 210.817C167.48 210.591 167.138 210.477 166.681 210.477C166.206 210.477 165.832 210.583 165.558 210.794C165.288 211.001 165.101 211.232 164.997 211.487L163.671 211.185C163.828 210.745 164.058 210.389 164.36 210.119C164.665 209.845 165.016 209.647 165.412 209.524C165.808 209.398 166.225 209.336 166.663 209.336C166.952 209.336 167.259 209.37 167.583 209.439C167.91 209.505 168.215 209.628 168.498 209.807C168.784 209.987 169.019 210.243 169.201 210.577C169.384 210.907 169.475 211.336 169.475 211.865V216.678H168.097V215.687H168.04C167.949 215.869 167.812 216.049 167.63 216.225C167.447 216.401 167.213 216.547 166.927 216.664C166.641 216.78 166.298 216.838 165.898 216.838ZM166.205 215.706C166.595 215.706 166.928 215.629 167.205 215.475C167.485 215.321 167.698 215.119 167.842 214.871C167.99 214.619 168.064 214.35 168.064 214.064V213.129C168.014 213.18 167.916 213.227 167.771 213.271C167.63 213.312 167.468 213.348 167.285 213.38C167.103 213.408 166.925 213.435 166.752 213.46C166.579 213.482 166.434 213.501 166.318 213.516C166.044 213.551 165.794 213.609 165.568 213.691C165.344 213.773 165.165 213.891 165.03 214.045C164.898 214.196 164.832 214.397 164.832 214.649C164.832 214.998 164.961 215.262 165.219 215.442C165.477 215.618 165.805 215.706 166.205 215.706ZM172.765 207.014V216.678H171.354V207.014H172.765Z" fill="#1A1A1A" fill-opacity="0.7"/>
<path d="M135.423 243.322V242.057L138.778 238.768C139.099 238.444 139.366 238.157 139.58 237.905C139.794 237.653 139.955 237.409 140.061 237.173C140.168 236.938 140.222 236.686 140.222 236.418C140.222 236.113 140.153 235.852 140.014 235.635C139.876 235.415 139.686 235.245 139.443 235.125C139.201 235.006 138.926 234.946 138.618 234.946C138.3 234.946 138.021 235.012 137.782 235.144C137.543 235.273 137.358 235.457 137.225 235.696C137.097 235.936 137.032 236.22 137.032 236.551H135.366C135.366 235.937 135.506 235.404 135.786 234.951C136.066 234.498 136.452 234.147 136.942 233.899C137.436 233.65 138.003 233.526 138.641 233.526C139.289 233.526 139.859 233.647 140.349 233.889C140.84 234.131 141.221 234.463 141.491 234.885C141.765 235.306 141.902 235.788 141.902 236.329C141.902 236.691 141.833 237.046 141.694 237.395C141.556 237.744 141.312 238.131 140.963 238.556C140.617 238.981 140.131 239.495 139.505 240.099L137.839 241.793V241.859H142.048V243.322H135.423ZM147.248 243.506C146.471 243.506 145.804 243.309 145.247 242.916C144.694 242.52 144.268 241.949 143.969 241.203C143.673 240.455 143.525 239.553 143.525 238.499C143.528 237.446 143.678 236.549 143.973 235.81C144.272 235.067 144.698 234.501 145.252 234.111C145.809 233.721 146.474 233.526 147.248 233.526C148.022 233.526 148.687 233.721 149.244 234.111C149.801 234.501 150.227 235.067 150.523 235.81C150.822 236.552 150.971 237.449 150.971 238.499C150.971 239.556 150.822 240.459 150.523 241.208C150.227 241.954 149.801 242.523 149.244 242.916C148.691 243.309 148.025 243.506 147.248 243.506ZM147.248 242.029C147.852 242.029 148.329 241.732 148.678 241.137C149.03 240.54 149.207 239.66 149.207 238.499C149.207 237.732 149.126 237.087 148.966 236.565C148.805 236.043 148.579 235.649 148.286 235.385C147.994 235.118 147.648 234.984 147.248 234.984C146.647 234.984 146.172 235.283 145.823 235.881C145.474 236.475 145.298 237.348 145.295 238.499C145.291 239.27 145.369 239.918 145.526 240.444C145.686 240.969 145.913 241.365 146.205 241.633C146.498 241.897 146.846 242.029 147.248 242.029ZM154.187 242.001L154.126 242.52C154.082 242.916 154.003 243.319 153.89 243.728C153.78 244.14 153.663 244.519 153.541 244.865C153.418 245.211 153.319 245.483 153.243 245.681H152.092C152.136 245.49 152.196 245.228 152.271 244.898C152.35 244.568 152.426 244.197 152.498 243.784C152.57 243.372 152.619 242.954 152.644 242.529L152.677 242.001H154.187ZM159.278 243.506C158.501 243.506 157.834 243.309 157.277 242.916C156.723 242.52 156.297 241.949 155.998 241.203C155.702 240.455 155.554 239.553 155.554 238.499C155.558 237.446 155.707 236.549 156.003 235.81C156.302 235.067 156.728 234.501 157.282 234.111C157.838 233.721 158.504 233.526 159.278 233.526C160.051 233.526 160.717 233.721 161.274 234.111C161.83 234.501 162.257 235.067 162.552 235.81C162.851 236.552 163.001 237.449 163.001 238.499C163.001 239.556 162.851 240.459 162.552 241.208C162.257 241.954 161.83 242.523 161.274 242.916C160.72 243.309 160.055 243.506 159.278 243.506ZM159.278 242.029C159.882 242.029 160.358 241.732 160.707 241.137C161.06 240.54 161.236 239.66 161.236 238.499C161.236 237.732 161.156 237.087 160.995 236.565C160.835 236.043 160.608 235.649 160.316 235.385C160.023 235.118 159.677 234.984 159.278 234.984C158.677 234.984 158.202 235.283 157.853 235.881C157.503 236.475 157.327 237.348 157.324 238.499C157.321 239.27 157.398 239.918 157.555 240.444C157.716 240.969 157.942 241.365 158.235 241.633C158.527 241.897 158.875 242.029 159.278 242.029ZM168.141 243.506C167.364 243.506 166.697 243.309 166.14 242.916C165.586 242.52 165.16 241.949 164.861 241.203C164.565 240.455 164.418 239.553 164.418 238.499C164.421 237.446 164.57 236.549 164.866 235.81C165.165 235.067 165.591 234.501 166.145 234.111C166.701 233.721 167.367 233.526 168.141 233.526C168.915 233.526 169.58 233.721 170.137 234.111C170.694 234.501 171.12 235.067 171.416 235.81C171.714 236.552 171.864 237.449 171.864 238.499C171.864 239.556 171.714 240.459 171.416 241.208C171.12 241.954 170.694 242.523 170.137 242.916C169.583 243.309 168.918 243.506 168.141 243.506ZM168.141 242.029C168.745 242.029 169.221 241.732 169.57 241.137C169.923 240.54 170.099 239.66 170.099 238.499C170.099 237.732 170.019 237.087 169.858 236.565C169.698 236.043 169.471 235.649 169.179 235.385C168.886 235.118 168.54 234.984 168.141 234.984C167.54 234.984 167.065 235.283 166.716 235.881C166.366 236.475 166.19 237.348 166.187 238.499C166.184 239.27 166.261 239.918 166.418 240.444C166.579 240.969 166.805 241.365 167.098 241.633C167.39 241.897 167.738 242.029 168.141 242.029ZM177.004 243.506C176.227 243.506 175.56 243.309 175.003 242.916C174.449 242.52 174.023 241.949 173.724 241.203C173.429 240.455 173.281 239.553 173.281 238.499C173.284 237.446 173.433 236.549 173.729 235.81C174.028 235.067 174.454 234.501 175.008 234.111C175.565 233.721 176.23 233.526 177.004 233.526C177.778 233.526 178.443 233.721 179 234.111C179.557 234.501 179.983 235.067 180.279 235.81C180.577 236.552 180.727 237.449 180.727 238.499C180.727 239.556 180.577 240.459 180.279 241.208C179.983 241.954 179.557 242.523 179 242.916C178.446 243.309 177.781 243.506 177.004 243.506ZM177.004 242.029C177.608 242.029 178.084 241.732 178.434 241.137C178.786 240.54 178.962 239.66 178.962 238.499C178.962 237.732 178.882 237.087 178.721 236.565C178.561 236.043 178.334 235.649 178.042 235.385C177.749 235.118 177.403 234.984 177.004 234.984C176.403 234.984 175.928 235.283 175.579 235.881C175.23 236.475 175.053 237.348 175.05 238.499C175.047 239.27 175.124 239.918 175.281 240.444C175.442 240.969 175.668 241.365 175.961 241.633C176.253 241.897 176.601 242.029 177.004 242.029Z" fill="#1A1A1A"/>
<rect x="38" y="84" width="16" height="16" rx="5" fill="#4BAD7A"/>
<path d="M60.6322 97L64.2302 87.2H65.7562L69.3542 97H67.8562L64.9862 88.88L62.1022 97H60.6322ZM62.2562 94.578L62.6482 93.458H67.2542L67.6462 94.578H62.2562ZM70.6805 97V86.92H72.0805V97H70.6805ZM74.1008 97V89.944H75.5008V97H74.1008ZM74.8148 88.614C74.5441 88.614 74.3201 88.53 74.1428 88.362C73.9748 88.194 73.8908 87.9793 73.8908 87.718C73.8908 87.466 73.9748 87.2607 74.1428 87.102C74.3201 86.934 74.5441 86.85 74.8148 86.85C75.0761 86.85 75.2954 86.934 75.4728 87.102C75.6501 87.2607 75.7388 87.466 75.7388 87.718C75.7388 87.9793 75.6501 88.194 75.4728 88.362C75.2954 88.53 75.0761 88.614 74.8148 88.614ZM80.3728 100.248C79.7288 100.248 79.1594 100.164 78.6648 99.996C78.1701 99.8373 77.7874 99.59 77.5168 99.254C77.2461 98.918 77.1108 98.5073 77.1108 98.022C77.1108 97.77 77.1668 97.5133 77.2788 97.252C77.3908 97 77.5728 96.7573 77.8248 96.524C78.0768 96.2907 78.4174 96.0807 78.8468 95.894L79.6308 96.524C79.1548 96.7013 78.8328 96.9113 78.6648 97.154C78.5061 97.406 78.4268 97.6487 78.4268 97.882C78.4268 98.162 78.5108 98.3953 78.6788 98.582C78.8468 98.7687 79.0754 98.9087 79.3648 99.002C79.6634 99.0953 79.9994 99.142 80.3728 99.142C80.7368 99.142 81.0541 99.0907 81.3248 98.988C81.5954 98.8853 81.8054 98.7407 81.9548 98.554C82.1041 98.3673 82.1788 98.148 82.1788 97.896C82.1788 97.5973 82.0668 97.3453 81.8428 97.14C81.6188 96.944 81.1894 96.8273 80.5548 96.79C80.0228 96.7527 79.5701 96.7013 79.1968 96.636C78.8328 96.5707 78.5201 96.4913 78.2588 96.398C78.0068 96.3047 77.7921 96.202 77.6148 96.09C77.4468 95.978 77.3021 95.8613 77.1808 95.74V95.418L78.5808 93.976L79.7148 94.368L78.1888 95.782L78.4828 95.152C78.5854 95.2173 78.6834 95.2827 78.7768 95.348C78.8701 95.404 78.9961 95.4553 79.1548 95.502C79.3134 95.5487 79.5281 95.5907 79.7988 95.628C80.0694 95.6653 80.4241 95.7027 80.8628 95.74C81.4974 95.7867 82.0061 95.8987 82.3888 96.076C82.7808 96.2533 83.0654 96.4913 83.2428 96.79C83.4201 97.0887 83.5088 97.4433 83.5088 97.854C83.5088 98.2553 83.3968 98.638 83.1728 99.002C82.9581 99.366 82.6174 99.6647 82.1508 99.898C81.6934 100.131 81.1008 100.248 80.3728 100.248ZM80.3728 94.83C79.7754 94.83 79.2668 94.718 78.8468 94.494C78.4361 94.27 78.1188 93.9667 77.8948 93.584C77.6801 93.2013 77.5728 92.7767 77.5728 92.31C77.5728 91.834 77.6801 91.4093 77.8948 91.036C78.1188 90.6533 78.4408 90.35 78.8608 90.126C79.2808 89.8927 79.7848 89.776 80.3728 89.776C80.9608 89.776 81.4601 89.8927 81.8708 90.126C82.2908 90.35 82.6081 90.6533 82.8228 91.036C83.0468 91.4093 83.1588 91.834 83.1588 92.31C83.1588 92.7767 83.0468 93.2013 82.8228 93.584C82.6081 93.9667 82.2908 94.27 81.8708 94.494C81.4601 94.718 80.9608 94.83 80.3728 94.83ZM80.3728 93.71C80.8301 93.71 81.1941 93.5933 81.4648 93.36C81.7354 93.1173 81.8708 92.7673 81.8708 92.31C81.8708 91.8527 81.7354 91.5073 81.4648 91.274C81.1941 91.0313 80.8301 90.91 80.3728 90.91C79.9154 90.91 79.5468 91.0313 79.2668 91.274C78.9868 91.5073 78.8468 91.8527 78.8468 92.31C78.8468 92.7673 78.9868 93.1173 79.2668 93.36C79.5468 93.5933 79.9154 93.71 80.3728 93.71ZM81.5208 91.05L81.1848 89.944H84.0828V90.91L81.5208 91.05ZM85.4872 97V89.944H86.7472L86.8312 91.148C87.0552 90.728 87.3725 90.3967 87.7832 90.154C88.1938 89.902 88.6652 89.776 89.1972 89.776C89.7572 89.776 90.2378 89.888 90.6392 90.112C91.0405 90.336 91.3532 90.6767 91.5772 91.134C91.8012 91.582 91.9132 92.1467 91.9132 92.828V97H90.5132V92.968C90.5132 92.3147 90.3685 91.82 90.0792 91.484C89.7898 91.148 89.3698 90.98 88.8192 90.98C88.4552 90.98 88.1285 91.0687 87.8392 91.246C87.5498 91.414 87.3165 91.666 87.1392 92.002C86.9712 92.338 86.8872 92.7487 86.8872 93.234V97H85.4872ZM96.896 97.168C96.224 97.168 95.6266 97.014 95.104 96.706C94.5813 96.398 94.1706 95.9687 93.872 95.418C93.5826 94.8673 93.438 94.228 93.438 93.5C93.438 92.7533 93.5826 92.1047 93.872 91.554C94.1706 90.994 94.5813 90.56 95.104 90.252C95.6266 89.9347 96.2333 89.776 96.924 89.776C97.6146 89.776 98.2073 89.93 98.702 90.238C99.1966 90.546 99.5793 90.9567 99.85 91.47C100.121 91.974 100.256 92.534 100.256 93.15C100.256 93.2433 100.251 93.346 100.242 93.458C100.242 93.5607 100.237 93.6773 100.228 93.808H94.46V92.814H98.856C98.828 92.226 98.632 91.7687 98.268 91.442C97.904 91.106 97.4513 90.938 96.91 90.938C96.5273 90.938 96.1773 91.0267 95.86 91.204C95.5426 91.372 95.286 91.624 95.09 91.96C94.9033 92.2867 94.81 92.702 94.81 93.206V93.598C94.81 94.1207 94.9033 94.564 95.09 94.928C95.286 95.2827 95.5426 95.5533 95.86 95.74C96.1773 95.9173 96.5226 96.006 96.896 96.006C97.344 96.006 97.7126 95.908 98.002 95.712C98.2913 95.516 98.506 95.25 98.646 94.914H100.046C99.9246 95.3433 99.7193 95.7307 99.43 96.076C99.1406 96.412 98.7813 96.678 98.352 96.874C97.932 97.07 97.4466 97.168 96.896 97.168ZM104.947 97.168C104.275 97.168 103.683 97.0093 103.169 96.692C102.656 96.3653 102.255 95.9267 101.965 95.376C101.685 94.816 101.545 94.1813 101.545 93.472C101.545 92.7533 101.685 92.1187 101.965 91.568C102.255 91.0173 102.656 90.5833 103.169 90.266C103.692 89.9393 104.289 89.776 104.961 89.776C105.512 89.776 105.997 89.888 106.417 90.112C106.837 90.3267 107.164 90.6347 107.397 91.036V86.92H108.797V97H107.537L107.397 95.908C107.257 96.1227 107.075 96.328 106.851 96.524C106.627 96.7107 106.357 96.8647 106.039 96.986C105.722 97.1073 105.358 97.168 104.947 97.168ZM105.171 95.95C105.61 95.95 105.997 95.8473 106.333 95.642C106.669 95.4367 106.926 95.1473 107.103 94.774C107.29 94.4007 107.383 93.9667 107.383 93.472C107.383 92.9773 107.29 92.548 107.103 92.184C106.926 91.8107 106.669 91.5213 106.333 91.316C105.997 91.1013 105.61 90.994 105.171 90.994C104.751 90.994 104.373 91.1013 104.037 91.316C103.701 91.5213 103.44 91.8107 103.253 92.184C103.067 92.548 102.973 92.9773 102.973 93.472C102.973 93.9667 103.067 94.4007 103.253 94.774C103.44 95.1473 103.701 95.4367 104.037 95.642C104.373 95.8473 104.751 95.95 105.171 95.95Z" fill="#424242"/>
<rect x="166" y="84" width="16" height="16" rx="5" fill="#E0E993"/>
<path d="M189.196 97V87.2H192.206C193.344 87.2 194.287 87.4007 195.034 87.802C195.78 88.2033 196.331 88.7727 196.686 89.51C197.05 90.238 197.232 91.106 197.232 92.114C197.232 93.122 197.05 93.99 196.686 94.718C196.331 95.446 195.78 96.0107 195.034 96.412C194.296 96.804 193.354 97 192.206 97H189.196ZM190.596 95.824H192.15C193.055 95.824 193.774 95.6747 194.306 95.376C194.838 95.0773 195.216 94.6527 195.44 94.102C195.673 93.542 195.79 92.8793 195.79 92.114C195.79 91.3393 195.673 90.672 195.44 90.112C195.216 89.552 194.838 89.1227 194.306 88.824C193.774 88.5253 193.055 88.376 192.15 88.376H190.596V95.824ZM202.039 97.168C201.367 97.168 200.769 97.014 200.247 96.706C199.724 96.398 199.313 95.9687 199.015 95.418C198.725 94.8673 198.581 94.228 198.581 93.5C198.581 92.7533 198.725 92.1047 199.015 91.554C199.313 90.994 199.724 90.56 200.247 90.252C200.769 89.9347 201.376 89.776 202.067 89.776C202.757 89.776 203.35 89.93 203.845 90.238C204.339 90.546 204.722 90.9567 204.993 91.47C205.263 91.974 205.399 92.534 205.399 93.15C205.399 93.2433 205.394 93.346 205.385 93.458C205.385 93.5607 205.38 93.6773 205.371 93.808H199.603V92.814H203.999C203.971 92.226 203.775 91.7687 203.411 91.442C203.047 91.106 202.594 90.938 202.053 90.938C201.67 90.938 201.32 91.0267 201.003 91.204C200.685 91.372 200.429 91.624 200.233 91.96C200.046 92.2867 199.953 92.702 199.953 93.206V93.598C199.953 94.1207 200.046 94.564 200.233 94.928C200.429 95.2827 200.685 95.5533 201.003 95.74C201.32 95.9173 201.665 96.006 202.039 96.006C202.487 96.006 202.855 95.908 203.145 95.712C203.434 95.516 203.649 95.25 203.789 94.914H205.189C205.067 95.3433 204.862 95.7307 204.573 96.076C204.283 96.412 203.924 96.678 203.495 96.874C203.075 97.07 202.589 97.168 202.039 97.168ZM209.292 97.168C208.713 97.168 208.233 97.07 207.85 96.874C207.467 96.678 207.183 96.4167 206.996 96.09C206.809 95.754 206.716 95.3947 206.716 95.012C206.716 94.5453 206.837 94.1487 207.08 93.822C207.323 93.486 207.668 93.2293 208.116 93.052C208.564 92.8747 209.101 92.786 209.726 92.786H211.56C211.56 92.3753 211.499 92.0347 211.378 91.764C211.257 91.4933 211.075 91.2927 210.832 91.162C210.599 91.022 210.3 90.952 209.936 90.952C209.516 90.952 209.157 91.0547 208.858 91.26C208.559 91.456 208.373 91.75 208.298 92.142H206.898C206.954 91.6473 207.122 91.2273 207.402 90.882C207.691 90.5273 208.06 90.2567 208.508 90.07C208.956 89.874 209.432 89.776 209.936 89.776C210.599 89.776 211.154 89.8927 211.602 90.126C212.05 90.3593 212.386 90.6907 212.61 91.12C212.843 91.54 212.96 92.044 212.96 92.632V97H211.742L211.63 95.81C211.527 95.9967 211.406 96.174 211.266 96.342C211.126 96.51 210.958 96.6547 210.762 96.776C210.575 96.8973 210.356 96.9907 210.104 97.056C209.861 97.1307 209.591 97.168 209.292 97.168ZM209.558 96.034C209.857 96.034 210.127 95.9733 210.37 95.852C210.613 95.7307 210.818 95.5673 210.986 95.362C211.163 95.1473 211.294 94.9093 211.378 94.648C211.471 94.3773 211.523 94.102 211.532 93.822V93.78H209.866C209.465 93.78 209.138 93.8313 208.886 93.934C208.643 94.0273 208.466 94.158 208.354 94.326C208.242 94.494 208.186 94.69 208.186 94.914C208.186 95.1473 208.237 95.348 208.34 95.516C208.452 95.6747 208.611 95.8007 208.816 95.894C209.021 95.9873 209.269 96.034 209.558 96.034ZM214.747 97V86.92H216.147V97H214.747ZM218.167 97V89.944H219.567V97H218.167ZM218.881 88.614C218.611 88.614 218.387 88.53 218.209 88.362C218.041 88.194 217.957 87.9793 217.957 87.718C217.957 87.466 218.041 87.2607 218.209 87.102C218.387 86.934 218.611 86.85 218.881 86.85C219.143 86.85 219.362 86.934 219.539 87.102C219.717 87.2607 219.805 87.466 219.805 87.718C219.805 87.9793 219.717 88.194 219.539 88.362C219.362 88.53 219.143 88.614 218.881 88.614ZM224.439 100.248C223.795 100.248 223.226 100.164 222.731 99.996C222.237 99.8373 221.854 99.59 221.583 99.254C221.313 98.918 221.177 98.5073 221.177 98.022C221.177 97.77 221.233 97.5133 221.345 97.252C221.457 97 221.639 96.7573 221.891 96.524C222.143 96.2907 222.484 96.0807 222.913 95.894L223.697 96.524C223.221 96.7013 222.899 96.9113 222.731 97.154C222.573 97.406 222.493 97.6487 222.493 97.882C222.493 98.162 222.577 98.3953 222.745 98.582C222.913 98.7687 223.142 98.9087 223.431 99.002C223.73 99.0953 224.066 99.142 224.439 99.142C224.803 99.142 225.121 99.0907 225.391 98.988C225.662 98.8853 225.872 98.7407 226.021 98.554C226.171 98.3673 226.245 98.148 226.245 97.896C226.245 97.5973 226.133 97.3453 225.909 97.14C225.685 96.944 225.256 96.8273 224.621 96.79C224.089 96.7527 223.637 96.7013 223.263 96.636C222.899 96.5707 222.587 96.4913 222.325 96.398C222.073 96.3047 221.859 96.202 221.681 96.09C221.513 95.978 221.369 95.8613 221.247 95.74V95.418L222.647 93.976L223.781 94.368L222.255 95.782L222.549 95.152C222.652 95.2173 222.75 95.2827 222.843 95.348C222.937 95.404 223.063 95.4553 223.221 95.502C223.38 95.5487 223.595 95.5907 223.865 95.628C224.136 95.6653 224.491 95.7027 224.929 95.74C225.564 95.7867 226.073 95.8987 226.455 96.076C226.847 96.2533 227.132 96.4913 227.309 96.79C227.487 97.0887 227.575 97.4433 227.575 97.854C227.575 98.2553 227.463 98.638 227.239 99.002C227.025 99.366 226.684 99.6647 226.217 99.898C225.76 100.131 225.167 100.248 224.439 100.248ZM224.439 94.83C223.842 94.83 223.333 94.718 222.913 94.494C222.503 94.27 222.185 93.9667 221.961 93.584C221.747 93.2013 221.639 92.7767 221.639 92.31C221.639 91.834 221.747 91.4093 221.961 91.036C222.185 90.6533 222.507 90.35 222.927 90.126C223.347 89.8927 223.851 89.776 224.439 89.776C225.027 89.776 225.527 89.8927 225.937 90.126C226.357 90.35 226.675 90.6533 226.889 91.036C227.113 91.4093 227.225 91.834 227.225 92.31C227.225 92.7767 227.113 93.2013 226.889 93.584C226.675 93.9667 226.357 94.27 225.937 94.494C225.527 94.718 225.027 94.83 224.439 94.83ZM224.439 93.71C224.897 93.71 225.261 93.5933 225.531 93.36C225.802 93.1173 225.937 92.7673 225.937 92.31C225.937 91.8527 225.802 91.5073 225.531 91.274C225.261 91.0313 224.897 90.91 224.439 90.91C223.982 90.91 223.613 91.0313 223.333 91.274C223.053 91.5073 222.913 91.8527 222.913 92.31C222.913 92.7673 223.053 93.1173 223.333 93.36C223.613 93.5933 223.982 93.71 224.439 93.71ZM225.587 91.05L225.251 89.944H228.149V90.91L225.587 91.05ZM229.554 97V89.944H230.814L230.898 91.148C231.122 90.728 231.439 90.3967 231.85 90.154C232.26 89.902 232.732 89.776 233.264 89.776C233.824 89.776 234.304 89.888 234.706 90.112C235.107 90.336 235.42 90.6767 235.644 91.134C235.868 91.582 235.98 92.1467 235.98 92.828V97H234.58V92.968C234.58 92.3147 234.435 91.82 234.146 91.484C233.856 91.148 233.436 90.98 232.886 90.98C232.522 90.98 232.195 91.0687 231.906 91.246C231.616 91.414 231.383 91.666 231.206 92.002C231.038 92.338 230.954 92.7487 230.954 93.234V97H229.554ZM240.962 97.168C240.29 97.168 239.693 97.014 239.17 96.706C238.648 96.398 238.237 95.9687 237.938 95.418C237.649 94.8673 237.504 94.228 237.504 93.5C237.504 92.7533 237.649 92.1047 237.938 91.554C238.237 90.994 238.648 90.56 239.17 90.252C239.693 89.9347 240.3 89.776 240.99 89.776C241.681 89.776 242.274 89.93 242.768 90.238C243.263 90.546 243.646 90.9567 243.916 91.47C244.187 91.974 244.322 92.534 244.322 93.15C244.322 93.2433 244.318 93.346 244.308 93.458C244.308 93.5607 244.304 93.6773 244.294 93.808H238.526V92.814H242.922C242.894 92.226 242.698 91.7687 242.334 91.442C241.97 91.106 241.518 90.938 240.976 90.938C240.594 90.938 240.244 91.0267 239.926 91.204C239.609 91.372 239.352 91.624 239.156 91.96C238.97 92.2867 238.876 92.702 238.876 93.206V93.598C238.876 94.1207 238.97 94.564 239.156 94.928C239.352 95.2827 239.609 95.5533 239.926 95.74C240.244 95.9173 240.589 96.006 240.962 96.006C241.41 96.006 241.779 95.908 242.068 95.712C242.358 95.516 242.572 95.25 242.712 94.914H244.112C243.991 95.3433 243.786 95.7307 243.496 96.076C243.207 96.412 242.848 96.678 242.418 96.874C241.998 97.07 241.513 97.168 240.962 97.168ZM249.014 97.168C248.342 97.168 247.749 97.0093 247.236 96.692C246.722 96.3653 246.321 95.9267 246.032 95.376C245.752 94.816 245.612 94.1813 245.612 93.472C245.612 92.7533 245.752 92.1187 246.032 91.568C246.321 91.0173 246.722 90.5833 247.236 90.266C247.758 89.9393 248.356 89.776 249.028 89.776C249.578 89.776 250.064 89.888 250.484 90.112C250.904 90.3267 251.23 90.6347 251.464 91.036V86.92H252.864V97H251.604L251.464 95.908C251.324 96.1227 251.142 96.328 250.918 96.524C250.694 96.7107 250.423 96.8647 250.106 96.986C249.788 97.1073 249.424 97.168 249.014 97.168ZM249.238 95.95C249.676 95.95 250.064 95.8473 250.4 95.642C250.736 95.4367 250.992 95.1473 251.17 94.774C251.356 94.4007 251.45 93.9667 251.45 93.472C251.45 92.9773 251.356 92.548 251.17 92.184C250.992 91.8107 250.736 91.5213 250.4 91.316C250.064 91.1013 249.676 90.994 249.238 90.994C248.818 90.994 248.44 91.1013 248.104 91.316C247.768 91.5213 247.506 91.8107 247.32 92.184C247.133 92.548 247.04 92.9773 247.04 93.472C247.04 93.9667 247.133 94.4007 247.32 94.774C247.506 95.1473 247.768 95.4367 248.104 95.642C248.44 95.8473 248.818 95.95 249.238 95.95Z" fill="#424242"/>
<g filter="url(#filter0_dd_1_702)">
<mask id="path-11-inside-1_1_702" fill="white">
<path fill-rule="evenodd" clip-rule="evenodd" d="M236.621 143.375C233.724 143.375 231.375 145.724 231.375 148.621V179.754C231.375 182.651 233.724 185 236.621 185H238.875L242.625 188.125L246.375 185H279.504C282.401 185 284.75 182.651 284.75 179.754V148.621C284.75 145.724 282.401 143.375 279.504 143.375H236.621Z"/>
</mask>
<path fill-rule="evenodd" clip-rule="evenodd" d="M236.621 143.375C233.724 143.375 231.375 145.724 231.375 148.621V179.754C231.375 182.651 233.724 185 236.621 185H238.875L242.625 188.125L246.375 185H279.504C282.401 185 284.75 182.651 284.75 179.754V148.621C284.75 145.724 282.401 143.375 279.504 143.375H236.621Z" fill="white"/>
<path d="M238.875 185L239.275 184.52L239.101 184.375H238.875V185ZM242.625 188.125L242.225 188.605L242.625 188.939L243.025 188.605L242.625 188.125ZM246.375 185V184.375H246.149L245.975 184.52L246.375 185ZM232 148.621C232 146.069 234.069 144 236.621 144V142.75C233.378 142.75 230.75 145.378 230.75 148.621H232ZM232 179.754V148.621H230.75V179.754H232ZM236.621 184.375C234.069 184.375 232 182.306 232 179.754H230.75C230.75 182.997 233.378 185.625 236.621 185.625V184.375ZM238.875 184.375H236.621V185.625H238.875V184.375ZM243.025 187.645L239.275 184.52L238.475 185.48L242.225 188.605L243.025 187.645ZM245.975 184.52L242.225 187.645L243.025 188.605L246.775 185.48L245.975 184.52ZM279.504 184.375H246.375V185.625H279.504V184.375ZM284.125 179.754C284.125 182.306 282.056 184.375 279.504 184.375V185.625C282.747 185.625 285.375 182.997 285.375 179.754H284.125ZM284.125 148.621V179.754H285.375V148.621H284.125ZM279.504 144C282.056 144 284.125 146.069 284.125 148.621H285.375C285.375 145.378 282.747 142.75 279.504 142.75V144ZM236.621 144H279.504V142.75H236.621V144Z" fill="#E1E1E2" mask="url(#path-11-inside-1_1_702)"/>
</g>
<path d="M243.237 159H242.218L244.508 152.636H245.617L247.907 159H246.888L245.089 153.792H245.039L243.237 159ZM243.408 156.508H246.714V157.316H243.408V156.508ZM249.68 152.636V159H248.751V152.636H249.68ZM250.93 159V154.227H251.859V159H250.93ZM251.399 153.491C251.238 153.491 251.099 153.437 250.983 153.329C250.869 153.219 250.812 153.089 250.812 152.938C250.812 152.784 250.869 152.654 250.983 152.546C251.099 152.436 251.238 152.382 251.399 152.382C251.561 152.382 251.699 152.436 251.813 152.546C251.929 152.654 251.987 152.784 251.987 152.938C251.987 153.089 251.929 153.219 251.813 153.329C251.699 153.437 251.561 153.491 251.399 153.491ZM255.11 160.889C254.731 160.889 254.405 160.839 254.131 160.74C253.86 160.641 253.638 160.509 253.467 160.345C253.295 160.182 253.166 160.003 253.081 159.808L253.88 159.479C253.936 159.57 254.01 159.666 254.103 159.767C254.199 159.871 254.327 159.959 254.489 160.032C254.652 160.104 254.863 160.14 255.12 160.14C255.472 160.14 255.763 160.054 255.993 159.882C256.223 159.713 256.338 159.441 256.338 159.068V158.13H256.279C256.223 158.231 256.142 158.344 256.036 158.469C255.933 158.593 255.79 158.701 255.607 158.792C255.425 158.883 255.188 158.929 254.896 158.929C254.519 158.929 254.179 158.84 253.877 158.664C253.576 158.486 253.338 158.224 253.162 157.878C252.988 157.53 252.901 157.103 252.901 156.595C252.901 156.087 252.987 155.652 253.159 155.29C253.333 154.927 253.571 154.65 253.874 154.457C254.176 154.262 254.519 154.165 254.902 154.165C255.198 154.165 255.438 154.215 255.62 154.314C255.802 154.412 255.944 154.526 256.046 154.656C256.149 154.787 256.229 154.902 256.285 155.001H256.353V154.227H257.264V159.106C257.264 159.516 257.168 159.852 256.978 160.116C256.787 160.379 256.529 160.573 256.204 160.7C255.881 160.826 255.516 160.889 255.11 160.889ZM255.101 158.158C255.368 158.158 255.594 158.096 255.778 157.972C255.965 157.845 256.106 157.665 256.201 157.431C256.298 157.195 256.347 156.912 256.347 156.583C256.347 156.261 256.299 155.979 256.204 155.734C256.109 155.49 255.969 155.299 255.785 155.163C255.6 155.024 255.372 154.954 255.101 154.954C254.821 154.954 254.588 155.027 254.402 155.172C254.215 155.315 254.074 155.51 253.979 155.756C253.886 156.003 253.839 156.278 253.839 156.583C253.839 156.895 253.887 157.17 253.982 157.406C254.078 157.642 254.218 157.826 254.405 157.959C254.593 158.092 254.825 158.158 255.101 158.158ZM259.439 156.166V159H258.51V154.227H259.401V155.004H259.46C259.57 154.751 259.742 154.548 259.976 154.395C260.212 154.242 260.51 154.165 260.868 154.165C261.193 154.165 261.478 154.233 261.722 154.37C261.967 154.505 262.156 154.706 262.291 154.973C262.426 155.24 262.493 155.571 262.493 155.964V159H261.564V156.076C261.564 155.73 261.474 155.46 261.294 155.265C261.113 155.068 260.866 154.97 260.551 154.97C260.336 154.97 260.144 155.017 259.976 155.11C259.81 155.203 259.679 155.34 259.582 155.52C259.486 155.698 259.439 155.913 259.439 156.166ZM265.796 159.096C265.326 159.096 264.921 158.996 264.581 158.795C264.243 158.592 263.982 158.307 263.798 157.94C263.616 157.572 263.525 157.14 263.525 156.645C263.525 156.156 263.616 155.725 263.798 155.352C263.982 154.979 264.239 154.688 264.569 154.479C264.9 154.27 265.288 154.165 265.731 154.165C266 154.165 266.261 154.21 266.514 154.299C266.767 154.388 266.993 154.528 267.194 154.718C267.395 154.909 267.554 155.156 267.67 155.461C267.786 155.763 267.844 156.131 267.844 156.564V156.893H264.05V156.197H266.933C266.933 155.953 266.884 155.736 266.784 155.548C266.685 155.357 266.545 155.207 266.365 155.097C266.187 154.988 265.977 154.933 265.737 154.933C265.476 154.933 265.248 154.997 265.053 155.125C264.861 155.252 264.712 155.417 264.606 155.622C264.502 155.825 264.451 156.046 264.451 156.284V156.828C264.451 157.147 264.507 157.418 264.618 157.642C264.732 157.866 264.891 158.037 265.094 158.155C265.297 158.271 265.534 158.329 265.805 158.329C265.981 158.329 266.142 158.304 266.287 158.254C266.432 158.202 266.557 158.126 266.663 158.024C266.769 157.923 266.849 157.797 266.905 157.648L267.785 157.807C267.714 158.066 267.588 158.293 267.406 158.487C267.225 158.68 266.999 158.83 266.725 158.938C266.454 159.044 266.144 159.096 265.796 159.096ZM270.661 159.093C270.276 159.093 269.932 158.995 269.63 158.798C269.329 158.599 269.093 158.316 268.921 157.95C268.751 157.581 268.666 157.139 268.666 156.623C268.666 156.107 268.752 155.666 268.924 155.299C269.098 154.933 269.336 154.652 269.639 154.457C269.941 154.262 270.284 154.165 270.667 154.165C270.964 154.165 271.202 154.215 271.382 154.314C271.564 154.412 271.705 154.526 271.805 154.656C271.906 154.787 271.985 154.902 272.041 155.001H272.097V152.636H273.026V159H272.119V158.257H272.041C271.985 158.359 271.904 158.475 271.798 158.605C271.695 158.736 271.552 158.85 271.37 158.947C271.187 159.045 270.951 159.093 270.661 159.093ZM270.866 158.301C271.134 158.301 271.359 158.23 271.544 158.09C271.73 157.947 271.871 157.749 271.966 157.496C272.064 157.243 272.112 156.949 272.112 156.614C272.112 156.282 272.065 155.992 271.969 155.744C271.874 155.495 271.734 155.301 271.55 155.163C271.366 155.024 271.138 154.954 270.866 154.954C270.587 154.954 270.354 155.027 270.167 155.172C269.981 155.317 269.84 155.515 269.745 155.765C269.651 156.016 269.605 156.299 269.605 156.614C269.605 156.933 269.652 157.22 269.748 157.474C269.843 157.729 269.984 157.931 270.17 158.08C270.359 158.227 270.591 158.301 270.866 158.301Z" fill="#52525B"/>
<path d="M245.329 169.136V175.5H244.366V170.1H244.329L242.806 171.094V170.174L244.394 169.136H245.329ZM249.272 175.587C248.988 175.583 248.709 175.531 248.433 175.432C248.16 175.332 247.911 175.166 247.687 174.934C247.464 174.702 247.285 174.391 247.15 173.999C247.017 173.608 246.951 173.119 246.951 172.533C246.951 171.977 247.006 171.484 247.116 171.054C247.228 170.623 247.388 170.259 247.597 169.963C247.807 169.665 248.059 169.438 248.356 169.282C248.652 169.127 248.984 169.049 249.353 169.049C249.732 169.049 250.069 169.124 250.363 169.273C250.657 169.422 250.895 169.628 251.077 169.891C251.262 170.155 251.379 170.454 251.429 170.789H250.481C250.417 170.524 250.289 170.308 250.099 170.14C249.908 169.972 249.66 169.888 249.353 169.888C248.887 169.888 248.523 170.091 248.262 170.497C248.003 170.903 247.873 171.468 247.871 172.191H247.917C248.027 172.011 248.162 171.857 248.321 171.731C248.483 171.602 248.663 171.504 248.862 171.436C249.063 171.365 249.274 171.33 249.496 171.33C249.865 171.33 250.198 171.42 250.496 171.6C250.797 171.779 251.036 172.025 251.214 172.34C251.392 172.655 251.481 173.015 251.481 173.421C251.481 173.827 251.389 174.195 251.205 174.524C251.023 174.854 250.766 175.115 250.434 175.307C250.103 175.498 249.715 175.591 249.272 175.587ZM249.269 174.779C249.513 174.779 249.732 174.719 249.925 174.599C250.117 174.479 250.27 174.317 250.381 174.114C250.493 173.911 250.549 173.684 250.549 173.434C250.549 173.189 250.494 172.967 250.385 172.766C250.277 172.565 250.128 172.405 249.937 172.287C249.749 172.169 249.533 172.11 249.291 172.11C249.106 172.11 248.936 172.145 248.778 172.216C248.623 172.286 248.486 172.383 248.368 172.508C248.25 172.632 248.157 172.775 248.088 172.937C248.022 173.096 247.989 173.265 247.989 173.443C247.989 173.681 248.044 173.902 248.154 174.105C248.265 174.308 248.418 174.472 248.61 174.596C248.805 174.718 249.025 174.779 249.269 174.779ZM253.544 174.63L253.497 174.969C253.466 175.217 253.413 175.476 253.339 175.745C253.266 176.017 253.191 176.269 253.112 176.501C253.035 176.733 252.972 176.917 252.922 177.054H252.264C252.291 176.925 252.328 176.751 252.376 176.532C252.423 176.314 252.47 176.071 252.515 175.801C252.561 175.532 252.595 175.258 252.618 174.978L252.649 174.63H253.544ZM256.78 175.587C256.335 175.587 255.941 175.51 255.599 175.357C255.26 175.204 254.993 174.992 254.801 174.723C254.608 174.454 254.513 174.147 254.515 173.803C254.513 173.534 254.568 173.287 254.68 173.061C254.793 172.833 254.948 172.643 255.143 172.492C255.337 172.339 255.555 172.242 255.795 172.2V172.163C255.478 172.086 255.224 171.916 255.034 171.653C254.843 171.39 254.749 171.088 254.751 170.746C254.749 170.421 254.835 170.131 255.009 169.876C255.185 169.619 255.426 169.417 255.733 169.27C256.039 169.123 256.389 169.049 256.78 169.049C257.167 169.049 257.513 169.124 257.818 169.273C258.124 169.42 258.366 169.622 258.542 169.879C258.718 170.134 258.807 170.423 258.809 170.746C258.807 171.088 258.71 171.39 258.517 171.653C258.324 171.916 258.074 172.086 257.765 172.163V172.2C258.003 172.242 258.218 172.339 258.408 172.492C258.601 172.643 258.754 172.833 258.868 173.061C258.984 173.287 259.043 173.534 259.045 173.803C259.043 174.147 258.946 174.454 258.753 174.723C258.56 174.992 258.293 175.204 257.951 175.357C257.612 175.51 257.221 175.587 256.78 175.587ZM256.78 174.801C257.043 174.801 257.271 174.757 257.464 174.67C257.656 174.581 257.805 174.458 257.911 174.301C258.017 174.141 258.071 173.955 258.073 173.741C258.071 173.52 258.013 173.324 257.899 173.154C257.787 172.984 257.635 172.851 257.442 172.753C257.249 172.656 257.029 172.607 256.78 172.607C256.529 172.607 256.307 172.656 256.112 172.753C255.917 172.851 255.764 172.984 255.652 173.154C255.54 173.324 255.485 173.52 255.487 173.741C255.485 173.955 255.536 174.141 255.64 174.301C255.745 174.458 255.896 174.581 256.09 174.67C256.285 174.757 256.515 174.801 256.78 174.801ZM256.78 171.84C256.991 171.84 257.179 171.797 257.342 171.712C257.506 171.627 257.635 171.509 257.728 171.358C257.823 171.207 257.872 171.03 257.874 170.827C257.872 170.628 257.824 170.454 257.731 170.305C257.64 170.156 257.512 170.041 257.349 169.96C257.185 169.877 256.995 169.835 256.78 169.835C256.56 169.835 256.368 169.877 256.202 169.96C256.038 170.041 255.911 170.156 255.82 170.305C255.729 170.454 255.684 170.628 255.686 170.827C255.684 171.03 255.73 171.207 255.823 171.358C255.916 171.509 256.045 171.627 256.208 171.712C256.374 171.797 256.565 171.84 256.78 171.84ZM260.025 174.257V173.48L262.775 169.136H263.387V170.28H262.998L261.032 173.393V173.443H264.801V174.257H260.025ZM263.042 175.5V174.021L263.048 173.667V169.136H263.959V175.5H263.042ZM267.984 175.587C267.595 175.587 267.244 175.512 266.934 175.363C266.625 175.212 266.379 175.005 266.194 174.742C266.01 174.479 265.911 174.178 265.899 173.841H266.831C266.854 174.114 266.975 174.339 267.195 174.515C267.414 174.691 267.677 174.779 267.984 174.779C268.228 174.779 268.445 174.723 268.633 174.611C268.824 174.497 268.973 174.341 269.081 174.142C269.191 173.943 269.246 173.716 269.246 173.462C269.246 173.203 269.19 172.972 269.078 172.769C268.966 172.566 268.812 172.406 268.615 172.29C268.42 172.174 268.196 172.115 267.944 172.113C267.751 172.113 267.557 172.146 267.363 172.213C267.168 172.279 267.01 172.366 266.89 172.474L266.011 172.343L266.368 169.136H269.867V169.96H267.167L266.965 171.74H267.002C267.126 171.62 267.291 171.52 267.496 171.439C267.703 171.358 267.925 171.318 268.161 171.318C268.548 171.318 268.893 171.41 269.196 171.594C269.5 171.779 269.74 172.03 269.914 172.349C270.09 172.666 270.177 173.031 270.175 173.443C270.177 173.855 270.083 174.223 269.895 174.546C269.709 174.869 269.45 175.124 269.118 175.31C268.789 175.495 268.411 175.587 267.984 175.587Z" fill="#1A1A1A"/>
<defs>
<filter id="filter0_dd_1_702" x="228.375" y="141.375" width="59.375" height="50.75" filterUnits="userSpaceOnUse" color-interpolation-filters="sRGB">
<feFlood flood-opacity="0" result="BackgroundImageFix"/>
<feColorMatrix in="SourceAlpha" type="matrix" values="0 0 0 0 0 0 0 0 0 0 0 0 0 0 0 0 0 0 127 0" result="hardAlpha"/>
<feOffset dy="1"/>
<feGaussianBlur stdDeviation="1.5"/>
<feColorMatrix type="matrix" values="0 0 0 0 0.101961 0 0 0 0 0.101961 0 0 0 0 0.101961 0 0 0 0.08 0"/>
<feBlend mode="normal" in2="BackgroundImageFix" result="effect1_dropShadow_1_702"/>
<feColorMatrix in="SourceAlpha" type="matrix" values="0 0 0 0 0 0 0 0 0 0 0 0 0 0 0 0 0 0 127 0" result="hardAlpha"/>
<feOffset dy="0.5"/>
<feColorMatrix type="matrix" values="0 0 0 0 0.101961 0 0 0 0 0.101961 0 0 0 0 0.101961 0 0 0 0.08 0"/>
<feBlend mode="normal" in2="effect1_dropShadow_1_702" result="effect2_dropShadow_1_702"/>
<feBlend mode="normal" in="SourceGraphic" in2="effect2_dropShadow_1_702" result="shape"/>
</filter>
</defs>
</svg>
