<svg width="316" height="365" viewBox="0 0 316 365" fill="none" xmlns="http://www.w3.org/2000/svg">
<rect x="0.5" y="0.5" width="315" height="364" rx="29.5" fill="white"/>
<rect x="0.5" y="0.5" width="315" height="364" rx="29.5" stroke="#E0E0E0"/>
<path d="M42.68 55V42.94H38.56V41H49.18V42.94H45.06V55H42.68ZM53.9814 55.24C53.0214 55.24 52.1547 55.02 51.3814 54.58C50.6214 54.1267 50.0214 53.5067 49.5814 52.72C49.1547 51.92 48.9414 51.0067 48.9414 49.98C48.9414 48.9267 49.1614 48.0067 49.6014 47.22C50.0414 46.42 50.6414 45.8 51.4014 45.36C52.1747 44.9067 53.0414 44.68 54.0014 44.68C54.9614 44.68 55.8214 44.9067 56.5814 45.36C57.3547 45.8 57.9547 46.4133 58.3814 47.2C58.8214 47.9867 59.0414 48.9067 59.0414 49.96C59.0414 51.0133 58.8214 51.9333 58.3814 52.72C57.9414 53.5067 57.3347 54.1267 56.5614 54.58C55.8014 55.02 54.9414 55.24 53.9814 55.24ZM53.9814 53.18C54.4614 53.18 54.8947 53.06 55.2814 52.82C55.6814 52.58 56.0014 52.22 56.2414 51.74C56.4814 51.26 56.6014 50.6667 56.6014 49.96C56.6014 49.2533 56.4814 48.6667 56.2414 48.2C56.0147 47.72 55.7014 47.36 55.3014 47.12C54.9147 46.88 54.4814 46.76 54.0014 46.76C53.5347 46.76 53.1014 46.88 52.7014 47.12C52.3014 47.36 51.9814 47.72 51.7414 48.2C51.5014 48.6667 51.3814 49.2533 51.3814 49.96C51.3814 50.6667 51.5014 51.26 51.7414 51.74C51.9814 52.22 52.2947 52.58 52.6814 52.82C53.0814 53.06 53.5147 53.18 53.9814 53.18ZM65.3802 55C64.7002 55 64.1068 54.8933 63.6002 54.68C63.1068 54.4667 62.7202 54.1133 62.4402 53.62C62.1602 53.1267 62.0202 52.46 62.0202 51.62V46.94H60.3002V44.92H62.0202L62.3002 42.26H64.4202V44.92H67.1602V46.94H64.4202V51.62C64.4202 52.1267 64.5268 52.48 64.7402 52.68C64.9668 52.8667 65.3402 52.96 65.8602 52.96H67.1002V55H65.3802ZM72.7781 55.24C71.9515 55.24 71.2648 55.1 70.7181 54.82C70.1715 54.54 69.7648 54.1667 69.4981 53.7C69.2315 53.2333 69.0981 52.7267 69.0981 52.18C69.0981 51.54 69.2581 50.9867 69.5781 50.52C69.9115 50.0533 70.3981 49.6933 71.0381 49.44C71.6781 49.1733 72.4648 49.04 73.3981 49.04H75.9381C75.9381 48.5067 75.8648 48.0667 75.7181 47.72C75.5715 47.36 75.3448 47.0933 75.0381 46.92C74.7315 46.7467 74.3381 46.66 73.8581 46.66C73.3115 46.66 72.8448 46.7867 72.4581 47.04C72.0715 47.28 71.8315 47.6533 71.7381 48.16H69.3781C69.4581 47.44 69.6981 46.8267 70.0981 46.32C70.4981 45.8 71.0248 45.4 71.6781 45.12C72.3448 44.8267 73.0715 44.68 73.8581 44.68C74.8048 44.68 75.6115 44.8467 76.2781 45.18C76.9448 45.5 77.4515 45.9667 77.7981 46.58C78.1581 47.18 78.3381 47.9067 78.3381 48.76V55H76.2981L76.0581 53.38C75.9248 53.6467 75.7515 53.8933 75.5381 54.12C75.3381 54.3467 75.1048 54.5467 74.8381 54.72C74.5715 54.88 74.2648 55.0067 73.9181 55.1C73.5848 55.1933 73.2048 55.24 72.7781 55.24ZM73.3181 53.34C73.7048 53.34 74.0448 53.2733 74.3381 53.14C74.6448 52.9933 74.9048 52.7933 75.1181 52.54C75.3448 52.2733 75.5181 51.98 75.6381 51.66C75.7581 51.34 75.8381 51 75.8781 50.64V50.6H73.6581C73.1915 50.6 72.8048 50.66 72.4981 50.78C72.1915 50.8867 71.9715 51.0467 71.8381 51.26C71.7048 51.4733 71.6381 51.72 71.6381 52C71.6381 52.28 71.7048 52.52 71.8381 52.72C71.9715 52.92 72.1648 53.0733 72.4181 53.18C72.6715 53.2867 72.9715 53.34 73.3181 53.34ZM80.9025 55V40.6H83.3025V55H80.9025ZM90.9434 55V41H95.9834C97.1034 41 98.0301 41.1933 98.7634 41.58C99.4968 41.9533 100.043 42.46 100.403 43.1C100.763 43.74 100.943 44.4733 100.943 45.3C100.943 46.0733 100.77 46.7867 100.423 47.44C100.077 48.08 99.5368 48.6 98.8034 49C98.0701 49.3867 97.1301 49.58 95.9834 49.58H93.3434V55H90.9434ZM93.3434 47.62H95.8434C96.7901 47.62 97.4701 47.4133 97.8834 47C98.2968 46.5733 98.5034 46.0067 98.5034 45.3C98.5034 44.5667 98.2968 43.9933 97.8834 43.58C97.4701 43.1667 96.7901 42.96 95.8434 42.96H93.3434V47.62ZM107.126 55.24C106.126 55.24 105.246 55.0267 104.486 54.6C103.726 54.16 103.133 53.5467 102.706 52.76C102.28 51.9733 102.066 51.0667 102.066 50.04C102.066 48.9733 102.273 48.04 102.686 47.24C103.113 46.44 103.706 45.8133 104.466 45.36C105.24 44.9067 106.133 44.68 107.146 44.68C108.133 44.68 108.993 44.9 109.726 45.34C110.46 45.78 111.026 46.3733 111.426 47.12C111.826 47.8533 112.026 48.68 112.026 49.6C112.026 49.7333 112.026 49.88 112.026 50.04C112.026 50.2 112.013 50.3667 111.986 50.54H103.786V49H109.606C109.58 48.2667 109.333 47.6933 108.866 47.28C108.4 46.8533 107.82 46.64 107.126 46.64C106.633 46.64 106.18 46.7533 105.766 46.98C105.353 47.2067 105.026 47.5467 104.786 48C104.546 48.44 104.426 49 104.426 49.68V50.26C104.426 50.8867 104.54 51.4267 104.766 51.88C105.006 52.3333 105.326 52.68 105.726 52.92C106.14 53.1467 106.6 53.26 107.106 53.26C107.666 53.26 108.126 53.14 108.486 52.9C108.86 52.66 109.133 52.34 109.306 51.94H111.746C111.56 52.5667 111.253 53.1333 110.826 53.64C110.4 54.1333 109.873 54.5267 109.246 54.82C108.62 55.1 107.913 55.24 107.126 55.24ZM114.242 55V44.92H116.382L116.602 46.8C116.842 46.36 117.142 45.9867 117.502 45.68C117.862 45.36 118.282 45.1133 118.762 44.94C119.256 44.7667 119.796 44.68 120.382 44.68V47.22H119.542C119.142 47.22 118.762 47.2733 118.402 47.38C118.042 47.4733 117.729 47.6333 117.462 47.86C117.209 48.0733 117.009 48.3733 116.862 48.76C116.716 49.1333 116.642 49.6067 116.642 50.18V55H114.242ZM127.154 55V41H129.994L134.474 50.04L138.914 41H141.774V55H139.374V45.12L135.414 53.04H133.534L129.554 45.14V55H127.154ZM149.255 55.24C148.255 55.24 147.375 55.0267 146.615 54.6C145.855 54.16 145.262 53.5467 144.835 52.76C144.409 51.9733 144.195 51.0667 144.195 50.04C144.195 48.9733 144.402 48.04 144.815 47.24C145.242 46.44 145.835 45.8133 146.595 45.36C147.369 44.9067 148.262 44.68 149.275 44.68C150.262 44.68 151.122 44.9 151.855 45.34C152.589 45.78 153.155 46.3733 153.555 47.12C153.955 47.8533 154.155 48.68 154.155 49.6C154.155 49.7333 154.155 49.88 154.155 50.04C154.155 50.2 154.142 50.3667 154.115 50.54H145.915V49H151.735C151.709 48.2667 151.462 47.6933 150.995 47.28C150.529 46.8533 149.949 46.64 149.255 46.64C148.762 46.64 148.309 46.7533 147.895 46.98C147.482 47.2067 147.155 47.5467 146.915 48C146.675 48.44 146.555 49 146.555 49.68V50.26C146.555 50.8867 146.669 51.4267 146.895 51.88C147.135 52.3333 147.455 52.68 147.855 52.92C148.269 53.1467 148.729 53.26 149.235 53.26C149.795 53.26 150.255 53.14 150.615 52.9C150.989 52.66 151.262 52.34 151.435 51.94H153.875C153.689 52.5667 153.382 53.1333 152.955 53.64C152.529 54.1333 152.002 54.5267 151.375 54.82C150.749 55.1 150.042 55.24 149.255 55.24ZM156.371 55V44.92H158.491L158.691 46.3C159.011 45.7933 159.431 45.4 159.951 45.12C160.485 44.8267 161.091 44.68 161.771 44.68C162.278 44.68 162.731 44.7467 163.131 44.88C163.545 45.0133 163.905 45.2133 164.211 45.48C164.531 45.7467 164.791 46.08 164.991 46.48C165.365 45.92 165.851 45.48 166.451 45.16C167.051 44.84 167.705 44.68 168.411 44.68C169.251 44.68 169.965 44.8533 170.551 45.2C171.138 45.5333 171.585 46.0333 171.891 46.7C172.198 47.3533 172.351 48.16 172.351 49.12V55H169.971V49.36C169.971 48.5067 169.798 47.8533 169.451 47.4C169.105 46.9467 168.591 46.72 167.911 46.72C167.445 46.72 167.031 46.8333 166.671 47.06C166.325 47.2867 166.051 47.62 165.851 48.06C165.651 48.4867 165.551 49.0133 165.551 49.64V55H163.171V49.36C163.171 48.5067 162.998 47.8533 162.651 47.4C162.305 46.9467 161.785 46.72 161.091 46.72C160.651 46.72 160.251 46.8333 159.891 47.06C159.545 47.2867 159.271 47.62 159.071 48.06C158.871 48.4867 158.771 49.0133 158.771 49.64V55H156.371ZM180.647 55.24C180.114 55.24 179.634 55.1667 179.207 55.02C178.78 54.8867 178.407 54.7 178.087 54.46C177.767 54.2067 177.5 53.92 177.287 53.6L177.027 55H174.887V40.6H177.287V46.4C177.607 45.9067 178.04 45.5 178.587 45.18C179.134 44.8467 179.814 44.68 180.627 44.68C181.574 44.68 182.407 44.9133 183.127 45.38C183.86 45.8333 184.434 46.46 184.847 47.26C185.274 48.0467 185.487 48.9533 185.487 49.98C185.487 50.98 185.28 51.88 184.867 52.68C184.454 53.48 183.88 54.1067 183.147 54.56C182.427 55.0133 181.594 55.24 180.647 55.24ZM180.147 53.16C180.707 53.16 181.207 53.0267 181.647 52.76C182.087 52.48 182.427 52.1067 182.667 51.64C182.92 51.16 183.047 50.6 183.047 49.96C183.047 49.3333 182.92 48.78 182.667 48.3C182.427 47.82 182.087 47.4467 181.647 47.18C181.207 46.9133 180.707 46.78 180.147 46.78C179.574 46.78 179.067 46.9133 178.627 47.18C178.2 47.4467 177.86 47.82 177.607 48.3C177.367 48.78 177.247 49.3333 177.247 49.96C177.247 50.6 177.367 51.16 177.607 51.64C177.86 52.1067 178.2 52.48 178.627 52.76C179.067 53.0267 179.574 53.16 180.147 53.16ZM192.537 55.24C191.537 55.24 190.657 55.0267 189.897 54.6C189.137 54.16 188.543 53.5467 188.117 52.76C187.69 51.9733 187.477 51.0667 187.477 50.04C187.477 48.9733 187.683 48.04 188.097 47.24C188.523 46.44 189.117 45.8133 189.877 45.36C190.65 44.9067 191.543 44.68 192.557 44.68C193.543 44.68 194.403 44.9 195.137 45.34C195.87 45.78 196.437 46.3733 196.837 47.12C197.237 47.8533 197.437 48.68 197.437 49.6C197.437 49.7333 197.437 49.88 197.437 50.04C197.437 50.2 197.423 50.3667 197.397 50.54H189.197V49H195.017C194.99 48.2667 194.743 47.6933 194.277 47.28C193.81 46.8533 193.23 46.64 192.537 46.64C192.043 46.64 191.59 46.7533 191.177 46.98C190.763 47.2067 190.437 47.5467 190.197 48C189.957 48.44 189.837 49 189.837 49.68V50.26C189.837 50.8867 189.95 51.4267 190.177 51.88C190.417 52.3333 190.737 52.68 191.137 52.92C191.55 53.1467 192.01 53.26 192.517 53.26C193.077 53.26 193.537 53.14 193.897 52.9C194.27 52.66 194.543 52.34 194.717 51.94H197.157C196.97 52.5667 196.663 53.1333 196.237 53.64C195.81 54.1333 195.283 54.5267 194.657 54.82C194.03 55.1 193.323 55.24 192.537 55.24ZM199.653 55V44.92H201.793L202.013 46.8C202.253 46.36 202.553 45.9867 202.913 45.68C203.273 45.36 203.693 45.1133 204.173 44.94C204.666 44.7667 205.206 44.68 205.793 44.68V47.22H204.953C204.553 47.22 204.173 47.2733 203.813 47.38C203.453 47.4733 203.139 47.6333 202.873 47.86C202.619 48.0733 202.419 48.3733 202.273 48.76C202.126 49.1333 202.053 49.6067 202.053 50.18V55H199.653ZM212.565 55V41H217.605C218.725 41 219.651 41.1933 220.385 41.58C221.118 41.9533 221.665 42.46 222.025 43.1C222.385 43.74 222.565 44.4733 222.565 45.3C222.565 46.0733 222.391 46.7867 222.045 47.44C221.698 48.08 221.158 48.6 220.425 49C219.691 49.3867 218.751 49.58 217.605 49.58H214.965V55H212.565ZM214.965 47.62H217.465C218.411 47.62 219.091 47.4133 219.505 47C219.918 46.5733 220.125 46.0067 220.125 45.3C220.125 44.5667 219.918 43.9933 219.505 43.58C219.091 43.1667 218.411 42.96 217.465 42.96H214.965V47.62ZM228.748 55.24C227.748 55.24 226.868 55.0267 226.108 54.6C225.348 54.16 224.754 53.5467 224.328 52.76C223.901 51.9733 223.688 51.0667 223.688 50.04C223.688 48.9733 223.894 48.04 224.308 47.24C224.734 46.44 225.328 45.8133 226.088 45.36C226.861 44.9067 227.754 44.68 228.768 44.68C229.754 44.68 230.614 44.9 231.348 45.34C232.081 45.78 232.648 46.3733 233.048 47.12C233.448 47.8533 233.648 48.68 233.648 49.6C233.648 49.7333 233.648 49.88 233.648 50.04C233.648 50.2 233.634 50.3667 233.608 50.54H225.408V49H231.228C231.201 48.2667 230.954 47.6933 230.488 47.28C230.021 46.8533 229.441 46.64 228.748 46.64C228.254 46.64 227.801 46.7533 227.388 46.98C226.974 47.2067 226.648 47.5467 226.408 48C226.168 48.44 226.048 49 226.048 49.68V50.26C226.048 50.8867 226.161 51.4267 226.388 51.88C226.628 52.3333 226.948 52.68 227.348 52.92C227.761 53.1467 228.221 53.26 228.728 53.26C229.288 53.26 229.748 53.14 230.108 52.9C230.481 52.66 230.754 52.34 230.928 51.94H233.368C233.181 52.5667 232.874 53.1333 232.448 53.64C232.021 54.1333 231.494 54.5267 230.868 54.82C230.241 55.1 229.534 55.24 228.748 55.24ZM235.863 55V44.92H238.003L238.223 46.8C238.463 46.36 238.763 45.9867 239.123 45.68C239.483 45.36 239.903 45.1133 240.383 44.94C240.877 44.7667 241.417 44.68 242.003 44.68V47.22H241.163C240.763 47.22 240.383 47.2733 240.023 47.38C239.663 47.4733 239.35 47.6333 239.083 47.86C238.83 48.0733 238.63 48.3733 238.483 48.76C238.337 49.1333 238.263 49.6067 238.263 50.18V55H235.863ZM39.42 87V73H42.26L46.74 82.04L51.18 73H54.04V87H51.64V77.12L47.68 85.04H45.8L41.82 77.14V87H39.42ZM61.5009 87.24C60.5409 87.24 59.6743 87.02 58.9009 86.58C58.1409 86.1267 57.5409 85.5067 57.1009 84.72C56.6743 83.92 56.4609 83.0067 56.4609 81.98C56.4609 80.9267 56.6809 80.0067 57.1209 79.22C57.5609 78.42 58.1609 77.8 58.9209 77.36C59.6943 76.9067 60.5609 76.68 61.5209 76.68C62.4809 76.68 63.3409 76.9067 64.1009 77.36C64.8743 77.8 65.4743 78.4133 65.9009 79.2C66.3409 79.9867 66.5609 80.9067 66.5609 81.96C66.5609 83.0133 66.3409 83.9333 65.9009 84.72C65.4609 85.5067 64.8543 86.1267 64.0809 86.58C63.3209 87.02 62.4609 87.24 61.5009 87.24ZM61.5009 85.18C61.9809 85.18 62.4143 85.06 62.8009 84.82C63.2009 84.58 63.5209 84.22 63.7609 83.74C64.0009 83.26 64.1209 82.6667 64.1209 81.96C64.1209 81.2533 64.0009 80.6667 63.7609 80.2C63.5343 79.72 63.2209 79.36 62.8209 79.12C62.4343 78.88 62.0009 78.76 61.5209 78.76C61.0543 78.76 60.6209 78.88 60.2209 79.12C59.8209 79.36 59.5009 79.72 59.2609 80.2C59.0209 80.6667 58.9009 81.2533 58.9009 81.96C58.9009 82.6667 59.0209 83.26 59.2609 83.74C59.5009 84.22 59.8143 84.58 60.2009 84.82C60.6009 85.06 61.0343 85.18 61.5009 85.18ZM68.9103 87V76.92H71.0303L71.2103 78.6C71.517 78.0133 71.957 77.5467 72.5303 77.2C73.1036 76.8533 73.7836 76.68 74.5703 76.68C75.3836 76.68 76.077 76.8533 76.6503 77.2C77.2236 77.5333 77.6636 78.0267 77.9703 78.68C78.2903 79.3333 78.4503 80.1467 78.4503 81.12V87H76.0503V81.34C76.0503 80.5 75.8636 79.8533 75.4903 79.4C75.117 78.9467 74.5636 78.72 73.8303 78.72C73.3503 78.72 72.917 78.8333 72.5303 79.06C72.157 79.2867 71.857 79.62 71.6303 80.06C71.417 80.4867 71.3103 81.0067 71.3103 81.62V87H68.9103ZM85.3606 87C84.6806 87 84.0873 86.8933 83.5806 86.68C83.0873 86.4667 82.7006 86.1133 82.4206 85.62C82.1406 85.1267 82.0006 84.46 82.0006 83.62V78.94H80.2806V76.92H82.0006L82.2806 74.26H84.4006V76.92H87.1406V78.94H84.4006V83.62C84.4006 84.1267 84.5073 84.48 84.7206 84.68C84.9473 84.8667 85.3206 84.96 85.8406 84.96H87.0806V87H85.3606ZM89.3986 87V72.6H91.7986V78.48C92.1319 77.9333 92.5853 77.5 93.1586 77.18C93.7319 76.8467 94.3786 76.68 95.0986 76.68C95.9253 76.68 96.6253 76.8533 97.1986 77.2C97.7719 77.5333 98.2053 78.0333 98.4986 78.7C98.8053 79.3533 98.9586 80.1733 98.9586 81.16V87H96.5786V81.38C96.5786 80.5133 96.3919 79.8533 96.0186 79.4C95.6586 78.9467 95.1053 78.72 94.3586 78.72C93.8786 78.72 93.4453 78.84 93.0586 79.08C92.6719 79.3067 92.3653 79.64 92.1386 80.08C91.9119 80.5067 91.7986 81.0333 91.7986 81.66V87H89.3986Z" fill="#1A1A1A"/>
<path d="M43 111.339H286" stroke="#E1E1E2" stroke-width="0.739865" stroke-dasharray="2.96 2.96"/>
<path d="M43 184.113H286" stroke="#E1E1E2" stroke-width="0.739865" stroke-dasharray="2.96 2.96"/>
<path d="M43 256.887H286" stroke="#E1E1E2" stroke-width="0.739865" stroke-dasharray="2.96 2.96"/>
<path d="M43 329.661H286" stroke="#A1A1AA" stroke-width="0.813851"/>
<path fill-rule="evenodd" clip-rule="evenodd" d="M43.7399 111V329.26H43V111H43.7399Z" fill="#E1E1E2"/>
<path fill-rule="evenodd" clip-rule="evenodd" d="M104.305 111V329.26H103.565V111H104.305Z" fill="#E1E1E2"/>
<path fill-rule="evenodd" clip-rule="evenodd" d="M164.87 111V329.26H164.13V111H164.87Z" fill="#E1E1E2"/>
<path fill-rule="evenodd" clip-rule="evenodd" d="M225.435 111V329.26H224.695V111H225.435Z" fill="#E1E1E2"/>
<path fill-rule="evenodd" clip-rule="evenodd" d="M286 111V329.26H285.26V111H286Z" fill="#E1E1E2"/>
<path d="M77.7397 329.689H43.7397L43.7397 281.169C43.7397 280.352 44.4022 279.689 45.2195 279.689H76.26C77.0773 279.689 77.7397 280.352 77.7397 281.169L77.7397 329.689Z" fill="#0370BE"/>
<path d="M112.196 329.689H78.1963L78.1963 281.169C78.1963 280.352 78.8588 279.689 79.676 279.689H110.717C111.534 279.689 112.196 280.352 112.196 281.169L112.196 329.689Z" fill="#DBF1FD"/>
<path d="M146.653 330.297H112.653L112.653 236.777C112.653 235.96 113.315 235.297 114.133 235.297H145.173C145.99 235.297 146.653 235.96 146.653 236.777L146.653 330.297Z" fill="#0370BE"/>
<path d="M181.109 330.297H147.109L147.109 236.777C147.109 235.96 147.772 235.297 148.589 235.297H179.63C180.447 235.297 181.109 235.96 181.109 236.777L181.109 330.297Z" fill="#DBF1FD"/>
<path d="M215.566 330.044H181.566L181.566 200.524C181.566 199.706 182.228 199.044 183.046 199.044H214.086C214.903 199.044 215.566 199.706 215.566 200.524L215.566 330.044Z" fill="#0370BE"/>
<path d="M250.023 330.044H216.023L216.023 200.524C216.023 199.706 216.685 199.044 217.502 199.044H248.543C249.36 199.044 250.023 199.706 250.023 200.524L250.023 330.044Z" fill="#DBF1FD"/>
<path d="M284.479 330.132H250.479L250.479 157.612C250.479 156.794 251.142 156.132 251.959 156.132H282.999C283.817 156.132 284.479 156.794 284.479 157.611L284.479 330.132Z" fill="#0370BE"/>
<path d="M18.2336 330.764V323.12H18.7233V330.764H18.2336ZM19.7654 325.491C19.7336 325.208 19.6022 324.989 19.3713 324.834C19.1403 324.677 18.8497 324.598 18.4993 324.598C18.2485 324.598 18.0315 324.638 17.8484 324.718C17.6652 324.795 17.5229 324.903 17.4213 325.04C17.3218 325.175 17.272 325.33 17.272 325.503C17.272 325.648 17.3059 325.774 17.3736 325.879C17.4432 325.985 17.5338 326.073 17.6453 326.145C17.7588 326.215 17.8802 326.273 18.0096 326.321C18.139 326.367 18.2634 326.405 18.3829 326.435L18.9801 326.59C19.1752 326.638 19.3752 326.702 19.5803 326.784C19.7853 326.866 19.9754 326.973 20.1506 327.106C20.3258 327.24 20.4672 327.405 20.5746 327.602C20.6841 327.799 20.7389 328.035 20.7389 328.31C20.7389 328.656 20.6493 328.964 20.4701 329.233C20.293 329.501 20.0352 329.713 19.6967 329.869C19.3603 330.024 18.9532 330.102 18.4754 330.102C18.0176 330.102 17.6214 330.029 17.287 329.884C16.9525 329.738 16.6908 329.532 16.5016 329.265C16.3125 328.997 16.208 328.678 16.1881 328.31H17.1138C17.1317 328.531 17.2034 328.715 17.3288 328.862C17.4562 329.008 17.6184 329.116 17.8155 329.188C18.0146 329.257 18.2326 329.292 18.4695 329.292C18.7302 329.292 18.9622 329.251 19.1652 329.17C19.3703 329.086 19.5315 328.971 19.649 328.823C19.7664 328.674 19.8251 328.5 19.8251 328.301C19.8251 328.12 19.7734 327.971 19.6699 327.856C19.5683 327.741 19.43 327.645 19.2548 327.569C19.0816 327.494 18.8855 327.427 18.6665 327.369L17.9439 327.172C17.4542 327.039 17.066 326.843 16.7793 326.584C16.4947 326.325 16.3523 325.983 16.3523 325.557C16.3523 325.204 16.4479 324.897 16.639 324.634C16.8301 324.371 17.0889 324.167 17.4154 324.022C17.7419 323.875 18.1101 323.801 18.5202 323.801C18.9343 323.801 19.2996 323.874 19.6161 324.019C19.9346 324.164 20.1855 324.364 20.3686 324.619C20.5518 324.872 20.6473 325.163 20.6553 325.491H19.7654ZM24.0781 323.885V330H23.1524V324.81H23.1166L21.6534 325.766V324.882L23.1793 323.885H24.0781ZM27.8614 330.102C27.3896 330.1 26.9865 329.975 26.6521 329.728C26.3176 329.481 26.0618 329.122 25.8846 328.65C25.7075 328.178 25.6189 327.61 25.6189 326.945C25.6189 326.282 25.7075 325.716 25.8846 325.246C26.0638 324.776 26.3206 324.418 26.6551 324.171C26.9915 323.924 27.3936 323.801 27.8614 323.801C28.3293 323.801 28.7304 323.925 29.0648 324.174C29.3993 324.421 29.6551 324.779 29.8322 325.249C30.0114 325.717 30.101 326.282 30.101 326.945C30.101 327.612 30.0124 328.181 29.8352 328.653C29.6581 329.123 29.4023 329.482 29.0678 329.731C28.7334 329.978 28.3312 330.102 27.8614 330.102ZM27.8614 329.304C28.2755 329.304 28.599 329.102 28.8319 328.698C29.0668 328.294 29.1843 327.71 29.1843 326.945C29.1843 326.438 29.1305 326.009 29.023 325.658C28.9175 325.306 28.7652 325.039 28.5661 324.858C28.3691 324.675 28.1342 324.583 27.8614 324.583C27.4494 324.583 27.1259 324.786 26.891 325.192C26.6561 325.599 26.5376 326.183 26.5356 326.945C26.5356 327.455 26.5884 327.886 26.6939 328.238C26.8014 328.589 26.9537 328.854 27.1507 329.035C27.3478 329.215 27.5847 329.304 27.8614 329.304ZM33.2894 330.102C32.8176 330.1 32.4145 329.975 32.08 329.728C31.7456 329.481 31.4898 329.122 31.3126 328.65C31.1354 328.178 31.0468 327.61 31.0468 326.945C31.0468 326.282 31.1354 325.716 31.3126 325.246C31.4918 324.776 31.7486 324.418 32.083 324.171C32.4194 323.924 32.8216 323.801 33.2894 323.801C33.7572 323.801 34.1583 323.925 34.4928 324.174C34.8272 324.421 35.083 324.779 35.2602 325.249C35.4394 325.717 35.5289 326.282 35.5289 326.945C35.5289 327.612 35.4404 328.181 35.2632 328.653C35.086 329.123 34.8302 329.482 34.4958 329.731C34.1613 329.978 33.7592 330.102 33.2894 330.102ZM33.2894 329.304C33.7035 329.304 34.0269 329.102 34.2599 328.698C34.4948 328.294 34.6122 327.71 34.6122 326.945C34.6122 326.438 34.5585 326.009 34.451 325.658C34.3455 325.306 34.1932 325.039 33.9941 324.858C33.797 324.675 33.5621 324.583 33.2894 324.583C32.8773 324.583 32.5538 324.786 32.3189 325.192C32.084 325.599 31.9656 326.183 31.9636 326.945C31.9636 327.455 32.0163 327.886 32.1218 328.238C32.2293 328.589 32.3816 328.854 32.5787 329.035C32.7758 329.215 33.0127 329.304 33.2894 329.304Z" fill="#757575"/>
<path d="M17.0511 260.764V253.12H17.5408V260.764H17.0511ZM18.5829 255.491C18.5511 255.208 18.4197 254.989 18.1888 254.834C17.9578 254.677 17.6672 254.598 17.3168 254.598C17.066 254.598 16.849 254.638 16.6659 254.718C16.4827 254.795 16.3404 254.903 16.2389 255.04C16.1393 255.175 16.0896 255.33 16.0896 255.503C16.0896 255.648 16.1234 255.774 16.1911 255.879C16.2608 255.985 16.3513 256.073 16.4628 256.145C16.5763 256.215 16.6977 256.273 16.8271 256.321C16.9565 256.367 17.0809 256.405 17.2004 256.435L17.7976 256.59C17.9927 256.638 18.1928 256.702 18.3978 256.784C18.6028 256.866 18.793 256.973 18.9681 257.106C19.1433 257.24 19.2847 257.405 19.3922 257.602C19.5017 257.799 19.5564 258.035 19.5564 258.31C19.5564 258.656 19.4668 258.964 19.2876 259.233C19.1105 259.501 18.8527 259.713 18.5143 259.869C18.1778 260.024 17.7707 260.102 17.2929 260.102C16.8351 260.102 16.4389 260.029 16.1045 259.884C15.77 259.738 15.5083 259.532 15.3191 259.265C15.13 258.997 15.0255 258.678 15.0056 258.31H15.9313C15.9492 258.531 16.0209 258.715 16.1463 258.862C16.2737 259.008 16.4359 259.116 16.633 259.188C16.8321 259.257 17.0501 259.292 17.287 259.292C17.5478 259.292 17.7797 259.251 17.9827 259.17C18.1878 259.086 18.349 258.971 18.4665 258.823C18.5839 258.674 18.6427 258.5 18.6427 258.301C18.6427 258.12 18.5909 257.971 18.4874 257.856C18.3859 257.741 18.2475 257.645 18.0723 257.569C17.8991 257.494 17.703 257.427 17.4841 257.369L16.7614 257.172C16.2717 257.039 15.8835 256.843 15.5969 256.584C15.3122 256.325 15.1698 255.983 15.1698 255.557C15.1698 255.204 15.2654 254.897 15.4565 254.634C15.6476 254.371 15.9064 254.167 16.2329 254.022C16.5594 253.875 16.9276 253.801 17.3377 253.801C17.7518 253.801 18.1171 253.874 18.4336 254.019C18.7521 254.164 19.003 254.364 19.1861 254.619C19.3693 254.872 19.4648 255.163 19.4728 255.491H18.5829ZM20.5754 260V259.331L22.6448 257.187C22.8657 256.954 23.0479 256.75 23.1912 256.575C23.3365 256.398 23.445 256.23 23.5167 256.07C23.5884 255.911 23.6242 255.742 23.6242 255.563C23.6242 255.36 23.5764 255.184 23.4809 255.037C23.3853 254.888 23.2549 254.773 23.0897 254.694C22.9244 254.612 22.7383 254.571 22.5313 254.571C22.3123 254.571 22.1212 254.616 21.958 254.706C21.7947 254.795 21.6693 254.922 21.5817 255.085C21.4941 255.248 21.4503 255.439 21.4503 255.658H20.5694C20.5694 255.286 20.655 254.96 20.8262 254.682C20.9974 254.403 21.2323 254.187 21.5309 254.034C21.8296 253.879 22.169 253.801 22.5492 253.801C22.9334 253.801 23.2718 253.878 23.5645 254.031C23.8591 254.182 24.089 254.389 24.2542 254.652C24.4195 254.913 24.5021 255.207 24.5021 255.536C24.5021 255.763 24.4593 255.985 24.3737 256.202C24.2901 256.419 24.1438 256.661 23.9347 256.927C23.7257 257.192 23.4351 257.514 23.0628 257.892L21.8475 259.164V259.209H24.6006V260H20.5754ZM27.8614 260.102C27.3896 260.1 26.9865 259.975 26.6521 259.728C26.3176 259.481 26.0618 259.122 25.8846 258.65C25.7075 258.178 25.6189 257.61 25.6189 256.945C25.6189 256.282 25.7075 255.716 25.8846 255.246C26.0638 254.776 26.3206 254.418 26.6551 254.171C26.9915 253.924 27.3936 253.801 27.8614 253.801C28.3293 253.801 28.7304 253.925 29.0648 254.174C29.3993 254.421 29.6551 254.779 29.8322 255.249C30.0114 255.717 30.101 256.282 30.101 256.945C30.101 257.612 30.0124 258.181 29.8352 258.653C29.6581 259.123 29.4023 259.482 29.0678 259.731C28.7334 259.978 28.3312 260.102 27.8614 260.102ZM27.8614 259.304C28.2755 259.304 28.599 259.102 28.8319 258.698C29.0668 258.294 29.1843 257.71 29.1843 256.945C29.1843 256.438 29.1305 256.009 29.023 255.658C28.9175 255.306 28.7652 255.039 28.5662 254.858C28.3691 254.675 28.1342 254.583 27.8614 254.583C27.4494 254.583 27.1259 254.786 26.891 255.192C26.6561 255.599 26.5376 256.183 26.5356 256.945C26.5356 257.455 26.5884 257.886 26.6939 258.238C26.8014 258.589 26.9537 258.854 27.1507 259.035C27.3478 259.215 27.5847 259.304 27.8614 259.304ZM33.2894 260.102C32.8176 260.1 32.4145 259.975 32.08 259.728C31.7456 259.481 31.4898 259.122 31.3126 258.65C31.1354 258.178 31.0468 257.61 31.0468 256.945C31.0468 256.282 31.1354 255.716 31.3126 255.246C31.4918 254.776 31.7486 254.418 32.083 254.171C32.4194 253.924 32.8216 253.801 33.2894 253.801C33.7572 253.801 34.1583 253.925 34.4928 254.174C34.8272 254.421 35.083 254.779 35.2602 255.249C35.4394 255.717 35.5289 256.282 35.5289 256.945C35.5289 257.612 35.4404 258.181 35.2632 258.653C35.086 259.123 34.8302 259.482 34.4958 259.731C34.1613 259.978 33.7592 260.102 33.2894 260.102ZM33.2894 259.304C33.7035 259.304 34.0269 259.102 34.2599 258.698C34.4948 258.294 34.6122 257.71 34.6122 256.945C34.6122 256.438 34.5585 256.009 34.451 255.658C34.3455 255.306 34.1932 255.039 33.9941 254.858C33.797 254.675 33.5621 254.583 33.2894 254.583C32.8773 254.583 32.5538 254.786 32.3189 255.192C32.084 255.599 31.9656 256.183 31.9636 256.945C31.9636 257.455 32.0163 257.886 32.1218 258.238C32.2293 258.589 32.3816 258.854 32.5787 259.035C32.7758 259.215 33.0127 259.304 33.2894 259.304Z" fill="#757575"/>
<path d="M16.7062 187.764V180.12H17.1959V187.764H16.7062ZM18.238 182.491C18.2062 182.208 18.0748 181.989 17.8439 181.834C17.613 181.677 17.3223 181.598 16.9719 181.598C16.7211 181.598 16.5041 181.638 16.321 181.718C16.1378 181.795 15.9955 181.903 15.894 182.04C15.7944 182.175 15.7447 182.33 15.7447 182.503C15.7447 182.648 15.7785 182.774 15.8462 182.879C15.9159 182.985 16.0064 183.073 16.1179 183.145C16.2314 183.215 16.3528 183.273 16.4822 183.321C16.6116 183.367 16.736 183.405 16.8555 183.435L17.4527 183.59C17.6478 183.638 17.8479 183.702 18.0529 183.784C18.2579 183.866 18.4481 183.973 18.6232 184.106C18.7984 184.24 18.9398 184.405 19.0473 184.602C19.1568 184.799 19.2115 185.035 19.2115 185.31C19.2115 185.656 19.1219 185.964 18.9428 186.233C18.7656 186.501 18.5078 186.713 18.1694 186.869C17.8329 187.024 17.4258 187.102 16.9481 187.102C16.4902 187.102 16.094 187.029 15.7596 186.884C15.4252 186.738 15.1634 186.532 14.9743 186.265C14.7851 185.997 14.6806 185.678 14.6607 185.31H15.5864C15.6043 185.531 15.676 185.715 15.8014 185.862C15.9288 186.008 16.091 186.116 16.2881 186.188C16.4872 186.257 16.7052 186.292 16.9421 186.292C17.2029 186.292 17.4348 186.251 17.6378 186.17C17.8429 186.086 18.0041 185.971 18.1216 185.823C18.239 185.674 18.2978 185.5 18.2978 185.301C18.2978 185.12 18.246 184.971 18.1425 184.856C18.041 184.741 17.9026 184.645 17.7274 184.569C17.5542 184.494 17.3581 184.427 17.1392 184.369L16.4165 184.172C15.9268 184.039 15.5386 183.843 15.252 183.584C14.9673 183.325 14.825 182.983 14.825 182.557C14.825 182.204 14.9205 181.897 15.1116 181.634C15.3027 181.371 15.5615 181.167 15.888 181.022C16.2145 180.875 16.5828 180.801 16.9928 180.801C17.4069 180.801 17.7722 180.874 18.0887 181.019C18.4073 181.164 18.6581 181.364 18.8412 181.619C19.0244 181.872 19.1199 182.163 19.1279 182.491H18.238ZM20.1021 185.806V185.059L22.7448 180.885H23.333V181.983H22.9598L21.0696 184.975V185.023H24.6917V185.806H20.1021ZM23.0016 187V185.579L23.0076 185.238V180.885H23.8825V187H23.0016ZM27.8614 187.102C27.3896 187.1 26.9865 186.975 26.6521 186.728C26.3176 186.481 26.0618 186.122 25.8846 185.65C25.7075 185.178 25.6189 184.61 25.6189 183.945C25.6189 183.282 25.7075 182.716 25.8846 182.246C26.0638 181.776 26.3206 181.418 26.6551 181.171C26.9915 180.924 27.3936 180.801 27.8614 180.801C28.3293 180.801 28.7304 180.925 29.0648 181.174C29.3993 181.421 29.6551 181.779 29.8322 182.249C30.0114 182.717 30.101 183.282 30.101 183.945C30.101 184.612 30.0124 185.181 29.8352 185.653C29.6581 186.123 29.4023 186.482 29.0678 186.731C28.7334 186.978 28.3312 187.102 27.8614 187.102ZM27.8614 186.304C28.2755 186.304 28.599 186.102 28.8319 185.698C29.0668 185.294 29.1843 184.71 29.1843 183.945C29.1843 183.438 29.1305 183.009 29.023 182.658C28.9175 182.306 28.7652 182.039 28.5662 181.858C28.3691 181.675 28.1342 181.583 27.8614 181.583C27.4494 181.583 27.1259 181.786 26.891 182.192C26.6561 182.599 26.5376 183.183 26.5356 183.945C26.5356 184.455 26.5884 184.886 26.6939 185.238C26.8014 185.589 26.9537 185.854 27.1507 186.035C27.3478 186.215 27.5847 186.304 27.8614 186.304ZM33.2894 187.102C32.8176 187.1 32.4145 186.975 32.08 186.728C31.7456 186.481 31.4898 186.122 31.3126 185.65C31.1354 185.178 31.0468 184.61 31.0468 183.945C31.0468 183.282 31.1354 182.716 31.3126 182.246C31.4918 181.776 31.7486 181.418 32.083 181.171C32.4194 180.924 32.8216 180.801 33.2894 180.801C33.7572 180.801 34.1583 180.925 34.4928 181.174C34.8272 181.421 35.083 181.779 35.2602 182.249C35.4394 182.717 35.5289 183.282 35.5289 183.945C35.5289 184.612 35.4404 185.181 35.2632 185.653C35.086 186.123 34.8302 186.482 34.4958 186.731C34.1613 186.978 33.7592 187.102 33.2894 187.102ZM33.2894 186.304C33.7035 186.304 34.0269 186.102 34.2599 185.698C34.4948 185.294 34.6122 184.71 34.6122 183.945C34.6122 183.438 34.5585 183.009 34.451 182.658C34.3455 182.306 34.1932 182.039 33.9941 181.858C33.797 181.675 33.5621 181.583 33.2894 181.583C32.8773 181.583 32.5538 181.786 32.3189 182.192C32.084 182.599 31.9656 183.183 31.9636 183.945C31.9636 184.455 32.0163 184.886 32.1218 185.238C32.2293 185.589 32.3816 185.854 32.5787 186.035C32.7758 186.215 33.0127 186.304 33.2894 186.304Z" fill="#757575"/>
<path d="M16.8622 114.764V107.12H17.3519V114.764H16.8622ZM18.3941 109.491C18.3622 109.208 18.2308 108.989 17.9999 108.834C17.769 108.677 17.4783 108.598 17.128 108.598C16.8771 108.598 16.6601 108.638 16.477 108.718C16.2939 108.795 16.1515 108.903 16.05 109.04C15.9505 109.175 15.9007 109.33 15.9007 109.503C15.9007 109.648 15.9345 109.774 16.0022 109.879C16.0719 109.985 16.1625 110.073 16.2739 110.145C16.3874 110.215 16.5089 110.273 16.6382 110.321C16.7676 110.367 16.8921 110.405 17.0115 110.435L17.6087 110.59C17.8038 110.638 18.0039 110.702 18.2089 110.784C18.414 110.866 18.6041 110.973 18.7793 111.106C18.9545 111.24 19.0958 111.405 19.2033 111.602C19.3128 111.799 19.3675 112.035 19.3675 112.31C19.3675 112.656 19.2779 112.964 19.0988 113.233C18.9216 113.501 18.6638 113.713 18.3254 113.869C17.989 114.024 17.5819 114.102 17.1041 114.102C16.6462 114.102 16.2501 114.029 15.9156 113.884C15.5812 113.738 15.3194 113.532 15.1303 113.265C14.9412 112.997 14.8366 112.678 14.8167 112.31H15.7424C15.7603 112.531 15.832 112.715 15.9574 112.862C16.0848 113.008 16.2471 113.116 16.4442 113.188C16.6432 113.257 16.8612 113.292 17.0981 113.292C17.3589 113.292 17.5908 113.251 17.7939 113.17C17.9989 113.086 18.1602 112.971 18.2776 112.823C18.3951 112.674 18.4538 112.5 18.4538 112.301C18.4538 112.12 18.402 111.971 18.2985 111.856C18.197 111.741 18.0586 111.645 17.8834 111.569C17.7103 111.494 17.5142 111.427 17.2952 111.369L16.5726 111.172C16.0828 111.039 15.6946 110.843 15.408 110.584C15.1233 110.325 14.981 109.983 14.981 109.557C14.981 109.204 15.0765 108.897 15.2676 108.634C15.4587 108.371 15.7175 108.167 16.044 108.022C16.3705 107.875 16.7388 107.801 17.1489 107.801C17.5629 107.801 17.9282 107.874 18.2448 108.019C18.5633 108.164 18.8141 108.364 18.9973 108.619C19.1804 108.872 19.276 109.163 19.2839 109.491H18.3941ZM22.5216 114.084C22.2488 114.08 21.9801 114.03 21.7153 113.934C21.4526 113.839 21.2137 113.679 20.9987 113.457C20.7837 113.234 20.6115 112.934 20.4821 112.558C20.3547 112.181 20.291 111.712 20.291 111.148C20.291 110.615 20.3437 110.141 20.4492 109.727C20.5567 109.313 20.711 108.963 20.9121 108.679C21.1131 108.392 21.356 108.174 21.6407 108.025C21.9254 107.876 22.2449 107.801 22.5992 107.801C22.9635 107.801 23.287 107.873 23.5697 108.016C23.8524 108.159 24.0813 108.357 24.2565 108.61C24.4337 108.863 24.5461 109.151 24.5939 109.473H23.6832C23.6214 109.218 23.499 109.01 23.3159 108.849C23.1327 108.688 22.8938 108.607 22.5992 108.607C22.1513 108.607 21.8019 108.802 21.5511 109.192C21.3023 109.583 21.1768 110.125 21.1749 110.82H21.2196C21.3252 110.647 21.4545 110.499 21.6078 110.378C21.7631 110.254 21.9363 110.16 22.1274 110.094C22.3205 110.027 22.5236 109.993 22.7366 109.993C23.0909 109.993 23.4114 110.079 23.6981 110.252C23.9867 110.424 24.2167 110.661 24.3879 110.963C24.5591 111.266 24.6447 111.612 24.6447 112.002C24.6447 112.392 24.5561 112.746 24.3789 113.062C24.2037 113.379 23.9569 113.63 23.6384 113.815C23.3199 113.998 22.9476 114.088 22.5216 114.084ZM22.5186 113.307C22.7535 113.307 22.9635 113.249 23.1487 113.134C23.3338 113.019 23.4801 112.863 23.5876 112.668C23.6951 112.473 23.7489 112.255 23.7489 112.014C23.7489 111.779 23.6961 111.565 23.5906 111.372C23.4871 111.179 23.3437 111.026 23.1606 110.912C22.9794 110.799 22.7724 110.742 22.5395 110.742C22.3623 110.742 22.1981 110.776 22.0468 110.844C21.8975 110.911 21.7661 111.005 21.6526 111.124C21.5392 111.244 21.4496 111.381 21.3839 111.536C21.3202 111.69 21.2883 111.852 21.2883 112.023C21.2883 112.252 21.3411 112.464 21.4466 112.659C21.5541 112.854 21.7004 113.012 21.8855 113.131C22.0727 113.249 22.2837 113.307 22.5186 113.307ZM27.8614 114.102C27.3896 114.1 26.9865 113.975 26.6521 113.728C26.3176 113.481 26.0618 113.122 25.8846 112.65C25.7075 112.178 25.6189 111.61 25.6189 110.945C25.6189 110.282 25.7075 109.716 25.8846 109.246C26.0638 108.776 26.3206 108.418 26.6551 108.171C26.9915 107.924 27.3936 107.801 27.8614 107.801C28.3293 107.801 28.7304 107.925 29.0648 108.174C29.3993 108.421 29.6551 108.779 29.8322 109.249C30.0114 109.717 30.101 110.282 30.101 110.945C30.101 111.612 30.0124 112.181 29.8352 112.653C29.6581 113.123 29.4023 113.482 29.0678 113.731C28.7334 113.978 28.3312 114.102 27.8614 114.102ZM27.8614 113.304C28.2755 113.304 28.599 113.102 28.8319 112.698C29.0668 112.294 29.1843 111.71 29.1843 110.945C29.1843 110.438 29.1305 110.009 29.023 109.658C28.9175 109.306 28.7652 109.039 28.5662 108.858C28.3691 108.675 28.1342 108.583 27.8614 108.583C27.4494 108.583 27.1259 108.786 26.891 109.192C26.6561 109.599 26.5376 110.183 26.5356 110.945C26.5356 111.455 26.5884 111.886 26.6939 112.238C26.8014 112.589 26.9537 112.854 27.1507 113.035C27.3478 113.215 27.5847 113.304 27.8614 113.304ZM33.2894 114.102C32.8176 114.1 32.4145 113.975 32.08 113.728C31.7456 113.481 31.4898 113.122 31.3126 112.65C31.1354 112.178 31.0468 111.61 31.0468 110.945C31.0468 110.282 31.1354 109.716 31.3126 109.246C31.4918 108.776 31.7486 108.418 32.083 108.171C32.4194 107.924 32.8216 107.801 33.2894 107.801C33.7572 107.801 34.1583 107.925 34.4928 108.174C34.8272 108.421 35.083 108.779 35.2602 109.249C35.4394 109.717 35.5289 110.282 35.5289 110.945C35.5289 111.612 35.4404 112.181 35.2632 112.653C35.086 113.123 34.8302 113.482 34.4958 113.731C34.1613 113.978 33.7592 114.102 33.2894 114.102ZM33.2894 113.304C33.7035 113.304 34.0269 113.102 34.2599 112.698C34.4948 112.294 34.6122 111.71 34.6122 110.945C34.6122 110.438 34.5585 110.009 34.451 109.658C34.3455 109.306 34.1932 109.039 33.9941 108.858C33.797 108.675 33.5621 108.583 33.2894 108.583C32.8773 108.583 32.5538 108.786 32.3189 109.192C32.084 109.599 31.9656 110.183 31.9636 110.945C31.9636 111.455 32.0163 111.886 32.1218 112.238C32.2293 112.589 32.3816 112.854 32.5787 113.035C32.7758 113.215 33.0127 113.304 33.2894 113.304Z" fill="#757575"/>
<path d="M59.9212 337.885V344H58.9955V338.81H58.9597L57.4965 339.766V338.882L59.0224 337.885H59.9212Z" fill="#A1A1AA"/>
<path d="M93.0098 344V343.331L95.0791 341.187C95.3001 340.954 95.4823 340.75 95.6256 340.575C95.7709 340.398 95.8794 340.23 95.9511 340.07C96.0227 339.911 96.0586 339.742 96.0586 339.563C96.0586 339.36 96.0108 339.184 95.9152 339.037C95.8197 338.888 95.6893 338.773 95.5241 338.694C95.3588 338.612 95.1727 338.571 94.9657 338.571C94.7467 338.571 94.5556 338.616 94.3923 338.706C94.2291 338.795 94.1037 338.922 94.0161 339.085C93.9285 339.248 93.8847 339.439 93.8847 339.658H93.0038C93.0038 339.286 93.0894 338.96 93.2606 338.682C93.4318 338.403 93.6667 338.187 93.9653 338.034C94.2639 337.879 94.6033 337.801 94.9836 337.801C95.3678 337.801 95.7062 337.878 95.9988 338.031C96.2935 338.182 96.5234 338.389 96.6886 338.652C96.8539 338.913 96.9365 339.207 96.9365 339.536C96.9365 339.763 96.8937 339.985 96.8081 340.202C96.7245 340.419 96.5781 340.661 96.3691 340.927C96.1601 341.192 95.8694 341.514 95.4972 341.892L94.2818 343.164V343.209H97.035V344H93.0098Z" fill="#A1A1AA"/>
<path d="M130.007 344.084C129.597 344.084 129.231 344.013 128.909 343.872C128.588 343.73 128.334 343.534 128.147 343.283C127.962 343.031 127.862 342.738 127.849 342.405H128.786C128.798 342.587 128.859 342.744 128.968 342.877C129.08 343.009 129.225 343.11 129.404 343.182C129.583 343.253 129.783 343.289 130.001 343.289C130.242 343.289 130.455 343.248 130.641 343.164C130.828 343.08 130.974 342.964 131.079 342.815C131.185 342.663 131.238 342.489 131.238 342.292C131.238 342.087 131.185 341.907 131.079 341.751C130.976 341.594 130.824 341.471 130.623 341.381C130.424 341.292 130.183 341.247 129.9 341.247H129.383V340.494H129.9C130.127 340.494 130.326 340.454 130.497 340.372C130.67 340.29 130.806 340.177 130.903 340.031C131.001 339.884 131.05 339.712 131.05 339.515C131.05 339.326 131.007 339.162 130.921 339.022C130.838 338.881 130.718 338.77 130.563 338.691C130.41 338.611 130.228 338.571 130.019 338.571C129.82 338.571 129.634 338.608 129.461 338.682C129.29 338.753 129.15 338.857 129.043 338.992C128.935 339.126 128.878 339.286 128.87 339.473H127.977C127.987 339.143 128.084 338.852 128.27 338.601C128.457 338.35 128.704 338.154 129.01 338.013C129.317 337.872 129.657 337.801 130.031 337.801C130.424 337.801 130.762 337.878 131.047 338.031C131.333 338.182 131.554 338.384 131.71 338.637C131.867 338.89 131.944 339.167 131.942 339.467C131.944 339.81 131.849 340.1 131.656 340.339C131.465 340.578 131.21 340.738 130.891 340.82V340.868C131.297 340.929 131.612 341.091 131.835 341.351C132.06 341.612 132.171 341.936 132.169 342.322C132.171 342.658 132.078 342.96 131.889 343.227C131.702 343.493 131.446 343.703 131.121 343.857C130.797 344.008 130.426 344.084 130.007 344.084Z" fill="#A1A1AA"/>
<path d="M164.709 342.806V342.059L167.352 337.885H167.94V338.983H167.567L165.676 341.975V342.023H169.299V342.806H164.709ZM167.608 344V342.579L167.614 342.238V337.885H168.489V344H167.608Z" fill="#A1A1AA"/>
<path d="M201 344.084C200.625 344.084 200.289 344.012 199.99 343.869C199.694 343.723 199.457 343.524 199.28 343.271C199.102 343.019 199.008 342.73 198.996 342.405H199.892C199.914 342.668 200.03 342.884 200.241 343.053C200.452 343.223 200.705 343.307 201 343.307C201.235 343.307 201.443 343.253 201.624 343.146C201.807 343.036 201.95 342.886 202.054 342.695C202.159 342.504 202.212 342.286 202.212 342.041C202.212 341.792 202.158 341.57 202.051 341.375C201.943 341.18 201.795 341.027 201.606 340.915C201.419 340.804 201.204 340.747 200.961 340.745C200.776 340.745 200.59 340.777 200.402 340.841C200.215 340.904 200.064 340.988 199.949 341.092L199.103 340.966L199.447 337.885H202.809V338.676H200.214L200.02 340.387H200.056C200.175 340.271 200.334 340.175 200.531 340.097C200.73 340.02 200.943 339.981 201.17 339.981C201.542 339.981 201.874 340.069 202.164 340.246C202.457 340.424 202.687 340.666 202.854 340.972C203.023 341.277 203.107 341.627 203.105 342.023C203.107 342.419 203.017 342.773 202.836 343.083C202.657 343.394 202.408 343.639 202.09 343.818C201.773 343.995 201.41 344.084 201 344.084Z" fill="#A1A1AA"/>
<path d="M235.05 344.084C234.778 344.08 234.509 344.03 234.244 343.934C233.981 343.839 233.742 343.679 233.527 343.457C233.312 343.234 233.14 342.934 233.011 342.558C232.883 342.181 232.82 341.712 232.82 341.148C232.82 340.615 232.873 340.141 232.978 339.727C233.086 339.313 233.24 338.963 233.441 338.679C233.642 338.392 233.885 338.174 234.169 338.025C234.454 337.876 234.774 337.801 235.128 337.801C235.492 337.801 235.816 337.873 236.099 338.016C236.381 338.159 236.61 338.357 236.785 338.61C236.962 338.863 237.075 339.151 237.123 339.473H236.212C236.15 339.218 236.028 339.01 235.845 338.849C235.662 338.688 235.423 338.607 235.128 338.607C234.68 338.607 234.331 338.802 234.08 339.192C233.831 339.583 233.706 340.125 233.704 340.82H233.748C233.854 340.647 233.983 340.499 234.137 340.378C234.292 340.254 234.465 340.16 234.656 340.094C234.849 340.027 235.052 339.993 235.265 339.993C235.62 339.993 235.94 340.079 236.227 340.252C236.516 340.424 236.745 340.661 236.917 340.963C237.088 341.266 237.173 341.612 237.173 342.002C237.173 342.392 237.085 342.746 236.908 343.062C236.733 343.379 236.486 343.63 236.167 343.815C235.849 343.998 235.476 344.088 235.05 344.084ZM235.047 343.307C235.282 343.307 235.492 343.249 235.677 343.134C235.863 343.019 236.009 342.863 236.116 342.668C236.224 342.473 236.278 342.255 236.278 342.014C236.278 341.779 236.225 341.565 236.119 341.372C236.016 341.179 235.873 341.026 235.689 340.912C235.508 340.799 235.301 340.742 235.068 340.742C234.891 340.742 234.727 340.776 234.576 340.844C234.426 340.911 234.295 341.005 234.181 341.124C234.068 341.244 233.978 341.381 233.913 341.536C233.849 341.69 233.817 341.852 233.817 342.023C233.817 342.252 233.87 342.464 233.975 342.659C234.083 342.854 234.229 343.012 234.414 343.131C234.601 343.249 234.812 343.307 235.047 343.307Z" fill="#A1A1AA"/>
<path d="M267.86 344L270.529 338.721V338.676H267.441V337.885H271.485V338.703L268.824 344H267.86Z" fill="#A1A1AA"/>
<g filter="url(#filter0_dd_1_763)">
<mask id="path-30-inside-1_1_763" fill="white">
<path fill-rule="evenodd" clip-rule="evenodd" d="M183.621 149.375C180.724 149.375 178.375 151.724 178.375 154.621V185.754C178.375 188.651 180.724 191 183.621 191H185.875L189.625 194.125L193.375 191H232.504C235.401 191 237.75 188.651 237.75 185.754V154.621C237.75 151.724 235.401 149.375 232.504 149.375H183.621Z"/>
</mask>
<path fill-rule="evenodd" clip-rule="evenodd" d="M183.621 149.375C180.724 149.375 178.375 151.724 178.375 154.621V185.754C178.375 188.651 180.724 191 183.621 191H185.875L189.625 194.125L193.375 191H232.504C235.401 191 237.75 188.651 237.75 185.754V154.621C237.75 151.724 235.401 149.375 232.504 149.375H183.621Z" fill="white"/>
<path d="M185.875 191L186.275 190.52L186.101 190.375H185.875V191ZM189.625 194.125L189.225 194.605L189.625 194.939L190.025 194.605L189.625 194.125ZM193.375 191V190.375H193.149L192.975 190.52L193.375 191ZM179 154.621C179 152.069 181.069 150 183.621 150V148.75C180.378 148.75 177.75 151.378 177.75 154.621H179ZM179 185.754V154.621H177.75V185.754H179ZM183.621 190.375C181.069 190.375 179 188.306 179 185.754H177.75C177.75 188.997 180.378 191.625 183.621 191.625V190.375ZM185.875 190.375H183.621V191.625H185.875V190.375ZM190.025 193.645L186.275 190.52L185.475 191.48L189.225 194.605L190.025 193.645ZM192.975 190.52L189.225 193.645L190.025 194.605L193.775 191.48L192.975 190.52ZM232.504 190.375H193.375V191.625H232.504V190.375ZM237.125 185.754C237.125 188.306 235.056 190.375 232.504 190.375V191.625C235.747 191.625 238.375 188.997 238.375 185.754H237.125ZM237.125 154.621V185.754H238.375V154.621H237.125ZM232.504 150C235.056 150 237.125 152.069 237.125 154.621H238.375C238.375 151.378 235.747 148.75 232.504 148.75V150ZM183.621 150H232.504V148.75H183.621V150Z" fill="#E1E1E2" mask="url(#path-30-inside-1_1_763)"/>
</g>
<path d="M189.699 158.636H190.864L192.89 163.583H192.965L194.991 158.636H196.156V165H195.242V160.395H195.183L193.307 164.991H192.548L190.672 160.392H190.613V165H189.699V158.636ZM198.866 165.106C198.564 165.106 198.29 165.05 198.046 164.938C197.802 164.824 197.608 164.659 197.465 164.444C197.324 164.228 197.254 163.964 197.254 163.651C197.254 163.382 197.305 163.161 197.409 162.987C197.513 162.812 197.652 162.675 197.828 162.573C198.005 162.472 198.201 162.395 198.419 162.343C198.636 162.292 198.858 162.252 199.084 162.225C199.37 162.192 199.602 162.165 199.78 162.144C199.958 162.122 200.087 162.085 200.168 162.036C200.249 161.986 200.289 161.905 200.289 161.793V161.772C200.289 161.5 200.213 161.29 200.059 161.141C199.908 160.992 199.682 160.917 199.382 160.917C199.069 160.917 198.823 160.986 198.643 161.125C198.464 161.262 198.341 161.414 198.273 161.582L197.4 161.383C197.503 161.093 197.654 160.859 197.853 160.681C198.054 160.501 198.285 160.37 198.546 160.289C198.807 160.207 199.082 160.165 199.37 160.165C199.56 160.165 199.762 160.188 199.976 160.233C200.191 160.277 200.392 160.358 200.578 160.476C200.767 160.594 200.921 160.763 201.041 160.982C201.161 161.2 201.222 161.483 201.222 161.831V165H200.314V164.347H200.277C200.217 164.468 200.127 164.586 200.007 164.702C199.886 164.818 199.732 164.914 199.544 164.991C199.355 165.067 199.129 165.106 198.866 165.106ZM199.068 164.36C199.325 164.36 199.545 164.309 199.727 164.208C199.911 164.106 200.051 163.974 200.146 163.81C200.244 163.644 200.293 163.467 200.293 163.279V162.663C200.259 162.696 200.195 162.728 200.1 162.757C200.007 162.783 199.9 162.807 199.78 162.828C199.66 162.847 199.543 162.864 199.429 162.881C199.315 162.895 199.219 162.908 199.143 162.918C198.963 162.941 198.798 162.979 198.649 163.033C198.502 163.087 198.384 163.165 198.295 163.266C198.208 163.366 198.164 163.498 198.164 163.664C198.164 163.894 198.249 164.068 198.419 164.186C198.589 164.302 198.805 164.36 199.068 164.36ZM202.875 166.79C202.737 166.79 202.61 166.778 202.496 166.756C202.382 166.735 202.297 166.712 202.242 166.687L202.465 165.926C202.635 165.972 202.786 165.991 202.919 165.985C203.051 165.979 203.169 165.929 203.27 165.836C203.374 165.743 203.465 165.59 203.543 165.379L203.658 165.062L201.912 160.227H202.906L204.115 163.931H204.165L205.374 160.227H206.371L204.404 165.637C204.313 165.886 204.197 166.096 204.056 166.268C203.915 166.442 203.747 166.572 203.553 166.659C203.358 166.746 203.132 166.79 202.875 166.79ZM212.372 161.414V162.222H209.551V161.414H212.372ZM215.913 165V164.304L218.067 162.073C218.297 161.831 218.486 161.618 218.635 161.436C218.787 161.252 218.899 161.077 218.974 160.911C219.049 160.745 219.086 160.569 219.086 160.383C219.086 160.171 219.036 159.989 218.937 159.836C218.837 159.68 218.702 159.561 218.53 159.478C218.358 159.393 218.164 159.351 217.949 159.351C217.721 159.351 217.522 159.398 217.352 159.491C217.182 159.584 217.052 159.716 216.961 159.885C216.869 160.055 216.824 160.254 216.824 160.482H215.907C215.907 160.095 215.996 159.756 216.174 159.466C216.353 159.176 216.597 158.951 216.908 158.792C217.218 158.63 217.572 158.549 217.967 158.549C218.367 158.549 218.719 158.629 219.024 158.789C219.33 158.946 219.57 159.161 219.742 159.435C219.913 159.706 219.999 160.013 219.999 160.355C219.999 160.591 219.955 160.822 219.866 161.048C219.779 161.273 219.627 161.525 219.409 161.803C219.192 162.078 218.889 162.413 218.502 162.806L217.237 164.13V164.177H220.102V165H215.913ZM221.009 163.757V162.98L223.759 158.636H224.371V159.78H223.983L222.016 162.893V162.943H225.785V163.757H221.009ZM224.026 165V163.521L224.033 163.167V158.636H224.943V165H224.026Z" fill="#52525B"/>
<path d="M191.814 182.295V174.341H192.323V182.295H191.814ZM193.408 176.808C193.375 176.514 193.238 176.286 192.998 176.124C192.757 175.961 192.455 175.879 192.09 175.879C191.829 175.879 191.603 175.92 191.413 176.003C191.222 176.084 191.074 176.196 190.969 176.339C190.865 176.48 190.813 176.64 190.813 176.82C190.813 176.972 190.848 177.102 190.919 177.212C190.991 177.322 191.086 177.414 191.202 177.489C191.32 177.561 191.446 177.622 191.581 177.672C191.715 177.72 191.845 177.759 191.969 177.79L192.591 177.952C192.794 178.001 193.002 178.069 193.215 178.153C193.428 178.238 193.626 178.35 193.809 178.489C193.991 178.628 194.138 178.8 194.25 179.005C194.364 179.21 194.421 179.455 194.421 179.741C194.421 180.102 194.327 180.422 194.141 180.701C193.957 180.981 193.688 181.202 193.336 181.363C192.986 181.525 192.563 181.606 192.065 181.606C191.589 181.606 191.177 181.53 190.829 181.379C190.481 181.228 190.208 181.013 190.011 180.736C189.815 180.456 189.706 180.125 189.685 179.741H190.648C190.667 179.971 190.742 180.163 190.872 180.316C191.005 180.467 191.174 180.58 191.379 180.655C191.586 180.727 191.813 180.764 192.059 180.764C192.331 180.764 192.572 180.721 192.783 180.636C192.997 180.549 193.164 180.429 193.287 180.276C193.409 180.12 193.47 179.939 193.47 179.732C193.47 179.543 193.416 179.389 193.308 179.269C193.203 179.149 193.059 179.049 192.876 178.971C192.696 178.892 192.492 178.823 192.264 178.763L191.512 178.557C191.003 178.419 190.599 178.215 190.3 177.945C190.004 177.676 189.856 177.32 189.856 176.876C189.856 176.51 189.956 176.19 190.154 175.916C190.353 175.643 190.623 175.431 190.962 175.279C191.302 175.126 191.685 175.049 192.112 175.049C192.543 175.049 192.923 175.125 193.252 175.276C193.584 175.427 193.845 175.636 194.035 175.901C194.226 176.164 194.325 176.466 194.334 176.808H193.408ZM197.696 181.587C197.27 181.587 196.889 181.513 196.553 181.366C196.22 181.219 195.955 181.015 195.761 180.754C195.568 180.491 195.464 180.187 195.45 179.841H196.426C196.438 180.029 196.501 180.193 196.615 180.332C196.731 180.468 196.882 180.574 197.069 180.649C197.255 180.723 197.462 180.76 197.69 180.76C197.941 180.76 198.163 180.717 198.355 180.63C198.55 180.543 198.702 180.422 198.812 180.266C198.922 180.109 198.977 179.928 198.977 179.723C198.977 179.509 198.922 179.322 198.812 179.16C198.704 178.997 198.546 178.868 198.337 178.775C198.129 178.682 197.879 178.635 197.585 178.635H197.047V177.852H197.585C197.821 177.852 198.028 177.81 198.206 177.725C198.386 177.64 198.527 177.522 198.629 177.37C198.73 177.217 198.781 177.038 198.781 176.833C198.781 176.636 198.736 176.465 198.647 176.32C198.56 176.173 198.436 176.058 198.274 175.975C198.115 175.892 197.926 175.851 197.709 175.851C197.502 175.851 197.308 175.889 197.128 175.966C196.95 176.041 196.805 176.148 196.693 176.289C196.581 176.428 196.521 176.595 196.513 176.789H195.584C195.594 176.446 195.695 176.143 195.888 175.882C196.083 175.621 196.34 175.417 196.659 175.27C196.978 175.123 197.332 175.049 197.721 175.049C198.129 175.049 198.482 175.129 198.778 175.289C199.076 175.446 199.306 175.656 199.468 175.919C199.631 176.182 199.712 176.47 199.71 176.783C199.712 177.14 199.613 177.442 199.412 177.691C199.213 177.939 198.948 178.106 198.616 178.191V178.241C199.039 178.305 199.366 178.473 199.598 178.744C199.832 179.015 199.948 179.352 199.946 179.754C199.948 180.104 199.851 180.418 199.654 180.695C199.459 180.973 199.193 181.191 198.855 181.351C198.518 181.508 198.132 181.587 197.696 181.587ZM203.271 181.587C202.826 181.587 202.432 181.51 202.09 181.357C201.75 181.204 201.484 180.992 201.292 180.723C201.099 180.454 201.004 180.147 201.006 179.803C201.004 179.534 201.059 179.287 201.17 179.061C201.284 178.833 201.439 178.643 201.633 178.492C201.828 178.339 202.046 178.242 202.286 178.2V178.163C201.969 178.086 201.715 177.916 201.525 177.653C201.334 177.39 201.24 177.088 201.242 176.746C201.24 176.421 201.326 176.131 201.5 175.876C201.676 175.619 201.917 175.417 202.224 175.27C202.53 175.123 202.879 175.049 203.271 175.049C203.658 175.049 204.004 175.124 204.309 175.273C204.615 175.42 204.857 175.622 205.033 175.879C205.209 176.134 205.298 176.423 205.3 176.746C205.298 177.088 205.2 177.39 205.008 177.653C204.815 177.916 204.565 178.086 204.256 178.163V178.2C204.494 178.242 204.709 178.339 204.899 178.492C205.092 178.643 205.245 178.833 205.359 179.061C205.475 179.287 205.534 179.534 205.536 179.803C205.534 180.147 205.437 180.454 205.244 180.723C205.051 180.992 204.784 181.204 204.442 181.357C204.103 181.51 203.712 181.587 203.271 181.587ZM203.271 180.801C203.534 180.801 203.762 180.757 203.954 180.67C204.147 180.581 204.296 180.458 204.402 180.301C204.508 180.141 204.561 179.955 204.563 179.741C204.561 179.52 204.503 179.324 204.389 179.154C204.278 178.984 204.125 178.851 203.933 178.753C203.74 178.656 203.519 178.607 203.271 178.607C203.02 178.607 202.798 178.656 202.603 178.753C202.408 178.851 202.255 178.984 202.143 179.154C202.031 179.324 201.976 179.52 201.978 179.741C201.976 179.955 202.027 180.141 202.131 180.301C202.236 180.458 202.386 180.581 202.581 180.67C202.776 180.757 203.006 180.801 203.271 180.801ZM203.271 177.84C203.482 177.84 203.67 177.797 203.833 177.712C203.997 177.627 204.125 177.509 204.219 177.358C204.314 177.207 204.363 177.03 204.365 176.827C204.363 176.628 204.315 176.454 204.222 176.305C204.131 176.156 204.003 176.041 203.84 175.96C203.676 175.877 203.486 175.835 203.271 175.835C203.051 175.835 202.859 175.877 202.693 175.96C202.529 176.041 202.402 176.156 202.311 176.305C202.22 176.454 202.175 176.628 202.177 176.827C202.175 177.03 202.221 177.207 202.314 177.358C202.407 177.509 202.536 177.627 202.699 177.712C202.865 177.797 203.055 177.84 203.271 177.84ZM206.516 180.257V179.48L209.266 175.136H209.878V176.28H209.489L207.522 179.393V179.443H211.291V180.257H206.516ZM209.533 181.5V180.021L209.539 179.667V175.136H210.449V181.5H209.533Z" fill="#1A1A1A"/>
<defs>
<filter id="filter0_dd_1_763" x="175.375" y="147.375" width="65.375" height="50.75" filterUnits="userSpaceOnUse" color-interpolation-filters="sRGB">
<feFlood flood-opacity="0" result="BackgroundImageFix"/>
<feColorMatrix in="SourceAlpha" type="matrix" values="0 0 0 0 0 0 0 0 0 0 0 0 0 0 0 0 0 0 127 0" result="hardAlpha"/>
<feOffset dy="1"/>
<feGaussianBlur stdDeviation="1.5"/>
<feColorMatrix type="matrix" values="0 0 0 0 0.101961 0 0 0 0 0.101961 0 0 0 0 0.101961 0 0 0 0.08 0"/>
<feBlend mode="normal" in2="BackgroundImageFix" result="effect1_dropShadow_1_763"/>
<feColorMatrix in="SourceAlpha" type="matrix" values="0 0 0 0 0 0 0 0 0 0 0 0 0 0 0 0 0 0 127 0" result="hardAlpha"/>
<feOffset dy="0.5"/>
<feColorMatrix type="matrix" values="0 0 0 0 0.101961 0 0 0 0 0.101961 0 0 0 0 0.101961 0 0 0 0.08 0"/>
<feBlend mode="normal" in2="effect1_dropShadow_1_763" result="effect2_dropShadow_1_763"/>
<feBlend mode="normal" in="SourceGraphic" in2="effect2_dropShadow_1_763" result="shape"/>
</filter>
</defs>
</svg>
